<?xml version="1.0" standalone="yes"?>

<svg version="1.1" viewBox="0.0 0.0 647.0997375328084 559.7716535433071" fill="none" stroke="none" stroke-linecap="square" stroke-miterlimit="10" xmlns="http://www.w3.org/2000/svg" xmlns:xlink="http://www.w3.org/1999/xlink"><clipPath id="p.0"><path d="m0 0l647.09973 0l0 559.77167l-647.09973 0l0 -559.77167z" clip-rule="nonzero"></path></clipPath><g clip-path="url(#p.0)"><path fill="#000000" fill-opacity="0.0" d="m0 0l647.09973 0l0 559.77167l-647.09973 0z" fill-rule="evenodd"></path><path fill="#ffe599" d="m246.98294 118.97638l0 0c0 -20.317123 34.28018 -36.7874 76.566925 -36.7874l0 0c42.286743 0 76.566925 16.470276 76.566925 36.7874l0 0c0 20.317123 -34.28018 36.7874 -76.566925 36.7874l0 0c-42.286743 0 -76.566925 -16.470276 -76.566925 -36.7874z" fill-rule="evenodd"></path><path stroke="#000000" stroke-width="1.0" stroke-linejoin="round" stroke-linecap="butt" d="m246.98294 118.97638l0 0c0 -20.317123 34.28018 -36.7874 76.566925 -36.7874l0 0c42.286743 0 76.566925 16.470276 76.566925 36.7874l0 0c0 20.317123 -34.28018 36.7874 -76.566925 36.7874l0 0c-42.286743 0 -76.566925 -16.470276 -76.566925 -36.7874z" fill-rule="evenodd"></path><path fill="#000000" fill-opacity="0.0" d="m246.98294 93.78l153.13385 0l0 50.393692l-153.13385 0z" fill-rule="evenodd"></path><path fill="#000000" d="m292.1443 109.0125l0 -1.90625l1.671875 0l0 1.90625l-1.671875 0zm0 11.6875l0 -9.859375l1.671875 0l0 9.859375l-1.671875 0zm9.328125 -11.6875l0 -1.90625l1.671875 0l0 1.90625l-1.671875 0zm0 11.6875l0 -9.859375l1.671875 0l0 9.859375l-1.671875 0zm4.129181 0l0 -9.859375l1.5 0l0 1.40625q1.09375 -1.625 3.140625 -1.625q0.890625 0 1.640625 0.328125q0.75 0.3125 1.109375 0.84375q0.375 0.515625 0.53125 1.21875q0.09375 0.46875 0.09375 1.625l0 6.0625l-1.671875 0l0 -6.0q0 -1.015625 -0.203125 -1.515625q-0.1875 -0.515625 -0.6875 -0.8125q-0.5 -0.296875 -1.171875 -0.296875q-1.0625 0 -1.84375 0.671875q-0.765625 0.671875 -0.765625 2.578125l0 5.375l-1.671875 0zm21.387146 0l-1.671875 0l0 -10.640625q-0.59375 0.578125 -1.578125 1.15625q-0.984375 0.5625 -1.765625 0.859375l0 -1.625q1.40625 -0.65625 2.453125 -1.59375q1.046875 -0.9375 1.484375 -1.8125l1.078125 0l0 13.65625zm5.0163574 -7.953125l0 -1.90625l1.90625 0l0 1.90625l-1.90625 0zm0 7.953125l0 -1.90625l1.90625 0l0 1.90625l-1.90625 0zm10.542664 0l-1.671875 0l0 -10.640625q-0.59375 0.578125 -1.578125 1.15625q-0.984375 0.5625 -1.765625 0.859375l0 -1.625q1.40625 -0.65625 2.453125 -1.59375q1.046875 -0.9375 1.484375 -1.8125l1.078125 0l0 13.65625zm4.0788574 -6.703125q0 -2.421875 0.5 -3.890625q0.5 -1.46875 1.46875 -2.265625q0.984375 -0.796875 2.46875 -0.796875q1.09375 0 1.921875 0.4375q0.828125 0.4375 1.359375 1.28125q0.546875 0.828125 0.84375 2.015625q0.3125 1.1875 0.3125 3.21875q0 2.390625 -0.5 3.859375q-0.484375 1.46875 -1.46875 2.28125q-0.96875 0.796875 -2.46875 0.796875q-1.96875 0 -3.078125 -1.40625q-1.359375 -1.703125 -1.359375 -5.53125zm1.71875 0q0 3.34375 0.78125 4.453125q0.796875 1.109375 1.9375 1.109375q1.15625 0 1.9375 -1.109375q0.78125 -1.125 0.78125 -4.453125q0 -3.359375 -0.78125 -4.46875q-0.78125 -1.109375 -1.953125 -1.109375q-1.15625 0 -1.828125 0.984375q-0.875 1.234375 -0.875 4.59375z" fill-rule="nonzero"></path><path fill="#ffe599" d="m422.71783 228.27034l0 0c0 -20.317123 34.28018 -36.7874 76.566956 -36.7874l0 0c42.286743 0 76.566895 16.470276 76.566895 36.7874l0 0c0 20.317123 -34.28015 36.7874 -76.566895 36.7874l0 0c-42.286774 0 -76.566956 -16.470276 -76.566956 -36.7874z" fill-rule="evenodd"></path><path stroke="#000000" stroke-width="1.0" stroke-linejoin="round" stroke-linecap="butt" d="m422.71783 228.27034l0 0c0 -20.317123 34.28018 -36.7874 76.566956 -36.7874l0 0c42.286743 0 76.566895 16.470276 76.566895 36.7874l0 0c0 20.317123 -34.28015 36.7874 -76.566895 36.7874l0 0c-42.286774 0 -76.566956 -16.470276 -76.566956 -36.7874z" fill-rule="evenodd"></path><path fill="#000000" fill-opacity="0.0" d="m422.71783 203.07396l153.13385 0l0 50.393707l-153.13385 0z" fill-rule="evenodd"></path><path fill="#000000" d="m447.85922 229.99396l0 -13.59375l4.6875 0q1.578125 0 2.421875 0.1875q1.15625 0.265625 1.984375 0.96875q1.078125 0.921875 1.609375 2.34375q0.53125 1.40625 0.53125 3.21875q0 1.546875 -0.359375 2.75q-0.359375 1.1875 -0.921875 1.984375q-0.5625 0.78125 -1.234375 1.234375q-0.671875 0.4375 -1.625 0.671875q-0.953125 0.234375 -2.1875 0.234375l-4.90625 0zm1.796875 -1.609375l2.90625 0q1.34375 0 2.109375 -0.25q0.765625 -0.25 1.21875 -0.703125q0.640625 -0.640625 1.0 -1.71875q0.359375 -1.078125 0.359375 -2.625q0 -2.125 -0.703125 -3.265625q-0.703125 -1.15625 -1.703125 -1.546875q-0.71875 -0.28125 -2.328125 -0.28125l-2.859375 0l0 10.390625zm10.832336 -3.3125q0 -2.734375 1.53125 -4.0625q1.265625 -1.09375 3.09375 -1.09375q2.03125 0 3.3125 1.34375q1.296875 1.328125 1.296875 3.671875q0 1.90625 -0.578125 3.0q-0.5625 1.078125 -1.65625 1.6875q-1.078125 0.59375 -2.375 0.59375q-2.0625 0 -3.34375 -1.328125q-1.28125 -1.328125 -1.28125 -3.8125zm1.71875 0q0 1.890625 0.828125 2.828125q0.828125 0.9375 2.078125 0.9375q1.25 0 2.0625 -0.9375q0.828125 -0.953125 0.828125 -2.890625q0 -1.828125 -0.828125 -2.765625q-0.828125 -0.9375 -2.0625 -0.9375q-1.25 0 -2.078125 0.9375q-0.828125 0.9375 -0.828125 2.828125zm18.121521 3.421875l0.234375 1.484375q-0.703125 0.140625 -1.265625 0.140625q-0.90625 0 -1.40625 -0.28125q-0.5 -0.296875 -0.703125 -0.75q-0.203125 -0.46875 -0.203125 -1.984375l0 -5.65625l-1.234375 0l0 -1.3125l1.234375 0l0 -2.4375l1.65625 -1.0l0 3.4375l1.6875 0l0 1.3125l-1.6875 0l0 5.75q0 0.71875 0.078125 0.921875q0.09375 0.203125 0.296875 0.328125q0.203125 0.125 0.578125 0.125q0.265625 0 0.734375 -0.078125zm1.5270386 1.5l0 -13.59375l1.671875 0l0 4.875q1.171875 -1.359375 2.953125 -1.359375q1.09375 0 1.890625 0.4375q0.8125 0.421875 1.15625 1.1875q0.359375 0.765625 0.359375 2.203125l0 6.25l-1.671875 0l0 -6.25q0 -1.25 -0.546875 -1.8125q-0.546875 -0.578125 -1.53125 -0.578125q-0.75 0 -1.40625 0.390625q-0.640625 0.375 -0.921875 1.046875q-0.28125 0.65625 -0.28125 1.8125l0 5.390625l-1.671875 0zm10.391357 -11.6875l0 -1.90625l1.671875 0l0 1.90625l-1.671875 0zm0 11.6875l0 -9.859375l1.671875 0l0 9.859375l-1.671875 0zm4.129181 0l0 -9.859375l1.5 0l0 1.40625q1.09375 -1.625 3.140625 -1.625q0.890625 0 1.640625 0.328125q0.75 0.3125 1.109375 0.84375q0.375 0.515625 0.53125 1.21875q0.09375 0.46875 0.09375 1.625l0 6.0625l-1.671875 0l0 -6.0q0 -1.015625 -0.203125 -1.515625q-0.1875 -0.515625 -0.6875 -0.8125q-0.5 -0.296875 -1.171875 -0.296875q-1.0625 0 -1.84375 0.671875q-0.765625 0.671875 -0.765625 2.578125l0 5.375l-1.671875 0zm10.078857 0.8125l1.609375 0.25q0.109375 0.75 0.578125 1.09375q0.609375 0.453125 1.6875 0.453125q1.171875 0 1.796875 -0.46875q0.625 -0.453125 0.859375 -1.28125q0.125 -0.515625 0.109375 -2.15625q-1.09375 1.296875 -2.71875 1.296875q-2.03125 0 -3.15625 -1.46875q-1.109375 -1.46875 -1.109375 -3.515625q0 -1.40625 0.515625 -2.59375q0.515625 -1.203125 1.484375 -1.84375q0.96875 -0.65625 2.265625 -0.65625q1.75 0 2.875 1.40625l0 -1.1875l1.546875 0l0 8.515625q0 2.3125 -0.46875 3.265625q-0.46875 0.96875 -1.484375 1.515625q-1.015625 0.5625 -2.5 0.5625q-1.765625 0 -2.859375 -0.796875q-1.078125 -0.796875 -1.03125 -2.390625zm1.375 -5.921875q0 1.953125 0.765625 2.84375q0.78125 0.890625 1.9375 0.890625q1.140625 0 1.921875 -0.890625q0.78125 -0.890625 0.78125 -2.78125q0 -1.8125 -0.8125 -2.71875q-0.796875 -0.921875 -1.921875 -0.921875q-1.109375 0 -1.890625 0.90625q-0.78125 0.890625 -0.78125 2.671875zm20.309021 5.109375l-1.671875 0l0 -10.640625q-0.59375 0.578125 -1.578125 1.15625q-0.984375 0.5625 -1.765625 0.859375l0 -1.625q1.40625 -0.65625 2.453125 -1.59375q1.046875 -0.9375 1.484375 -1.8125l1.078125 0l0 13.65625zm13.387146 -1.5l0.234375 1.484375q-0.703125 0.140625 -1.265625 0.140625q-0.90625 0 -1.40625 -0.28125q-0.5 -0.296875 -0.703125 -0.75q-0.203125 -0.46875 -0.203125 -1.984375l0 -5.65625l-1.234375 0l0 -1.3125l1.234375 0l0 -2.4375l1.65625 -1.0l0 3.4375l1.6875 0l0 1.3125l-1.6875 0l0 5.75q0 0.71875 0.078125 0.921875q0.09375 0.203125 0.296875 0.328125q0.203125 0.125 0.578125 0.125q0.265625 0 0.734375 -0.078125zm0.9020386 -3.421875q0 -2.734375 1.53125 -4.0625q1.265625 -1.09375 3.09375 -1.09375q2.03125 0 3.3125 1.34375q1.296875 1.328125 1.296875 3.671875q0 1.90625 -0.578125 3.0q-0.5625 1.078125 -1.65625 1.6875q-1.078125 0.59375 -2.375 0.59375q-2.0625 0 -3.34375 -1.328125q-1.28125 -1.328125 -1.28125 -3.8125zm1.71875 0q0 1.890625 0.828125 2.828125q0.828125 0.9375 2.078125 0.9375q1.25 0 2.0625 -0.9375q0.828125 -0.953125 0.828125 -2.890625q0 -1.828125 -0.828125 -2.765625q-0.828125 -0.9375 -2.0625 -0.9375q-1.25 0 -2.078125 0.9375q-0.828125 0.9375 -0.828125 2.828125z" fill-rule="nonzero"></path><path fill="#000000" d="m481.51447 251.99396l0 -1.25q-0.9375 1.46875 -2.75 1.46875q-1.171875 0 -2.171875 -0.640625q-0.984375 -0.65625 -1.53125 -1.8125q-0.53125 -1.171875 -0.53125 -2.6875q0 -1.46875 0.484375 -2.671875q0.5 -1.203125 1.46875 -1.84375q0.984375 -0.640625 2.203125 -0.640625q0.890625 0 1.578125 0.375q0.703125 0.375 1.140625 0.984375l0 -4.875l1.65625 0l0 13.59375l-1.546875 0zm-5.28125 -4.921875q0 1.890625 0.796875 2.828125q0.8125 0.9375 1.890625 0.9375q1.09375 0 1.859375 -0.890625q0.765625 -0.890625 0.765625 -2.734375q0 -2.015625 -0.78125 -2.953125q-0.78125 -0.953125 -1.921875 -0.953125q-1.109375 0 -1.859375 0.90625q-0.75 0.90625 -0.75 2.859375zm15.703827 3.703125q-0.9375 0.796875 -1.796875 1.125q-0.859375 0.3125 -1.84375 0.3125q-1.609375 0 -2.484375 -0.78125q-0.875 -0.796875 -0.875 -2.03125q0 -0.734375 0.328125 -1.328125q0.328125 -0.59375 0.859375 -0.953125q0.53125 -0.359375 1.203125 -0.546875q0.5 -0.140625 1.484375 -0.25q2.03125 -0.25 2.984375 -0.578125q0 -0.34375 0 -0.4375q0 -1.015625 -0.46875 -1.4375q-0.640625 -0.5625 -1.90625 -0.5625q-1.171875 0 -1.734375 0.40625q-0.5625 0.40625 -0.828125 1.46875l-1.640625 -0.234375q0.234375 -1.046875 0.734375 -1.6875q0.515625 -0.640625 1.46875 -0.984375q0.96875 -0.359375 2.25 -0.359375q1.265625 0 2.046875 0.296875q0.78125 0.296875 1.15625 0.75q0.375 0.453125 0.515625 1.140625q0.09375 0.421875 0.09375 1.53125l0 2.234375q0 2.328125 0.09375 2.953125q0.109375 0.609375 0.4375 1.171875l-1.75 0q-0.265625 -0.515625 -0.328125 -1.21875zm-0.140625 -3.71875q-0.90625 0.359375 -2.734375 0.625q-1.03125 0.140625 -1.453125 0.328125q-0.421875 0.1875 -0.65625 0.546875q-0.234375 0.359375 -0.234375 0.796875q0 0.671875 0.5 1.125q0.515625 0.4375 1.484375 0.4375q0.96875 0 1.71875 -0.421875q0.75 -0.4375 1.109375 -1.15625q0.265625 -0.578125 0.265625 -1.671875l0 -0.609375zm7.7351074 3.4375l0.234375 1.484375q-0.703125 0.140625 -1.265625 0.140625q-0.90625 0 -1.40625 -0.28125q-0.5 -0.296875 -0.703125 -0.75q-0.203125 -0.46875 -0.203125 -1.984375l0 -5.65625l-1.234375 0l0 -1.3125l1.234375 0l0 -2.4375l1.65625 -1.0l0 3.4375l1.6875 0l0 1.3125l-1.6875 0l0 5.75q0 0.71875 0.078125 0.921875q0.09375 0.203125 0.296875 0.328125q0.203125 0.125 0.578125 0.125q0.265625 0 0.734375 -0.078125zm7.9645386 0.28125q-0.9375 0.796875 -1.796875 1.125q-0.859375 0.3125 -1.84375 0.3125q-1.609375 0 -2.484375 -0.78125q-0.875 -0.796875 -0.875 -2.03125q0 -0.734375 0.328125 -1.328125q0.328125 -0.59375 0.859375 -0.953125q0.53125 -0.359375 1.203125 -0.546875q0.5 -0.140625 1.484375 -0.25q2.03125 -0.25 2.984375 -0.578125q0 -0.34375 0 -0.4375q0 -1.015625 -0.46875 -1.4375q-0.640625 -0.5625 -1.90625 -0.5625q-1.171875 0 -1.734375 0.40625q-0.5625 0.40625 -0.828125 1.46875l-1.640625 -0.234375q0.234375 -1.046875 0.734375 -1.6875q0.515625 -0.640625 1.46875 -0.984375q0.96875 -0.359375 2.25 -0.359375q1.265625 0 2.046875 0.296875q0.78125 0.296875 1.15625 0.75q0.375 0.453125 0.515625 1.140625q0.09375 0.421875 0.09375 1.53125l0 2.234375q0 2.328125 0.09375 2.953125q0.109375 0.609375 0.4375 1.171875l-1.75 0q-0.265625 -0.515625 -0.328125 -1.21875zm-0.140625 -3.71875q-0.90625 0.359375 -2.734375 0.625q-1.03125 0.140625 -1.453125 0.328125q-0.421875 0.1875 -0.65625 0.546875q-0.234375 0.359375 -0.234375 0.796875q0 0.671875 0.5 1.125q0.515625 0.4375 1.484375 0.4375q0.96875 0 1.71875 -0.421875q0.75 -0.4375 1.109375 -1.15625q0.265625 -0.578125 0.265625 -1.671875l0 -0.609375zm4.1257324 8.71875l0 -17.375l3.6718445 0l0 1.375l-2.015625 0l0 14.609375l2.015625 0l0 1.390625l-3.6718445 0zm5.152069 -15.46875l0 -1.90625l1.671875 0l0 1.90625l-1.671875 0zm0 11.6875l0 -9.859375l1.671875 0l0 9.859375l-1.671875 0zm6.9260254 3.78125l-3.6875 0l0 -1.390625l2.015625 0l0 -14.609375l-2.015625 0l0 -1.375l3.6875 0l0 17.375z" fill-rule="nonzero"></path><path fill="#ffe599" d="m246.98294 353.11285l0 0c0 -20.317108 34.28018 -36.787384 76.566925 -36.787384l0 0c42.286743 0 76.566925 16.470276 76.566925 36.787384l0 0c0 20.317139 -34.28018 36.787415 -76.566925 36.787415l0 0c-42.286743 0 -76.566925 -16.470276 -76.566925 -36.787415z" fill-rule="evenodd"></path><path stroke="#000000" stroke-width="1.0" stroke-linejoin="round" stroke-linecap="butt" d="m246.98294 353.11285l0 0c0 -20.317108 34.28018 -36.787384 76.566925 -36.787384l0 0c42.286743 0 76.566925 16.470276 76.566925 36.787384l0 0c0 20.317139 -34.28018 36.787415 -76.566925 36.787415l0 0c-42.286743 0 -76.566925 -16.470276 -76.566925 -36.787415z" fill-rule="evenodd"></path><path fill="#000000" fill-opacity="0.0" d="m246.98294 327.91647l153.13385 0l0 50.393707l-153.13385 0z" fill-rule="evenodd"></path><path fill="#000000" d="m277.30762 354.8365l0 -13.59375l4.6875 0q1.578125 0 2.421875 0.1875q1.15625 0.265625 1.984375 0.96875q1.078125 0.921875 1.609375 2.34375q0.53125 1.40625 0.53125 3.21875q0 1.546875 -0.359375 2.75q-0.359375 1.1875 -0.921875 1.984375q-0.5625 0.78125 -1.234375 1.234375q-0.671875 0.4375 -1.625 0.671875q-0.953125 0.234375 -2.1875 0.234375l-4.90625 0zm1.796875 -1.609375l2.90625 0q1.34375 0 2.109375 -0.25q0.765625 -0.25 1.21875 -0.703125q0.640625 -0.640625 1.0 -1.71875q0.359375 -1.078125 0.359375 -2.625q0 -2.125 -0.703125 -3.265625q-0.703125 -1.15625 -1.703125 -1.546875q-0.71875 -0.28125 -2.328125 -0.28125l-2.859375 0l0 10.390625zm10.832336 -3.3125q0 -2.734375 1.53125 -4.0625q1.265625 -1.09375 3.09375 -1.09375q2.03125 0 3.3125 1.34375q1.296875 1.328125 1.296875 3.671875q0 1.90625 -0.578125 3.0q-0.5625 1.078125 -1.65625 1.6875q-1.078125 0.59375 -2.375 0.59375q-2.0625 0 -3.34375 -1.328125q-1.28125 -1.328125 -1.28125 -3.8125zm1.71875 0q0 1.890625 0.828125 2.828125q0.828125 0.9375 2.078125 0.9375q1.25 0 2.0625 -0.9375q0.828125 -0.953125 0.828125 -2.890625q0 -1.828125 -0.828125 -2.765625q-0.828125 -0.9375 -2.0625 -0.9375q-1.25 0 -2.078125 0.9375q-0.828125 0.9375 -0.828125 2.828125zm18.121521 3.421875l0.234375 1.484375q-0.703125 0.140625 -1.265625 0.140625q-0.90625 0 -1.40625 -0.28125q-0.5 -0.296875 -0.703125 -0.75q-0.203125 -0.46875 -0.203125 -1.984375l0 -5.65625l-1.234375 0l0 -1.3125l1.234375 0l0 -2.4375l1.65625 -1.0l0 3.4375l1.6875 0l0 1.3125l-1.6875 0l0 5.75q0 0.71875 0.078125 0.921875q0.09375 0.203125 0.296875 0.328125q0.203125 0.125 0.578125 0.125q0.265625 0 0.734375 -0.078125zm1.5270386 1.5l0 -13.59375l1.671875 0l0 4.875q1.171875 -1.359375 2.953125 -1.359375q1.09375 0 1.890625 0.4375q0.8125 0.421875 1.15625 1.1875q0.359375 0.765625 0.359375 2.203125l0 6.25l-1.671875 0l0 -6.25q0 -1.25 -0.546875 -1.8125q-0.546875 -0.578125 -1.53125 -0.578125q-0.75 0 -1.40625 0.390625q-0.640625 0.375 -0.921875 1.046875q-0.28125 0.65625 -0.28125 1.8125l0 5.390625l-1.671875 0zm10.391357 -11.6875l0 -1.90625l1.671875 0l0 1.90625l-1.671875 0zm0 11.6875l0 -9.859375l1.671875 0l0 9.859375l-1.671875 0zm4.129181 0l0 -9.859375l1.5 0l0 1.40625q1.09375 -1.625 3.140625 -1.625q0.890625 0 1.640625 0.328125q0.75 0.3125 1.109375 0.84375q0.375 0.515625 0.53125 1.21875q0.09375 0.46875 0.09375 1.625l0 6.0625l-1.671875 0l0 -6.0q0 -1.015625 -0.203125 -1.515625q-0.1875 -0.515625 -0.6875 -0.8125q-0.5 -0.296875 -1.171875 -0.296875q-1.0625 0 -1.84375 0.671875q-0.765625 0.671875 -0.765625 2.578125l0 5.375l-1.671875 0zm10.078857 0.8125l1.609375 0.25q0.109375 0.75 0.578125 1.09375q0.609375 0.453125 1.6875 0.453125q1.171875 0 1.796875 -0.46875q0.625 -0.453125 0.859375 -1.28125q0.125 -0.515625 0.109375 -2.15625q-1.09375 1.296875 -2.71875 1.296875q-2.03125 0 -3.15625 -1.46875q-1.109375 -1.46875 -1.109375 -3.515625q0 -1.40625 0.515625 -2.59375q0.515625 -1.203125 1.484375 -1.84375q0.96875 -0.65625 2.265625 -0.65625q1.75 0 2.875 1.40625l0 -1.1875l1.546875 0l0 8.515625q0 2.3125 -0.46875 3.265625q-0.46875 0.96875 -1.484375 1.515625q-1.015625 0.5625 -2.5 0.5625q-1.765625 0 -2.859375 -0.796875q-1.078125 -0.796875 -1.03125 -2.390625zm1.375 -5.921875q0 1.953125 0.765625 2.84375q0.78125 0.890625 1.9375 0.890625q1.140625 0 1.921875 -0.890625q0.78125 -0.890625 0.78125 -2.78125q0 -1.8125 -0.8125 -2.71875q-0.796875 -0.921875 -1.921875 -0.921875q-1.109375 0 -1.890625 0.90625q-0.78125 0.890625 -0.78125 2.671875zm22.793396 3.5l0 1.609375l-8.984375 0q-0.015625 -0.609375 0.1875 -1.15625q0.34375 -0.921875 1.09375 -1.8125q0.765625 -0.890625 2.1875 -2.0625q2.21875 -1.8125 3.0 -2.875q0.78125 -1.0625 0.78125 -2.015625q0 -0.984375 -0.71875 -1.671875q-0.703125 -0.6875 -1.84375 -0.6875q-1.203125 0 -1.9375 0.734375q-0.71875 0.71875 -0.71875 2.0l-1.71875 -0.171875q0.171875 -1.921875 1.328125 -2.921875q1.15625 -1.015625 3.09375 -1.015625q1.953125 0 3.09375 1.09375q1.140625 1.078125 1.140625 2.6875q0 0.8125 -0.34375 1.609375q-0.328125 0.78125 -1.109375 1.65625q-0.765625 0.859375 -2.5625 2.390625q-1.5 1.265625 -1.9375 1.71875q-0.421875 0.4375 -0.703125 0.890625l6.671875 0zm8.500702 0.390625q-0.9375 0.796875 -1.796875 1.125q-0.859375 0.3125 -1.84375 0.3125q-1.609375 0 -2.484375 -0.78125q-0.875 -0.796875 -0.875 -2.03125q0 -0.734375 0.328125 -1.328125q0.328125 -0.59375 0.859375 -0.953125q0.53125 -0.359375 1.203125 -0.546875q0.5 -0.140625 1.484375 -0.25q2.03125 -0.25 2.984375 -0.578125q0 -0.34375 0 -0.4375q0 -1.015625 -0.46875 -1.4375q-0.640625 -0.5625 -1.90625 -0.5625q-1.171875 0 -1.734375 0.40625q-0.5625 0.40625 -0.828125 1.46875l-1.640625 -0.234375q0.234375 -1.046875 0.734375 -1.6875q0.515625 -0.640625 1.46875 -0.984375q0.96875 -0.359375 2.25 -0.359375q1.265625 0 2.046875 0.296875q0.78125 0.296875 1.15625 0.75q0.375 0.453125 0.515625 1.140625q0.09375 0.421875 0.09375 1.53125l0 2.234375q0 2.328125 0.09375 2.953125q0.109375 0.609375 0.4375 1.171875l-1.75 0q-0.265625 -0.515625 -0.328125 -1.21875zm-0.140625 -3.71875q-0.90625 0.359375 -2.734375 0.625q-1.03125 0.140625 -1.453125 0.328125q-0.421875 0.1875 -0.65625 0.546875q-0.234375 0.359375 -0.234375 0.796875q0 0.671875 0.5 1.125q0.515625 0.4375 1.484375 0.4375q0.96875 0 1.71875 -0.421875q0.75 -0.4375 1.109375 -1.15625q0.265625 -0.578125 0.265625 -1.671875l0 -0.609375z" fill-rule="nonzero"></path><path fill="#ffe599" d="m246.98163 448.98163l0 0c0 -20.317108 34.28018 -36.787415 76.566925 -36.787415l0 0c42.286743 0 76.566925 16.470306 76.566925 36.787415l0 0c0 20.317108 -34.28018 36.787415 -76.566925 36.787415l0 0c-42.286743 0 -76.566925 -16.470306 -76.566925 -36.787415z" fill-rule="evenodd"></path><path stroke="#000000" stroke-width="1.0" stroke-linejoin="round" stroke-linecap="butt" d="m246.98163 448.98163l0 0c0 -20.317108 34.28018 -36.787415 76.566925 -36.787415l0 0c42.286743 0 76.566925 16.470306 76.566925 36.787415l0 0c0 20.317108 -34.28018 36.787415 -76.566925 36.787415l0 0c-42.286743 0 -76.566925 -16.470306 -76.566925 -36.787415z" fill-rule="evenodd"></path><path fill="#000000" fill-opacity="0.0" d="m246.98163 423.78525l153.13385 0l0 50.393707l-153.13385 0z" fill-rule="evenodd"></path><path fill="#000000" d="m277.3063 450.70523l0 -13.59375l4.6875 0q1.578125 0 2.421875 0.1875q1.15625 0.265625 1.984375 0.96875q1.078125 0.921875 1.609375 2.34375q0.53125 1.40625 0.53125 3.21875q0 1.546875 -0.359375 2.75q-0.359375 1.1875 -0.921875 1.984375q-0.5625 0.78125 -1.234375 1.234375q-0.671875 0.4375 -1.625 0.671875q-0.953125 0.234375 -2.1875 0.234375l-4.90625 0zm1.796875 -1.609375l2.90625 0q1.34375 0 2.109375 -0.25q0.765625 -0.25 1.21875 -0.703125q0.640625 -0.640625 1.0 -1.71875q0.359375 -1.078125 0.359375 -2.625q0 -2.125 -0.703125 -3.265625q-0.703125 -1.15625 -1.703125 -1.546875q-0.71875 -0.28125 -2.328125 -0.28125l-2.859375 0l0 10.390625zm10.832336 -3.3125q0 -2.734375 1.53125 -4.0625q1.265625 -1.09375 3.09375 -1.09375q2.03125 0 3.3125 1.34375q1.296875 1.328125 1.296875 3.671875q0 1.90625 -0.578125 3.0q-0.5625 1.078125 -1.65625 1.6875q-1.078125 0.59375 -2.375 0.59375q-2.0625 0 -3.34375 -1.328125q-1.28125 -1.328125 -1.28125 -3.8125zm1.71875 0q0 1.890625 0.828125 2.828125q0.828125 0.9375 2.078125 0.9375q1.25 0 2.0625 -0.9375q0.828125 -0.953125 0.828125 -2.890625q0 -1.828125 -0.828125 -2.765625q-0.828125 -0.9375 -2.0625 -0.9375q-1.25 0 -2.078125 0.9375q-0.828125 0.9375 -0.828125 2.828125zm18.121521 3.421875l0.234375 1.484375q-0.703125 0.140625 -1.265625 0.140625q-0.90625 0 -1.40625 -0.28125q-0.5 -0.296875 -0.703125 -0.75q-0.203125 -0.46875 -0.203125 -1.984375l0 -5.65625l-1.234375 0l0 -1.3125l1.234375 0l0 -2.4375l1.65625 -1.0l0 3.4375l1.6875 0l0 1.3125l-1.6875 0l0 5.75q0 0.71875 0.078125 0.921875q0.09375 0.203125 0.296875 0.328125q0.203125 0.125 0.578125 0.125q0.265625 0 0.734375 -0.078125zm1.5270386 1.5l0 -13.59375l1.671875 0l0 4.875q1.171875 -1.359375 2.953125 -1.359375q1.09375 0 1.890625 0.4375q0.8125 0.421875 1.15625 1.1875q0.359375 0.765625 0.359375 2.203125l0 6.25l-1.671875 0l0 -6.25q0 -1.25 -0.546875 -1.8125q-0.546875 -0.578125 -1.53125 -0.578125q-0.75 0 -1.40625 0.390625q-0.640625 0.375 -0.921875 1.046875q-0.28125 0.65625 -0.28125 1.8125l0 5.390625l-1.671875 0zm10.391357 -11.6875l0 -1.90625l1.671875 0l0 1.90625l-1.671875 0zm0 11.6875l0 -9.859375l1.671875 0l0 9.859375l-1.671875 0zm4.129181 0l0 -9.859375l1.5 0l0 1.40625q1.09375 -1.625 3.140625 -1.625q0.890625 0 1.640625 0.328125q0.75 0.3125 1.109375 0.84375q0.375 0.515625 0.53125 1.21875q0.09375 0.46875 0.09375 1.625l0 6.0625l-1.671875 0l0 -6.0q0 -1.015625 -0.203125 -1.515625q-0.1875 -0.515625 -0.6875 -0.8125q-0.5 -0.296875 -1.171875 -0.296875q-1.0625 0 -1.84375 0.671875q-0.765625 0.671875 -0.765625 2.578125l0 5.375l-1.671875 0zm10.078857 0.8125l1.609375 0.25q0.109375 0.75 0.578125 1.09375q0.609375 0.453125 1.6875 0.453125q1.171875 0 1.796875 -0.46875q0.625 -0.453125 0.859375 -1.28125q0.125 -0.515625 0.109375 -2.15625q-1.09375 1.296875 -2.71875 1.296875q-2.03125 0 -3.15625 -1.46875q-1.109375 -1.46875 -1.109375 -3.515625q0 -1.40625 0.515625 -2.59375q0.515625 -1.203125 1.484375 -1.84375q0.96875 -0.65625 2.265625 -0.65625q1.75 0 2.875 1.40625l0 -1.1875l1.546875 0l0 8.515625q0 2.3125 -0.46875 3.265625q-0.46875 0.96875 -1.484375 1.515625q-1.015625 0.5625 -2.5 0.5625q-1.765625 0 -2.859375 -0.796875q-1.078125 -0.796875 -1.03125 -2.390625zm1.375 -5.921875q0 1.953125 0.765625 2.84375q0.78125 0.890625 1.9375 0.890625q1.140625 0 1.921875 -0.890625q0.78125 -0.890625 0.78125 -2.78125q0 -1.8125 -0.8125 -2.71875q-0.796875 -0.921875 -1.921875 -0.921875q-1.109375 0 -1.890625 0.90625q-0.78125 0.890625 -0.78125 2.671875zm22.793396 3.5l0 1.609375l-8.984375 0q-0.015625 -0.609375 0.1875 -1.15625q0.34375 -0.921875 1.09375 -1.8125q0.765625 -0.890625 2.1875 -2.0625q2.21875 -1.8125 3.0 -2.875q0.78125 -1.0625 0.78125 -2.015625q0 -0.984375 -0.71875 -1.671875q-0.703125 -0.6875 -1.84375 -0.6875q-1.203125 0 -1.9375 0.734375q-0.71875 0.71875 -0.71875 2.0l-1.71875 -0.171875q0.171875 -1.921875 1.328125 -2.921875q1.15625 -1.015625 3.09375 -1.015625q1.953125 0 3.09375 1.09375q1.140625 1.078125 1.140625 2.6875q0 0.8125 -0.34375 1.609375q-0.328125 0.78125 -1.109375 1.65625q-0.765625 0.859375 -2.5625 2.390625q-1.5 1.265625 -1.9375 1.71875q-0.421875 0.4375 -0.703125 0.890625l6.671875 0zm3.610077 1.609375l-1.546875 0l0 -13.59375l1.65625 0l0 4.84375q1.0625 -1.328125 2.703125 -1.328125q0.90625 0 1.71875 0.375q0.8125 0.359375 1.328125 1.03125q0.53125 0.65625 0.828125 1.59375q0.296875 0.9375 0.296875 2.0q0 2.53125 -1.25 3.921875q-1.25 1.375 -3.0 1.375q-1.75 0 -2.734375 -1.453125l0 1.234375zm-0.015625 -5.0q0 1.765625 0.46875 2.5625q0.796875 1.28125 2.140625 1.28125q1.09375 0 1.890625 -0.9375q0.796875 -0.953125 0.796875 -2.84375q0 -1.921875 -0.765625 -2.84375q-0.765625 -0.921875 -1.84375 -0.921875q-1.09375 0 -1.890625 0.953125q-0.796875 0.953125 -0.796875 2.75z" fill-rule="nonzero"></path><path fill="#ffe599" d="m70.48425 228.27034l0 0c0 -20.317123 34.28018 -36.7874 76.566925 -36.7874l0 0c42.286743 0 76.566925 16.470276 76.566925 36.7874l0 0c0 20.317123 -34.28018 36.7874 -76.566925 36.7874l0 0c-42.286743 0 -76.566925 -16.470276 -76.566925 -36.7874z" fill-rule="evenodd"></path><path stroke="#000000" stroke-width="1.0" stroke-linejoin="round" stroke-linecap="butt" d="m70.48425 228.27034l0 0c0 -20.317123 34.28018 -36.7874 76.566925 -36.7874l0 0c42.286743 0 76.566925 16.470276 76.566925 36.7874l0 0c0 20.317123 -34.28018 36.7874 -76.566925 36.7874l0 0c-42.286743 0 -76.566925 -16.470276 -76.566925 -36.7874z" fill-rule="evenodd"></path><path fill="#000000" fill-opacity="0.0" d="m70.48425 203.07396l153.13385 0l0 50.393707l-153.13385 0z" fill-rule="evenodd"></path><path fill="#000000" d="m105.9968 229.99396l0 -13.59375l4.6875 0q1.578125 0 2.421875 0.1875q1.15625 0.265625 1.984375 0.96875q1.078125 0.921875 1.609375 2.34375q0.53125 1.40625 0.53125 3.21875q0 1.546875 -0.359375 2.75q-0.359375 1.1875 -0.921875 1.984375q-0.5625 0.78125 -1.234375 1.234375q-0.671875 0.4375 -1.625 0.671875q-0.953125 0.234375 -2.1875 0.234375l-4.90625 0zm1.796875 -1.609375l2.90625 0q1.34375 0 2.109375 -0.25q0.765625 -0.25 1.21875 -0.703125q0.640625 -0.640625 1.0 -1.71875q0.359375 -1.078125 0.359375 -2.625q0 -2.125 -0.703125 -3.265625q-0.703125 -1.15625 -1.703125 -1.546875q-0.71875 -0.28125 -2.328125 -0.28125l-2.859375 0l0 10.390625zm10.832321 -3.3125q0 -2.734375 1.53125 -4.0625q1.265625 -1.09375 3.09375 -1.09375q2.03125 0 3.3125 1.34375q1.296875 1.328125 1.296875 3.671875q0 1.90625 -0.578125 3.0q-0.5625 1.078125 -1.65625 1.6875q-1.078125 0.59375 -2.375 0.59375q-2.0625 0 -3.34375 -1.328125q-1.28125 -1.328125 -1.28125 -3.8125zm1.71875 0q0 1.890625 0.828125 2.828125q0.828125 0.9375 2.078125 0.9375q1.25 0 2.0625 -0.9375q0.828125 -0.953125 0.828125 -2.890625q0 -1.828125 -0.828125 -2.765625q-0.828125 -0.9375 -2.0625 -0.9375q-1.25 0 -2.078125 0.9375q-0.828125 0.9375 -0.828125 2.828125zm18.121513 3.421875l0.234375 1.484375q-0.703125 0.140625 -1.265625 0.140625q-0.90625 0 -1.40625 -0.28125q-0.5 -0.296875 -0.703125 -0.75q-0.203125 -0.46875 -0.203125 -1.984375l0 -5.65625l-1.234375 0l0 -1.3125l1.234375 0l0 -2.4375l1.65625 -1.0l0 3.4375l1.6875 0l0 1.3125l-1.6875 0l0 5.75q0 0.71875 0.078125 0.921875q0.09375 0.203125 0.296875 0.328125q0.203125 0.125 0.578125 0.125q0.265625 0 0.734375 -0.078125zm1.5270538 1.5l0 -13.59375l1.671875 0l0 4.875q1.171875 -1.359375 2.953125 -1.359375q1.09375 0 1.890625 0.4375q0.8125 0.421875 1.15625 1.1875q0.359375 0.765625 0.359375 2.203125l0 6.25l-1.671875 0l0 -6.25q0 -1.25 -0.546875 -1.8125q-0.546875 -0.578125 -1.53125 -0.578125q-0.75 0 -1.40625 0.390625q-0.640625 0.375 -0.921875 1.046875q-0.28125 0.65625 -0.28125 1.8125l0 5.390625l-1.671875 0zm10.391342 -11.6875l0 -1.90625l1.671875 0l0 1.90625l-1.671875 0zm0 11.6875l0 -9.859375l1.671875 0l0 9.859375l-1.671875 0zm4.129196 0l0 -9.859375l1.5 0l0 1.40625q1.09375 -1.625 3.140625 -1.625q0.890625 0 1.640625 0.328125q0.75 0.3125 1.109375 0.84375q0.375 0.515625 0.53125 1.21875q0.09375 0.46875 0.09375 1.625l0 6.0625l-1.671875 0l0 -6.0q0 -1.015625 -0.203125 -1.515625q-0.1875 -0.515625 -0.6875 -0.8125q-0.5 -0.296875 -1.171875 -0.296875q-1.0625 0 -1.84375 0.671875q-0.765625 0.671875 -0.765625 2.578125l0 5.375l-1.671875 0zm10.078842 0.8125l1.609375 0.25q0.109375 0.75 0.578125 1.09375q0.609375 0.453125 1.6875 0.453125q1.171875 0 1.796875 -0.46875q0.625 -0.453125 0.859375 -1.28125q0.125 -0.515625 0.109375 -2.15625q-1.09375 1.296875 -2.71875 1.296875q-2.03125 0 -3.15625 -1.46875q-1.109375 -1.46875 -1.109375 -3.515625q0 -1.40625 0.515625 -2.59375q0.515625 -1.203125 1.484375 -1.84375q0.96875 -0.65625 2.265625 -0.65625q1.75 0 2.875 1.40625l0 -1.1875l1.546875 0l0 8.515625q0 2.3125 -0.46875 3.265625q-0.46875 0.96875 -1.484375 1.515625q-1.015625 0.5625 -2.5 0.5625q-1.765625 0 -2.859375 -0.796875q-1.078125 -0.796875 -1.03125 -2.390625zm1.375 -5.921875q0 1.953125 0.765625 2.84375q0.78125 0.890625 1.9375 0.890625q1.140625 0 1.921875 -0.890625q0.78125 -0.890625 0.78125 -2.78125q0 -1.8125 -0.8125 -2.71875q-0.796875 -0.921875 -1.921875 -0.921875q-1.109375 0 -1.890625 0.90625q-0.78125 0.890625 -0.78125 2.671875zm14.027771 1.515625l1.671875 -0.21875q0.28125 1.421875 0.96875 2.046875q0.703125 0.625 1.6875 0.625q1.1875 0 2.0 -0.8125q0.8125 -0.828125 0.8125 -2.03125q0 -1.140625 -0.765625 -1.890625q-0.75 -0.75 -1.90625 -0.75q-0.46875 0 -1.171875 0.1875l0.1875 -1.46875q0.15625 0.015625 0.265625 0.015625q1.0625 0 1.90625 -0.546875q0.859375 -0.5625 0.859375 -1.71875q0 -0.921875 -0.625 -1.515625q-0.609375 -0.609375 -1.59375 -0.609375q-0.96875 0 -1.625 0.609375q-0.640625 0.609375 -0.828125 1.84375l-1.671875 -0.296875q0.296875 -1.6875 1.375 -2.609375q1.09375 -0.921875 2.71875 -0.921875q1.109375 0 2.046875 0.484375q0.9375 0.46875 1.421875 1.296875q0.5 0.828125 0.5 1.75q0 0.890625 -0.46875 1.609375q-0.46875 0.71875 -1.40625 1.15625q1.21875 0.265625 1.875 1.15625q0.671875 0.875 0.671875 2.1875q0 1.78125 -1.296875 3.015625q-1.296875 1.234375 -3.28125 1.234375q-1.796875 0 -2.984375 -1.0625q-1.171875 -1.0625 -1.34375 -2.765625z" fill-rule="nonzero"></path><path fill="#000000" fill-opacity="0.0" d="m499.2848 265.05774l-99.18112 88.06299" fill-rule="evenodd"></path><path stroke="#000000" stroke-width="1.0" stroke-linejoin="round" stroke-linecap="butt" d="m499.2848 265.05774l-94.69446 84.079285" fill-rule="evenodd"></path><path fill="#000000" stroke="#000000" stroke-width="1.0" stroke-linecap="butt" d="m403.49365 347.90192l-2.296814 4.2481995l4.4901733 -1.7779541z" fill-rule="evenodd"></path><path fill="#000000" fill-opacity="0.0" d="m499.69553 267.16272c2.8272095 17.316284 18.023651 74.919525 16.963287 103.897644c-1.0603638 28.978119 -4.006592 56.895447 -23.32547 69.97113c-19.318909 13.075684 -77.15662 7.0691223 -92.58795 8.482941" fill-rule="evenodd"></path><path stroke="#000000" stroke-width="1.0" stroke-linejoin="round" stroke-linecap="butt" d="m499.69553 267.16272c2.82724 17.316284 18.023651 74.919525 16.963287 103.897644c-1.0603638 28.97815 -4.006592 56.895477 -23.32547 69.97113c-9.659454 6.5378113 -28.948639 8.305115 -47.7518 8.614655c-9.401642 0.15478516 -18.681732 -0.054901123 -26.575928 -0.21487427c-3.947052 -0.07998657 -7.547638 -0.14755249 -10.643738 -0.15097046c-0.3869629 -3.9672852E-4 -0.7661133 1.5258789E-4 -1.1370544 0.0018615723l-0.48376465 0.003753662" fill-rule="evenodd"></path><path fill="#000000" stroke="#000000" stroke-width="1.0" stroke-linecap="butt" d="m406.67813 447.63538l-4.4718933 1.8233948l4.5977173 1.4776917z" fill-rule="evenodd"></path><path fill="#000000" fill-opacity="0.0" d="m391.89117 319.07254l60.661407 -55.118103l31.905518 35.18109l-60.661407 55.118103z" fill-rule="evenodd"></path><path fill="#000000" d="m412.2405 326.57874l-5.290283 -5.8334045l0.7632446 -0.69351196l5.290283 5.8334045l-0.7632446 0.69351196zm2.1333923 -1.938446l-3.327423 -3.6690369l-0.6244507 0.56741333l-0.5038452 -0.5555725l0.6244812 -0.5673828l-0.4093628 -0.45141602q-0.38839722 -0.42822266 -0.4963684 -0.7101135q-0.14785767 -0.37234497 -0.050872803 -0.7771301q0.10852051 -0.4152832 0.57110596 -0.8356018q0.30065918 -0.27319336 0.74420166 -0.52841187l0.46273804 0.719574q-0.2732849 0.16384888 -0.46987915 0.34249878q-0.3237915 0.29418945 -0.3366089 0.5591736q-0.0012512207 0.25448608 0.3451233 0.6364136l0.35690308 0.39352417l0.8210449 -0.7460327l0.5038452 0.5555725l-0.8210449 0.7460327l3.3273926 3.6690369l-0.71698 0.65145874zm5.566284 -7.8865967l0.77783203 -0.5378418q0.55722046 0.82373047 0.44940186 1.6817322q-0.10675049 0.835907 -0.7890625 1.4558411q-0.8673096 0.7880554 -1.9136047 0.70428467q-1.034729 -0.09429932 -1.9899292 -1.1475525q-0.6192932 -0.68289185 -0.8614197 -1.3918152q-0.24105835 -0.73098755 -0.009399414 -1.4059143q0.23162842 -0.67492676 0.7751465 -1.1687927q0.682312 -0.6199341 1.4366455 -0.6719971q0.7543335 -0.05206299 1.4588623 0.4689331l-0.6109619 0.7451477q-0.47039795 -0.33261108 -0.9137268 -0.30978394q-0.45385742 0.011260986 -0.8123474 0.3369751q-0.5319519 0.4833374 -0.5220032 1.1921082q0.011016846 0.6866455 0.76678467 1.519989q0.7767334 0.85650635 1.4469299 0.9442444q0.67019653 0.08773804 1.2021484 -0.39559937q0.41629028 -0.37826538 0.46292114 -0.8851013q0.05819702 -0.51730347 -0.35421753 -1.1348572zm0.39926147 -1.3972168q-1.0601501 -1.1690063 -0.9153137 -2.335083q0.12365723 -0.9568176 0.91000366 -1.6713257q0.8673401 -0.7880554 1.9251709 -0.7147827q1.0694275 0.06277466 1.9826355 1.0697327q0.7452698 0.82177734 0.9327698 1.5169678q0.17700195 0.68362427 -0.06619263 1.3690796q-0.23165894 0.67492676 -0.775177 1.1687927q-0.8904419 0.80908203 -1.9598694 0.7463074q-1.0578613 -0.07330322 -2.034027 -1.1496887zm0.7401123 -0.67248535q0.74523926 0.82177734 1.4595642 0.9116516q0.71536255 0.06777954 1.2589111 -0.42608643q0.5319519 -0.4833374 0.5115051 -1.2036743q-0.008911133 -0.73080444 -0.76464844 -1.564148q-0.7032776 -0.7754822 -1.4291382 -0.8548584q-0.7258911 -0.0793457 -1.2462769 0.39349365q-0.54351807 0.49383545 -0.53463745 1.2246704q0.0099487305 0.70874023 0.74472046 1.5189514zm5.833008 -1.4365845l-3.8312378 -4.224579l0.647583 -0.5884094l0.5458374 0.60183716q-0.16723633 -1.1147461 0.7116699 -1.9133301q0.3816223 -0.34674072 0.83135986 -0.5020447q0.43927002 -0.16690063 0.79953 -0.072021484q0.36135864 0.07281494 0.7036438 0.31069946q0.22363281 0.17681885 0.6749878 0.6744995l2.3512268 2.5926208l-0.71698 0.65145874l-2.3302307 -2.569458q-0.39889526 -0.43981934 -0.6687622 -0.5746155q-0.2803955 -0.1463623 -0.61557007 -0.074035645q-0.33413696 0.05026245 -0.62323 0.31292725q-0.4510193 0.40982056 -0.5239563 1.0038757q-0.07293701 0.5940857 0.67230225 1.415863l2.0888367 2.3032532l-0.7170105 0.65145874zm7.1270447 -6.4757385l-0.48284912 -0.53240967q0.1736145 0.9822693 -0.61276245 1.6967773q-0.49725342 0.45181274 -1.1770325 0.5628052q-0.6798096 0.11102295 -1.3624573 -0.17654419q-0.6826172 -0.28753662 -1.2704468 -0.93566895q-0.577301 -0.6365967 -0.83099365 -1.3349915q-0.2526245 -0.7204895 -0.07772827 -1.3649597q0.1643982 -0.6560669 0.68478394 -1.1289062q0.3816223 -0.34674072 0.82925415 -0.45788574q0.44760132 -0.11117554 0.8635559 -0.024658203l-1.8998718 -2.0949402l0.71698 -0.65145874l5.290283 5.8334045l-0.67071533 0.60943604zm-4.165436 -0.057525635q0.7347717 0.81018066 1.4375 0.910553q0.7038269 0.078308105 1.1664124 -0.34197998q0.4741211 -0.43081665 0.4515381 -1.1069946q-0.022583008 -0.67614746 -0.73635864 -1.4631958q-0.78723145 -0.8680725 -1.4899902 -0.9684448q-0.6911926 -0.11087036 -1.188446 0.34094238q-0.4741211 0.43081665 -0.44104004 1.1185303q0.03414917 0.6656494 0.8003845 1.5105896zm1.2775269 -6.459778l-0.7452698 -0.82177734l0.71698 -0.65145874l0.7452698 0.8217468l-0.71698 0.65148926zm4.5450134 5.011627l-3.8312683 -4.2246094l0.7170105 -0.65145874l3.8312378 4.2246094l-0.71698 0.65145874zm2.7360535 -3.6471863l0.6593323 0.5409546q-0.2376709 0.34262085 -0.46896362 0.5527954q-0.39318848 0.35723877 -0.72836304 0.42956543q-0.32363892 0.061828613 -0.594574 -0.050872803q-0.2593994 -0.12319946 -0.8471985 -0.7713623l-2.2042847 -2.430603l-0.5319824 0.48336792l-0.5038147 -0.5555725l0.5319519 -0.4833374l-0.94470215 -1.041687l0.30654907 -1.08078l1.3435669 1.4815063l0.72854614 -0.6619873l0.5038452 0.5555725l-0.72854614 0.6619568l2.2462769 2.4768982q0.27288818 0.30093384 0.39157104 0.3619995q0.11972046 0.039001465 0.2531433 0.02331543q0.13452148 -0.03778076 0.28485107 -0.17437744q0.12719727 -0.11557007 0.3027954 -0.3173523zm-3.3376465 -4.94751l-0.7452698 -0.82177734l0.71698 -0.65145874l0.7452698 0.8217468l-0.71698 0.65148926zm4.5450134 5.011627l-3.8312683 -4.224579l0.7170105 -0.65148926l3.8312378 4.2246094l-0.71698 0.65145874zm-0.44622803 -3.4579773q-1.0601501 -1.1690063 -0.9153137 -2.335083q0.12365723 -0.9568176 0.9100342 -1.6713257q0.8673096 -0.7880554 1.9251709 -0.7147827q1.0694275 0.06277466 1.982605 1.0697327q0.7452698 0.82177734 0.9327698 1.5169678q0.17703247 0.68362427 -0.06619263 1.3690796q-0.23162842 0.67492676 -0.7751465 1.1687927q-0.8904724 0.80908203 -1.9598694 0.7463074q-1.0578613 -0.07330322 -2.0340576 -1.1496887zm0.7401123 -0.67248535q0.7452698 0.82177734 1.4595642 0.9116211q0.71539307 0.06781006 1.2589111 -0.4260559q0.5319519 -0.4833374 0.5115051 -1.2036743q-0.008880615 -0.73080444 -0.76464844 -1.564148q-0.7032776 -0.7754822 -1.4291382 -0.8548584q-0.7258606 -0.0793457 -1.2462769 0.39349365q-0.54351807 0.49383545 -0.53463745 1.2246704q0.009979248 0.70874023 0.74472046 1.5189514zm5.8330383 -1.4365845l-3.8312683 -4.224579l0.6476135 -0.5884094l0.5458069 0.60183716q-0.16720581 -1.1147461 0.7116699 -1.9133301q0.3816223 -0.34674072 0.8313904 -0.5020447q0.43927002 -0.16690063 0.79953 -0.072021484q0.36132812 0.07281494 0.7036133 0.31069946q0.22363281 0.17681885 0.6749878 0.6744995l2.3512573 2.5926208l-0.7170105 0.65145874l-2.3302307 -2.569458q-0.39886475 -0.43981934 -0.6687622 -0.5746155q-0.2803955 -0.1463623 -0.61557007 -0.074035645q-0.33410645 0.05026245 -0.62323 0.31292725q-0.45098877 0.40982056 -0.5239563 1.0038757q-0.07293701 0.5940857 0.67233276 1.4158325l2.0888062 2.3032837l-0.71698 0.65145874zm8.869019 -9.008575q-0.1003418 0.7034302 -0.3444519 1.1785583q-0.23254395 0.46463013 -0.6604004 0.85339355q-0.6938782 0.63046265 -1.3798828 0.6415405q-0.68496704 -0.010986328 -1.1573181 -0.53182983q-0.28338623 -0.3125 -0.37554932 -0.6932068q-0.080596924 -0.39123535 0.0026855469 -0.741333q0.08432007 -0.37219238 0.29995728 -0.71591187q0.15567017 -0.24700928 0.54156494 -0.6820679q0.77285767 -0.89224243 1.0411377 -1.4104614q-0.11437988 -0.14941406 -0.15637207 -0.19570923q-0.39886475 -0.43981934 -0.76449585 -0.4242859q-0.48638916 -0.0014038086 -1.0299072 0.49246216q-0.5088196 0.4623413 -0.5942383 0.8565979q-0.07382202 0.38375854 0.21987915 0.9402466l-0.7893677 0.54833984q-0.316864 -0.5354309 -0.34906006 -1.0128784q-0.032196045 -0.477417 0.2581482 -0.9945679q0.2798767 -0.52874756 0.8233948 -1.022583q0.54351807 -0.49386597 0.99432373 -0.67126465q0.45083618 -0.17739868 0.77963257 -0.117248535q0.32983398 0.038085938 0.6616211 0.2644043q0.20263672 0.153656 0.64349365 0.6397705l0.8607178 0.9490967q0.90270996 0.99539185 1.1903992 1.2195435q0.2876892 0.22418213 0.6468811 0.341156l-0.75167847 0.6829834q-0.315094 -0.11483765 -0.6111145 -0.39474487zm-1.5179138 -1.5341797q-0.23468018 0.50878906 -0.9265747 1.3274536q-0.37646484 0.46871948 -0.4880066 0.717865q-0.11050415 0.22705078 -0.06762695 0.4836731q0.03237915 0.24502563 0.20031738 0.4302063q0.26242065 0.28936768 0.6605835 0.28649902q0.3876648 -0.014465332 0.8039856 -0.3927307q0.4163208 -0.37826538 0.5606079 -0.84716797q0.15585327 -0.47940063 0.034332275 -0.93899536q-0.11633301 -0.33764648 -0.5466919 -0.8121948l-0.23092651 -0.25460815z" fill-rule="nonzero"></path><path fill="#000000" fill-opacity="0.0" d="m408.71844 418.19635l81.95276 -0.06298828l0 47.496063l-81.95276 0.06298828z" fill-rule="evenodd"></path><path fill="#000000" d="m418.7497 437.42865l0 -7.875l1.03125 -7.9345703E-4l0 7.875l-1.03125 7.9345703E-4zm2.8825378 -0.0021972656l0 -4.953125l-0.84375 6.4086914E-4l0 -0.75l0.84375 -6.4086914E-4l0 -0.609375q0 -0.578125 0.109375 -0.85946655q0.140625 -0.37512207 0.484375 -0.6097412q0.359375 -0.23464966 0.984375 -0.23513794q0.40625 -3.0517578E-4 0.90625 0.108673096l-0.140625 0.8438721q-0.3125 -0.062286377 -0.578125 -0.062072754q-0.4375 3.3569336E-4 -0.625 0.18798828q-0.171875 0.18762207 -0.171875 0.7032471l0 0.53125l1.109375 -8.544922E-4l0 0.75l-1.109375 8.544922E-4l0 4.953125l-0.96875 7.6293945E-4zm9.421295 -2.1010132l0.9375 0.124298096q-0.140625 0.98446655 -0.796875 1.5474854q-0.640625 0.5473633 -1.5625 0.5480652q-1.171875 9.1552734E-4 -1.890625 -0.76416016q-0.703125 -0.7650757 -0.703125 -2.1869507q0 -0.921875 0.296875 -1.6096191q0.3125 -0.70336914 0.9375 -1.0476074q0.625 -0.34420776 1.359375 -0.3447876q0.921875 -7.019043E-4 1.515625 0.46759033q0.59375 0.46829224 0.765625 1.3275452l-0.953125 0.14135742q-0.125 -0.56240845 -0.46875 -0.8433838q-0.34375 -0.29663086 -0.828125 -0.29626465q-0.71875 5.493164E-4 -1.1875 0.5321655q-0.453125 0.5159912 -0.453125 1.6409912q0 1.15625 0.4375 1.6715393q0.4375 0.5152893 1.15625 0.51474q0.5625 -4.5776367E-4 0.9375 -0.34448242q0.390625 -0.34405518 0.5 -1.0785217zm1.234375 -0.76657104q0 -1.578125 0.890625 -2.3444214q0.734375 -0.62557983 1.796875 -0.6263733q1.171875 -9.1552734E-4 1.9062195 0.76416016q0.75 0.76504517 0.75 2.1244202q0 1.109375 -0.328125 1.7502441q-0.328125 0.62524414 -0.9687195 0.9694824q-0.625 0.34423828 -1.359375 0.34481812q-1.203125 9.1552734E-4 -1.953125 -0.76412964q-0.734375 -0.7650757 -0.734375 -2.2182007zm1.0 -7.6293945E-4q0 1.109375 0.46875 1.6558838q0.484375 0.5308838 1.21875 0.5303345q0.71875 -5.493164E-4 1.1875 -0.5477905q0.48434448 -0.5472717 0.48434448 -1.6722717q0 -1.046875 -0.48434448 -1.5933533q-0.484375 -0.5465088 -1.1875 -0.5459595q-0.734375 5.493164E-4 -1.21875 0.5477905q-0.46875 0.5316162 -0.46875 1.6253662zm5.285858 2.8553162l0 -5.703125l0.875 -6.713867E-4l0 0.8125q0.625 -0.9379883 1.8125 -0.9389038q0.515625 -3.9672852E-4 0.953125 0.18676758q0.4375 0.1715393 0.640625 0.48388672q0.21875 0.2967224 0.3125 0.70288086q0.046875 0.28121948 0.046875 0.9530945l0 3.5l-0.96875 7.6293945E-4l0 -3.4687805q0 -0.59375 -0.109375 -0.87490845q-0.109375 -0.29678345 -0.40625 -0.46844482q-0.28125 -0.18725586 -0.671875 -0.1869812q-0.609375 4.8828125E-4 -1.0625 0.39144897q-0.453125 0.3909912 -0.453125 1.5003662l0 3.109375l-0.96875 7.324219E-4zm9.629608 -0.0074157715l0 -0.71875q-0.53125 0.84417725 -1.59375 0.8450012q-0.671875 5.187988E-4 -1.25 -0.37405396q-0.578125 -0.37454224 -0.890625 -1.0462036q-0.3125 -0.67163086 -0.3125 -1.5466309q0 -0.859375 0.28125 -1.5470886q0.296875 -0.7033386 0.859375 -1.0631409q0.5625 -0.37545776 1.265625 -0.37597656q0.515625 -3.9672852E-4 0.921875 0.21801758q0.40625 0.21844482 0.65625 0.5620117l0 -2.828125l0.96875 -7.324219E-4l0 7.875l-0.90625 6.713867E-4zm-3.046875 -2.8414001q0 1.09375 0.453125 1.6402893q0.46875 0.5308838 1.09375 0.5303955q0.640625 -4.8828125E-4 1.078125 -0.516449q0.4375 -0.5159607 0.4375 -1.5784607q0 -1.171875 -0.453125 -1.7184143q-0.4375 -0.5465393 -1.109375 -0.5460205q-0.640625 4.8828125E-4 -1.078125 0.5321045q-0.421875 0.5159302 -0.421875 1.6565552zm5.2858887 -3.9259338l0 -1.109375l0.96875 -7.324219E-4l0 1.109375l-0.96875 7.324219E-4zm0 6.765625l0 -5.703125l0.96875 -7.324219E-4l0 5.703125l-0.96875 7.324219E-4zm4.476837 -0.8628235l0.125 0.84365845q-0.40625 0.094055176 -0.71875 0.09429932q-0.53125 4.272461E-4 -0.828125 -0.17123413q-0.28125 -0.17166138 -0.40625 -0.43719482q-0.109375 -0.26553345 -0.109375 -1.1405334l0 -3.28125l-0.71875 5.493164E-4l0 -0.75l0.71875 -5.493164E-4l0 -1.40625l0.953125 -0.5944824l0 2.0l0.984375 -7.6293945E-4l0 0.75l-0.984375 7.6293945E-4l0 3.34375q0 0.40625 0.046875 0.5312195q0.0625 0.109313965 0.171875 0.18737793q0.125 0.06237793 0.328125 0.06222534q0.171875 -1.2207031E-4 0.4375 -0.031585693zm0.85128784 -5.906891l0 -1.109375l0.96875 -7.6293945E-4l0 1.109375l-0.96875 7.6293945E-4zm0 6.765625l0 -5.703125l0.96875 -7.6293945E-4l0 5.703125l-0.96875 7.6293945E-4zm1.9924622 -2.8609009q0 -1.578125 0.890625 -2.344452q0.734375 -0.6255493 1.796875 -0.6263733q1.171875 -9.1552734E-4 1.90625 0.76416016q0.75 0.76504517 0.75 2.1244202q0 1.109375 -0.328125 1.7502441q-0.328125 0.62527466 -0.96875 0.96951294q-0.625 0.34420776 -1.359375 0.3447876q-1.203125 9.1552734E-4 -1.953125 -0.76412964q-0.734375 -0.76504517 -0.734375 -2.2181702zm1.0 -7.9345703E-4q0 1.109375 0.46875 1.6559143q0.484375 0.5308533 1.21875 0.53030396q0.71875 -5.493164E-4 1.1875 -0.5477905q0.484375 -0.5472412 0.484375 -1.6722412q0 -1.046875 -0.484375 -1.5933838q-0.484375 -0.5465088 -1.1875 -0.5459595q-0.734375 5.493164E-4 -1.21875 0.54782104q-0.46875 0.5315857 -0.46875 1.6253357zm5.2858887 2.8553162l0 -5.703125l0.875 -6.713867E-4l0 0.8125q0.625 -0.93795776 1.8125 -0.9388733q0.515625 -3.9672852E-4 0.953125 0.18676758q0.4375 0.1715393 0.640625 0.4838562q0.21875 0.2967224 0.3125 0.7029114q0.046875 0.28118896 0.046875 0.95306396l0 3.5l-0.96875 7.6293945E-4l0 -3.46875q0 -0.59375 -0.109375 -0.87490845q-0.109375 -0.29681396 -0.40625 -0.46844482q-0.28125 -0.18728638 -0.671875 -0.1869812q-0.609375 4.5776367E-4 -1.0625 0.39141846q-0.453125 0.3909912 -0.453125 1.5003662l0 3.109375l-0.96875 7.324219E-4zm9.777771 -0.007507324l-0.890625 7.019043E-4l0 -7.8750305l0.96875 -7.324219E-4l0 2.8125q0.609375 -0.76608276 1.5625 -0.7668152q0.53125 -4.272461E-4 1.0 0.21798706q0.46875 0.20275879 0.765625 0.59313965q0.3125 0.37475586 0.484375 0.9215088q0.171875 0.5311279 0.171875 1.1561279q0 1.46875 -0.734375 2.2661743q-0.71875 0.7974243 -1.734375 0.7982178q-1.015625 7.9345703E-4 -1.59375 -0.8425293l0 0.71875zm0 -2.890625q0 1.015625 0.28125 1.4841614q0.453125 0.7340393 1.234375 0.73342896q0.625 -4.8828125E-4 1.078125 -0.547699q0.46875 -0.5472412 0.46875 -1.6409912q0 -1.109375 -0.4375 -1.6402893q-0.4375 -0.5309143 -1.078125 -0.530426q-0.625 4.8828125E-4 -1.09375 0.5477295q-0.453125 0.5472107 -0.453125 1.5940857z" fill-rule="nonzero"></path><path fill="#000000" fill-opacity="0.0" d="m247.37334 448.8058c-15.784775 -7.774292 -75.979004 -23.911224 -94.708664 -46.64569c-18.72966 -22.734467 -15.548996 -66.90857 -17.669296 -89.76114c-2.1203003 -22.8526 4.122925 -39.461945 4.94751 -47.35434" fill-rule="evenodd"></path><path stroke="#000000" stroke-width="1.0" stroke-linejoin="round" stroke-linecap="butt" d="m247.37334 448.8058c-15.784775 -7.774292 -75.979004 -23.911224 -94.708664 -46.64569c-18.72966 -22.734436 -15.548996 -66.90857 -17.669296 -89.76114c-1.0601501 -11.4263 -0.029418945 -21.29181 1.3694153 -29.287231c0.6994324 -3.9977417 1.4908752 -7.527954 2.1590118 -10.552032c0.08351135 -0.37802124 0.1651001 -0.7481079 0.24433899 -1.1102295l0.10845947 -0.5003662" fill-rule="evenodd"></path><path fill="#000000" stroke="#000000" stroke-width="1.0" stroke-linecap="butt" d="m140.50204 271.24265l-0.81895447 -4.7593994l-2.4319305 4.172333z" fill-rule="evenodd"></path><path fill="#000000" fill-opacity="0.0" d="m246.98294 353.11334l-99.93701 -88.06302" fill-rule="evenodd"></path><path stroke="#000000" stroke-width="1.0" stroke-linejoin="round" stroke-linecap="butt" d="m246.98294 353.1133l-95.43538 -84.09619" fill-rule="evenodd"></path><path fill="#000000" stroke="#000000" stroke-width="1.0" stroke-linecap="butt" d="m152.63957 267.77786l-4.496811 -1.7610168l2.3128052 4.239502z" fill-rule="evenodd"></path><path fill="#000000" fill-opacity="0.0" d="m400.7454 120.15223c13.546814 2.356079 64.67151 2.1211777 81.28085 14.136482c16.609375 12.01532 15.312775 48.296158 18.375336 57.955383" fill-rule="evenodd"></path><path stroke="#000000" stroke-width="1.0" stroke-linejoin="round" stroke-linecap="butt" d="m400.7454 120.15223c13.546814 2.3560867 64.67148 2.1211777 81.28085 14.136482c8.304718 6.0076447 12.132874 18.081696 14.267731 29.861221c1.0674133 5.8897705 1.7115173 11.705902 2.2801208 16.653305c0.1421814 1.2368469 0.27963257 2.419403 0.41778564 3.5352173c0.0690918 0.5579376 0.13833618 1.0991669 0.20846558 1.6221771l0.0541687 0.39413452" fill-rule="evenodd"></path><path fill="#000000" stroke="#000000" stroke-width="1.0" stroke-linecap="butt" d="m497.63324 186.67053l2.488861 4.138626l0.7536926 -4.770172z" fill-rule="evenodd"></path><path fill="#000000" fill-opacity="0.0" d="m146.30446 191.53677c2.0026245 -6.007431 5.6548615 -26.738846 12.015747 -36.044617c6.360901 -9.305771 13.309723 -13.428696 26.149612 -19.790024c12.83989 -6.3613434 40.170166 -15.197296 50.889755 -18.37796c10.7196045 -3.180664 11.189865 -0.58836365 13.427826 -0.7060318" fill-rule="evenodd"></path><path stroke="#000000" stroke-width="1.0" stroke-linejoin="round" stroke-linecap="butt" d="m146.30446 191.53676c2.0026245 -6.007416 5.6548615 -26.73883 12.015747 -36.0446c6.360901 -9.305771 13.309723 -13.428711 26.149612 -19.790024c12.83989 -6.3613434 40.170166 -15.197296 50.889755 -18.377953c2.6799011 -0.795166 4.719223 -1.2295303 6.305725 -1.4356155c0.39660645 -0.05152893 0.76493835 -0.08879089 1.1078949 -0.113845825l0.0743866 -0.0043029785" fill-rule="evenodd"></path><path fill="#000000" stroke="#000000" stroke-width="1.0" stroke-linecap="butt" d="m242.61423 117.40558l4.725937 -0.99398804l-4.259201 -2.2763367z" fill-rule="evenodd"></path><path fill="#000000" fill-opacity="0.0" d="m190.66127 93.97636l74.07875 -35.11811l20.314972 42.92913l-74.07875 35.11811z" fill-rule="evenodd"></path><path fill="#000000" d="m207.95537 107.070335l-3.3684845 -7.1182175l0.931839 -0.44174957l3.3684845 7.11821l-0.931839 0.4417572zm2.392868 -1.1343842l-2.4394684 -5.155052l0.7906494 -0.3748169l0.34754944 0.73441315q0.16374207 -1.1151352 1.2367706 -1.6238174q0.46591187 -0.2208786 0.941452 -0.23880768q0.46884155 -0.032051086 0.7860565 0.16340637q0.324646 0.17463684 0.5831299 0.5016861q0.16265869 0.23414612 0.45005798 0.84145355l1.4971008 3.1636505l-0.8753662 0.41497803l-1.4837341 -3.1354065q-0.25398254 -0.53668976 -0.473114 -0.7440567q-0.22581482 -0.22149658 -0.56759644 -0.24967957q-0.33433533 -0.0490036 -0.68730164 0.11832428q-0.5506439 0.26103973 -0.79299927 0.80822754q-0.24235535 0.54719543 0.23216248 1.5499573l1.3300323 2.8105621l-0.87538147 0.41497803zm7.83403 -6.030937l0.900589 -0.28860474q0.29400635 0.9500122 -0.058380127 1.7395706q-0.34495544 0.7687454 -1.1779633 1.1636429q-1.0589142 0.5019989 -2.0358734 0.117836q-0.9628296 -0.39085388 -1.5710297 -1.6760864q-0.3943329 -0.8332825 -0.42015076 -1.5818863q-0.01838684 -0.7694168 0.39933777 -1.3478622q0.41770935 -0.57844543 1.0812988 -0.89302826q0.8330078 -0.39489746 1.5700378 -0.22554016q0.7370148 0.1693573 1.2599182 0.87252045l-0.8011017 0.5354004q-0.3535614 -0.45489502 -0.7844696 -0.56186676q-0.4376068 -0.12109375 -0.8752899 0.08639526q-0.64945984 0.30789185 -0.8457947 0.988884q-0.18888855 0.66017914 0.29232788 1.677063q0.49458313 1.0451355 1.1104584 1.3237991q0.6158905 0.27866364 1.2653503 -0.02922821q0.5082855 -0.24095154 0.7000885 -0.7123108q0.20593262 -0.4780426 -0.009353638 -1.1886978zm2.3357086 1.2098312l-2.4394836 -5.155052l0.77653503 -0.36813354l0.3675995 0.77679443q0.049957275 -0.6980667 0.22389221 -0.9880295q0.17393494 -0.28995514 0.47042847 -0.4305191q0.45181274 -0.21418 1.0372772 -0.14589691l0.084472656 0.9455948q-0.4116211 -0.029663086 -0.73635864 0.12428284q-0.28237915 0.13386536 -0.42807007 0.41043854q-0.14570618 0.27657318 -0.09750366 0.63414q0.07937622 0.53300476 0.34002686 1.0838242l1.2765503 2.6975784l-0.8753662 0.41497803zm5.9476013 -4.8599854l0.95706177 -0.31537628q0.1625061 0.89131165 -0.20918274 1.6035538q-0.37168884 0.71224976 -1.2611694 1.1339264q-1.1295013 0.5354614 -2.120575 0.1579895q-0.99108887 -0.3774643 -1.5859222 -1.6344528q-0.6215515 -1.3134766 -0.29214478 -2.3342285q0.33683777 -1.0415726 1.395752 -1.5435638q1.0447998 -0.4953003 2.0284424 -0.09701538q0.97694397 0.38415527 1.585144 1.6693878q0.033416748 0.070617676 0.10694885 0.22597504l-3.840332 1.8205643q0.44337463 0.8273239 1.0808105 1.078476q0.6515503 0.24446106 1.3010254 -0.063430786q0.48002625 -0.22756958 0.70526123 -0.6283035q0.21855164 -0.41485596 0.14888 -1.0735016zm-3.5344696 -0.053619385l2.8802338 -1.3654175q-0.36392212 -0.6229019 -0.7858887 -0.8205719q-0.65748596 -0.2935257 -1.3210754 0.021057129q-0.6071167 0.28781128 -0.82273865 0.89149475q-0.2223053 0.58956146 0.049468994 1.2734375zm6.1486206 0.8547745l-2.4394684 -5.155052l0.7906494 -0.37482452l0.34085083 0.72029877q0.059570312 -0.4951172 0.34796143 -0.9085007q0.3025055 -0.4200821 0.810791 -0.66104126q0.5788727 -0.2744217 1.0595856 -0.2083435q0.47401428 0.051948547 0.83651733 0.41615295q0.17936707 -1.1917114 1.1535645 -1.6535416q0.77653503 -0.36813354 1.3864899 -0.13853455q0.6099396 0.229599 1.0243225 1.1052551l1.6775665 3.544983l-0.86125183 0.40828705l-1.5372162 -3.2483902q-0.24728394 -0.52256775 -0.43893433 -0.70838165q-0.19833374 -0.19994354 -0.4910736 -0.23408508q-0.2927246 -0.03414154 -0.58921814 0.106414795q-0.5506439 0.26103973 -0.7439575 0.802269q-0.17919922 0.5345459 0.19506836 1.3254547l1.4169159 2.9941711l-0.8753662 0.41497803l-1.5839996 -3.347252q-0.27401733 -0.5790634 -0.62615967 -0.7752533q-0.35212708 -0.19619751 -0.8321686 0.03137207q-0.36709595 0.17402649 -0.59825134 0.5256958q-0.21705627 0.34497833 -0.17778015 0.7932434q0.032577515 0.43414307 0.366745 1.1403198l1.2631836 2.6693268l-0.8753662 0.41497803zm10.7621155 -7.142372l0.957077 -0.3153839q0.16249084 0.89131165 -0.20918274 1.6035614q-0.37168884 0.71224976 -1.2611694 1.1339264q-1.1295166 0.5354538 -2.1205902 0.1579895q-0.9910736 -0.3774643 -1.585907 -1.6344528q-0.6215668 -1.3134766 -0.29216003 -2.3342361q0.33685303 -1.041565 1.3957672 -1.5435562q1.0447845 -0.4953003 2.0284271 -0.09702301q0.9769592 0.3841629 1.5851593 1.6693954q0.033416748 0.070617676 0.106933594 0.22597504l-3.8403168 1.8205566q0.44335938 0.82733154 1.0807953 1.0784836q0.65156555 0.24446106 1.3010254 -0.063430786q0.4800415 -0.22756958 0.7052765 -0.6283035q0.21855164 -0.4148636 0.14886475 -1.0735016zm-3.5344696 -0.053619385l2.880249 -1.3654175q-0.36392212 -0.62290955 -0.78590393 -0.8205719q-0.65748596 -0.2935257 -1.3210602 0.021057129q-0.6071167 0.28780365 -0.82273865 0.8914871q-0.2223053 0.58956146 0.049453735 1.2734451zm6.148636 0.8547745l-2.4394836 -5.155052l0.7906647 -0.37482452l0.34753418 0.7344208q0.16374207 -1.1151352 1.2367706 -1.6238251q0.46592712 -0.22087097 0.941452 -0.23880005q0.4688568 -0.032058716 0.7860565 0.16339874q0.32466125 0.17464447 0.58314514 0.5016937q0.16265869 0.23413849 0.45004272 0.8414459l1.4971161 3.1636505l-0.87538147 0.41498566l-1.4837341 -3.1354065q-0.2539673 -0.53668976 -0.47309875 -0.7440567q-0.22583008 -0.22149658 -0.56759644 -0.24967957q-0.3343506 -0.0490036 -0.6873169 0.11832428q-0.55062866 0.26103973 -0.792984 0.80822754q-0.2423706 0.5471878 0.23216248 1.5499496l1.3300171 2.8105698l-0.8753662 0.41497803zm6.907776 -4.2257843l0.4738617 0.7091217q-0.3269806 0.25875854 -0.60935974 0.3926239q-0.4800415 0.22756958 -0.8218231 0.1993866q-0.32765198 -0.03488159 -0.55422974 -0.22143555q-0.21244812 -0.19324493 -0.5867157 -0.98415375l-1.4035339 -2.9659271l-0.6494751 0.30789185l-0.32080078 -0.6779251l0.64945984 -0.30789185l-0.6015167 -1.2711029l0.6072693 -0.94498444l0.85549927 1.8078003l0.8894806 -0.421669l0.32081604 0.6779251l-0.88949585 0.421669l1.4302673 3.0224152q0.17378235 0.3672104 0.26960754 0.46012115q0.103256226 0.07209015 0.23550415 0.09585571q0.13967896 0.0029449463 0.32322693 -0.0840683q0.15530396 -0.07362366 0.381958 -0.21565247zm0.9181061 -6.9715652l-0.47453308 -1.0027618l0.87538147 -0.41497803l0.47451782 1.0027618l-0.8753662 0.41497803zm2.8939667 6.1154556l-2.4394836 -5.15506l0.8753662 -0.41497803l2.4394836 5.155052l-0.8753662 0.41498566z" fill-rule="nonzero"></path></g></svg>

