<?xml version="1.0" standalone="yes"?>

<svg version="1.1" viewBox="0.0 0.0 542.0498687664042 425.3280839895013" fill="none" stroke="none" stroke-linecap="square" stroke-miterlimit="10" xmlns="http://www.w3.org/2000/svg" xmlns:xlink="http://www.w3.org/1999/xlink"><clipPath id="p.0"><path d="m0 0l542.04987 0l0 425.3281l-542.04987 0l0 -425.3281z" clip-rule="nonzero"></path></clipPath><g clip-path="url(#p.0)"><path fill="#000000" fill-opacity="0.0" d="m0 0l542.04987 0l0 425.3281l-542.04987 0z" fill-rule="evenodd"></path><path fill="#ffe599" d="m21.0958 220.32808l0 0c0 -20.317123 34.28018 -36.7874 76.566925 -36.7874l0 0c42.28675 0 76.56693 16.470276 76.56693 36.7874l0 0c0 20.317123 -34.28018 36.7874 -76.56693 36.7874l0 0c-42.286743 0 -76.566925 -16.470276 -76.566925 -36.7874z" fill-rule="evenodd"></path><path stroke="#000000" stroke-width="1.0" stroke-linejoin="round" stroke-linecap="butt" d="m21.0958 220.32808l0 0c0 -20.317123 34.28018 -36.7874 76.566925 -36.7874l0 0c42.28675 0 76.56693 16.470276 76.56693 36.7874l0 0c0 20.317123 -34.28018 36.7874 -76.56693 36.7874l0 0c-42.286743 0 -76.566925 -16.470276 -76.566925 -36.7874z" fill-rule="evenodd"></path><path fill="#000000" fill-opacity="0.0" d="m21.0958 195.1317l153.13387 0l0 50.393707l-153.13387 0z" fill-rule="evenodd"></path><path fill="#000000" d="m56.608353 222.0517l0 -13.59375l4.6875 0q1.578125 0 2.421875 0.1875q1.15625 0.265625 1.984375 0.96875q1.078125 0.921875 1.609375 2.34375q0.53125 1.40625 0.53125 3.21875q0 1.546875 -0.359375 2.75q-0.359375 1.1875 -0.921875 1.984375q-0.5625 0.78125 -1.234375 1.234375q-0.671875 0.4375 -1.625 0.671875q-0.953125 0.234375 -2.1875 0.234375l-4.90625 0zm1.796875 -1.609375l2.90625 0q1.34375 0 2.109375 -0.25q0.765625 -0.25 1.21875 -0.703125q0.640625 -0.640625 1.0 -1.71875q0.359375 -1.078125 0.359375 -2.625q0 -2.125 -0.703125 -3.265625q-0.703125 -1.15625 -1.703125 -1.546875q-0.71875 -0.28125 -2.328125 -0.28125l-2.859375 0l0 10.390625zm10.832321 -3.3125q0 -2.734375 1.53125 -4.0625q1.265625 -1.09375 3.09375 -1.09375q2.03125 0 3.3125 1.34375q1.296875 1.328125 1.296875 3.671875q0 1.90625 -0.578125 3.0q-0.5625 1.078125 -1.65625 1.6875q-1.078125 0.59375 -2.375 0.59375q-2.0625 0 -3.34375 -1.328125q-1.28125 -1.328125 -1.28125 -3.8125zm1.71875 0q0 1.890625 0.828125 2.828125q0.828125 0.9375 2.078125 0.9375q1.25 0 2.0625 -0.9375q0.828125 -0.953125 0.828125 -2.890625q0 -1.828125 -0.828125 -2.765625q-0.828125 -0.9375 -2.0625 -0.9375q-1.25 0 -2.078125 0.9375q-0.828125 0.9375 -0.828125 2.828125zm18.121521 3.421875l0.234375 1.484375q-0.703125 0.140625 -1.265625 0.140625q-0.90625 0 -1.40625 -0.28125q-0.5 -0.296875 -0.703125 -0.75q-0.203125 -0.46875 -0.203125 -1.984375l0 -5.65625l-1.234375 0l0 -1.3125l1.234375 0l0 -2.4375l1.65625 -1.0l0 3.4375l1.6875 0l0 1.3125l-1.6875 0l0 5.75q0 0.71875 0.078125 0.921875q0.09375 0.203125 0.296875 0.328125q0.203125 0.125 0.578125 0.125q0.265625 0 0.734375 -0.078125zm1.5270538 1.5l0 -13.59375l1.671875 0l0 4.875q1.171875 -1.359375 2.953125 -1.359375q1.09375 0 1.890625 0.4375q0.8125 0.421875 1.15625 1.1875q0.359375 0.765625 0.359375 2.203125l0 6.25l-1.671875 0l0 -6.25q0 -1.25 -0.546875 -1.8125q-0.546875 -0.578125 -1.53125 -0.578125q-0.75 0 -1.40625 0.390625q-0.640625 0.375 -0.921875 1.046875q-0.28125 0.65625 -0.28125 1.8125l0 5.390625l-1.671875 0zm10.391342 -11.6875l0 -1.90625l1.671875 0l0 1.90625l-1.671875 0zm0 11.6875l0 -9.859375l1.671875 0l0 9.859375l-1.671875 0zm4.129196 0l0 -9.859375l1.5 0l0 1.40625q1.09375 -1.625 3.140625 -1.625q0.890625 0 1.640625 0.328125q0.75 0.3125 1.109375 0.84375q0.375 0.515625 0.53125 1.21875q0.09375 0.46875 0.09375 1.625l0 6.0625l-1.671875 0l0 -6.0q0 -1.015625 -0.203125 -1.515625q-0.1875 -0.515625 -0.6875 -0.8125q-0.5 -0.296875 -1.171875 -0.296875q-1.0625 0 -1.84375 0.671875q-0.765625 0.671875 -0.765625 2.578125l0 5.375l-1.671875 0zm10.078842 0.8125l1.609375 0.25q0.109375 0.75 0.578125 1.09375q0.609375 0.453125 1.6875 0.453125q1.171875 0 1.796875 -0.46875q0.625 -0.453125 0.859375 -1.28125q0.125 -0.515625 0.109375 -2.15625q-1.09375 1.296875 -2.71875 1.296875q-2.03125 0 -3.15625 -1.46875q-1.109375 -1.46875 -1.109375 -3.515625q0 -1.40625 0.515625 -2.59375q0.515625 -1.203125 1.484375 -1.84375q0.96875 -0.65625 2.265625 -0.65625q1.75 0 2.875 1.40625l0 -1.1875l1.546875 0l0 8.515625q0 2.3125 -0.46875 3.265625q-0.46875 0.96875 -1.484375 1.515625q-1.015625 0.5625 -2.5 0.5625q-1.765625 0 -2.859375 -0.796875q-1.078125 -0.796875 -1.03125 -2.390625zm1.375 -5.921875q0 1.953125 0.765625 2.84375q0.78125 0.890625 1.9375 0.890625q1.140625 0 1.921875 -0.890625q0.78125 -0.890625 0.78125 -2.78125q0 -1.8125 -0.8125 -2.71875q-0.796875 -0.921875 -1.921875 -0.921875q-1.109375 0 -1.890625 0.90625q-0.78125 0.890625 -0.78125 2.671875zm14.027771 1.515625l1.671875 -0.21875q0.28125 1.421875 0.96875 2.046875q0.703125 0.625 1.6875 0.625q1.1875 0 2.0 -0.8125q0.8125 -0.828125 0.8125 -2.03125q0 -1.140625 -0.765625 -1.890625q-0.75 -0.75 -1.90625 -0.75q-0.46875 0 -1.171875 0.1875l0.1875 -1.46875q0.15625 0.015625 0.265625 0.015625q1.0625 0 1.90625 -0.546875q0.859375 -0.5625 0.859375 -1.71875q0 -0.921875 -0.625 -1.515625q-0.609375 -0.609375 -1.59375 -0.609375q-0.96875 0 -1.625 0.609375q-0.640625 0.609375 -0.828125 1.84375l-1.671875 -0.296875q0.296875 -1.6875 1.375 -2.609375q1.09375 -0.921875 2.71875 -0.921875q1.109375 0 2.046875 0.484375q0.9375 0.46875 1.421875 1.296875q0.5 0.828125 0.5 1.75q0 0.890625 -0.46875 1.609375q-0.46875 0.71875 -1.40625 1.15625q1.21875 0.265625 1.875 1.15625q0.671875 0.875 0.671875 2.1875q0 1.78125 -1.296875 3.015625q-1.296875 1.234375 -3.28125 1.234375q-1.796875 0 -2.984375 -1.0625q-1.171875 -1.0625 -1.34375 -2.765625z" fill-rule="nonzero"></path><path fill="#ffe599" d="m21.0958 146.75328l0 0c0 -20.317123 34.28018 -36.7874 76.566925 -36.7874l0 0c42.28675 0 76.56693 16.470276 76.56693 36.7874l0 0c0 20.317123 -34.28018 36.7874 -76.56693 36.7874l0 0c-42.286743 0 -76.566925 -16.470276 -76.566925 -36.7874z" fill-rule="evenodd"></path><path stroke="#000000" stroke-width="1.0" stroke-linejoin="round" stroke-linecap="butt" d="m21.0958 146.75328l0 0c0 -20.317123 34.28018 -36.7874 76.566925 -36.7874l0 0c42.28675 0 76.56693 16.470276 76.56693 36.7874l0 0c0 20.317123 -34.28018 36.7874 -76.56693 36.7874l0 0c-42.286743 0 -76.566925 -16.470276 -76.566925 -36.7874z" fill-rule="evenodd"></path><path fill="#000000" fill-opacity="0.0" d="m21.0958 121.5569l153.13387 0l0 50.393692l-153.13387 0z" fill-rule="evenodd"></path><path fill="#000000" d="m56.608353 148.4769l0 -13.59375l4.6875 0q1.578125 0 2.421875 0.1875q1.15625 0.265625 1.984375 0.96875q1.078125 0.921875 1.609375 2.34375q0.53125 1.40625 0.53125 3.21875q0 1.546875 -0.359375 2.75q-0.359375 1.1875 -0.921875 1.984375q-0.5625 0.78125 -1.234375 1.234375q-0.671875 0.4375 -1.625 0.671875q-0.953125 0.234375 -2.1875 0.234375l-4.90625 0zm1.796875 -1.609375l2.90625 0q1.34375 0 2.109375 -0.25q0.765625 -0.25 1.21875 -0.703125q0.640625 -0.640625 1.0 -1.71875q0.359375 -1.078125 0.359375 -2.625q0 -2.125 -0.703125 -3.265625q-0.703125 -1.15625 -1.703125 -1.546875q-0.71875 -0.28125 -2.328125 -0.28125l-2.859375 0l0 10.390625zm10.832321 -3.3125q0 -2.734375 1.53125 -4.0625q1.265625 -1.09375 3.09375 -1.09375q2.03125 0 3.3125 1.34375q1.296875 1.328125 1.296875 3.671875q0 1.90625 -0.578125 3.0q-0.5625 1.078125 -1.65625 1.6875q-1.078125 0.59375 -2.375 0.59375q-2.0625 0 -3.34375 -1.328125q-1.28125 -1.328125 -1.28125 -3.8125zm1.71875 0q0 1.890625 0.828125 2.828125q0.828125 0.9375 2.078125 0.9375q1.25 0 2.0625 -0.9375q0.828125 -0.953125 0.828125 -2.890625q0 -1.828125 -0.828125 -2.765625q-0.828125 -0.9375 -2.0625 -0.9375q-1.25 0 -2.078125 0.9375q-0.828125 0.9375 -0.828125 2.828125zm18.121521 3.421875l0.234375 1.484375q-0.703125 0.140625 -1.265625 0.140625q-0.90625 0 -1.40625 -0.28125q-0.5 -0.296875 -0.703125 -0.75q-0.203125 -0.46875 -0.203125 -1.984375l0 -5.65625l-1.234375 0l0 -1.3125l1.234375 0l0 -2.4375l1.65625 -1.0l0 3.4375l1.6875 0l0 1.3125l-1.6875 0l0 5.75q0 0.71875 0.078125 0.921875q0.09375 0.203125 0.296875 0.328125q0.203125 0.125 0.578125 0.125q0.265625 0 0.734375 -0.078125zm1.5270538 1.5l0 -13.59375l1.671875 0l0 4.875q1.171875 -1.359375 2.953125 -1.359375q1.09375 0 1.890625 0.4375q0.8125 0.421875 1.15625 1.1875q0.359375 0.765625 0.359375 2.203125l0 6.25l-1.671875 0l0 -6.25q0 -1.25 -0.546875 -1.8125q-0.546875 -0.578125 -1.53125 -0.578125q-0.75 0 -1.40625 0.390625q-0.640625 0.375 -0.921875 1.046875q-0.28125 0.65625 -0.28125 1.8125l0 5.390625l-1.671875 0zm10.391342 -11.6875l0 -1.90625l1.671875 0l0 1.90625l-1.671875 0zm0 11.6875l0 -9.859375l1.671875 0l0 9.859375l-1.671875 0zm4.129196 0l0 -9.859375l1.5 0l0 1.40625q1.09375 -1.625 3.140625 -1.625q0.890625 0 1.640625 0.328125q0.75 0.3125 1.109375 0.84375q0.375 0.515625 0.53125 1.21875q0.09375 0.46875 0.09375 1.625l0 6.0625l-1.671875 0l0 -6.0q0 -1.015625 -0.203125 -1.515625q-0.1875 -0.515625 -0.6875 -0.8125q-0.5 -0.296875 -1.171875 -0.296875q-1.0625 0 -1.84375 0.671875q-0.765625 0.671875 -0.765625 2.578125l0 5.375l-1.671875 0zm10.078842 0.8125l1.609375 0.25q0.109375 0.75 0.578125 1.09375q0.609375 0.453125 1.6875 0.453125q1.171875 0 1.796875 -0.46875q0.625 -0.453125 0.859375 -1.28125q0.125 -0.515625 0.109375 -2.15625q-1.09375 1.296875 -2.71875 1.296875q-2.03125 0 -3.15625 -1.46875q-1.109375 -1.46875 -1.109375 -3.515625q0 -1.40625 0.515625 -2.59375q0.515625 -1.203125 1.484375 -1.84375q0.96875 -0.65625 2.265625 -0.65625q1.75 0 2.875 1.40625l0 -1.1875l1.546875 0l0 8.515625q0 2.3125 -0.46875 3.265625q-0.46875 0.96875 -1.484375 1.515625q-1.015625 0.5625 -2.5 0.5625q-1.765625 0 -2.859375 -0.796875q-1.078125 -0.796875 -1.03125 -2.390625zm1.375 -5.921875q0 1.953125 0.765625 2.84375q0.78125 0.890625 1.9375 0.890625q1.140625 0 1.921875 -0.890625q0.78125 -0.890625 0.78125 -2.78125q0 -1.8125 -0.8125 -2.71875q-0.796875 -0.921875 -1.921875 -0.921875q-1.109375 0 -1.890625 0.90625q-0.78125 0.890625 -0.78125 2.671875zm22.793396 3.5l0 1.609375l-8.984375 0q-0.015625 -0.609375 0.1875 -1.15625q0.34375 -0.921875 1.09375 -1.8125q0.765625 -0.890625 2.1875 -2.0625q2.21875 -1.8125 3.0 -2.875q0.78125 -1.0625 0.78125 -2.015625q0 -0.984375 -0.71875 -1.671875q-0.703125 -0.6875 -1.84375 -0.6875q-1.203125 0 -1.9375 0.734375q-0.71875 0.71875 -0.71875 2.0l-1.71875 -0.171875q0.171875 -1.921875 1.328125 -2.921875q1.15625 -1.015625 3.09375 -1.015625q1.953125 0 3.09375 1.09375q1.140625 1.078125 1.140625 2.6875q0 0.8125 -0.34375 1.609375q-0.328125 0.78125 -1.109375 1.65625q-0.765625 0.859375 -2.5625 2.390625q-1.5 1.265625 -1.9375 1.71875q-0.421875 0.4375 -0.703125 0.890625l6.671875 0z" fill-rule="nonzero"></path><path fill="#ffe599" d="m21.0958 73.178474l0 0c0 -20.317116 34.28018 -36.7874 76.566925 -36.7874l0 0c42.28675 0 76.56693 16.470284 76.56693 36.7874l0 0c0 20.317123 -34.28018 36.787407 -76.56693 36.787407l0 0c-42.286743 0 -76.566925 -16.470284 -76.566925 -36.787407z" fill-rule="evenodd"></path><path stroke="#000000" stroke-width="1.0" stroke-linejoin="round" stroke-linecap="butt" d="m21.0958 73.178474l0 0c0 -20.317116 34.28018 -36.7874 76.566925 -36.7874l0 0c42.28675 0 76.56693 16.470284 76.56693 36.7874l0 0c0 20.317123 -34.28018 36.787407 -76.56693 36.787407l0 0c-42.286743 0 -76.566925 -16.470284 -76.566925 -36.787407z" fill-rule="evenodd"></path><path fill="#000000" fill-opacity="0.0" d="m21.0958 47.982094l153.13387 0l0 50.3937l-153.13387 0z" fill-rule="evenodd"></path><path fill="#000000" d="m56.608353 74.90209l0 -13.59375l4.6875 0q1.578125 0 2.421875 0.1875q1.15625 0.265625 1.984375 0.96875q1.078125 0.921875 1.609375 2.34375q0.53125 1.40625 0.53125 3.21875q0 1.546875 -0.359375 2.75q-0.359375 1.1875 -0.921875 1.984375q-0.5625 0.78125 -1.234375 1.234375q-0.671875 0.4375 -1.625 0.671875q-0.953125 0.234375 -2.1875 0.234375l-4.90625 0zm1.796875 -1.609375l2.90625 0q1.34375 0 2.109375 -0.25q0.765625 -0.25 1.21875 -0.703125q0.640625 -0.640625 1.0 -1.71875q0.359375 -1.078125 0.359375 -2.625q0 -2.125 -0.703125 -3.265625q-0.703125 -1.15625 -1.703125 -1.546875q-0.71875 -0.28125 -2.328125 -0.28125l-2.859375 0l0 10.390625zm10.832321 -3.3125q0 -2.734375 1.53125 -4.0625q1.265625 -1.09375 3.09375 -1.09375q2.03125 0 3.3125 1.34375q1.296875 1.328125 1.296875 3.671875q0 1.90625 -0.578125 3.0q-0.5625 1.078125 -1.65625 1.6875q-1.078125 0.59375 -2.375 0.59375q-2.0625 0 -3.34375 -1.328125q-1.28125 -1.328125 -1.28125 -3.8125zm1.71875 0q0 1.890625 0.828125 2.828125q0.828125 0.9375 2.078125 0.9375q1.25 0 2.0625 -0.9375q0.828125 -0.953125 0.828125 -2.890625q0 -1.828125 -0.828125 -2.765625q-0.828125 -0.9375 -2.0625 -0.9375q-1.25 0 -2.078125 0.9375q-0.828125 0.9375 -0.828125 2.828125zm18.121521 3.421875l0.234375 1.484375q-0.703125 0.140625 -1.265625 0.140625q-0.90625 0 -1.40625 -0.28125q-0.5 -0.296875 -0.703125 -0.75q-0.203125 -0.46875 -0.203125 -1.984375l0 -5.65625l-1.234375 0l0 -1.3125l1.234375 0l0 -2.4375l1.65625 -1.0l0 3.4375l1.6875 0l0 1.3125l-1.6875 0l0 5.75q0 0.71875 0.078125 0.921875q0.09375 0.203125 0.296875 0.328125q0.203125 0.125 0.578125 0.125q0.265625 0 0.734375 -0.078125zm1.5270538 1.5l0 -13.59375l1.671875 0l0 4.875q1.171875 -1.359375 2.953125 -1.359375q1.09375 0 1.890625 0.4375q0.8125 0.421875 1.15625 1.1875q0.359375 0.765625 0.359375 2.203125l0 6.25l-1.671875 0l0 -6.25q0 -1.25 -0.546875 -1.8125q-0.546875 -0.578125 -1.53125 -0.578125q-0.75 0 -1.40625 0.390625q-0.640625 0.375 -0.921875 1.046875q-0.28125 0.65625 -0.28125 1.8125l0 5.390625l-1.671875 0zm10.391342 -11.6875l0 -1.90625l1.671875 0l0 1.90625l-1.671875 0zm0 11.6875l0 -9.859375l1.671875 0l0 9.859375l-1.671875 0zm4.129196 0l0 -9.859375l1.5 0l0 1.40625q1.09375 -1.625 3.140625 -1.625q0.890625 0 1.640625 0.328125q0.75 0.3125 1.109375 0.84375q0.375 0.515625 0.53125 1.21875q0.09375 0.46875 0.09375 1.625l0 6.0625l-1.671875 0l0 -6.0q0 -1.015625 -0.203125 -1.515625q-0.1875 -0.515625 -0.6875 -0.8125q-0.5 -0.296875 -1.171875 -0.296875q-1.0625 0 -1.84375 0.671875q-0.765625 0.671875 -0.765625 2.578125l0 5.375l-1.671875 0zm10.078842 0.8125l1.609375 0.25q0.109375 0.75 0.578125 1.09375q0.609375 0.453125 1.6875 0.453125q1.171875 0 1.796875 -0.46875q0.625 -0.453125 0.859375 -1.28125q0.125 -0.515625 0.109375 -2.15625q-1.09375 1.296875 -2.71875 1.296875q-2.03125 0 -3.15625 -1.46875q-1.109375 -1.46875 -1.109375 -3.515625q0 -1.40625 0.515625 -2.59375q0.515625 -1.203125 1.484375 -1.84375q0.96875 -0.65625 2.265625 -0.65625q1.75 0 2.875 1.40625l0 -1.1875l1.546875 0l0 8.515625q0 2.3125 -0.46875 3.265625q-0.46875 0.96875 -1.484375 1.515625q-1.015625 0.5625 -2.5 0.5625q-1.765625 0 -2.859375 -0.796875q-1.078125 -0.796875 -1.03125 -2.390625zm1.375 -5.921875q0 1.953125 0.765625 2.84375q0.78125 0.890625 1.9375 0.890625q1.140625 0 1.921875 -0.890625q0.78125 -0.890625 0.78125 -2.78125q0 -1.8125 -0.8125 -2.71875q-0.796875 -0.921875 -1.921875 -0.921875q-1.109375 0 -1.890625 0.90625q-0.78125 0.890625 -0.78125 2.671875zm20.309021 5.109375l-1.671875 0l0 -10.640625q-0.59375 0.578125 -1.578125 1.15625q-0.984375 0.5625 -1.765625 0.859375l0 -1.625q1.40625 -0.65625 2.453125 -1.59375q1.046875 -0.9375 1.484375 -1.8125l1.078125 0l0 13.65625z" fill-rule="nonzero"></path><path fill="#cc0000" d="m338.37564 146.75328l0 0c0 -20.317123 42.17688 -36.7874 94.20471 -36.7874l0 0c52.027832 0 94.20474 16.470276 94.20474 36.7874l0 0c0 20.317123 -42.17691 36.7874 -94.20474 36.7874l0 0c-52.027832 0 -94.20471 -16.470276 -94.20471 -36.7874z" fill-rule="evenodd"></path><path stroke="#000000" stroke-width="1.0" stroke-linejoin="round" stroke-linecap="butt" d="m338.37564 146.75328l0 0c0 -20.317123 42.17688 -36.7874 94.20471 -36.7874l0 0c52.027832 0 94.20474 16.470276 94.20474 36.7874l0 0c0 20.317123 -42.17691 36.7874 -94.20474 36.7874l0 0c-52.027832 0 -94.20471 -16.470276 -94.20471 -36.7874z" fill-rule="evenodd"></path><path fill="#000000" fill-opacity="0.0" d="m338.37564 121.5569l188.40945 0l0 50.393692l-188.40945 0z" fill-rule="evenodd"></path><path fill="#ffffff" d="m355.94504 148.4769l0 -8.546875l-1.484375 0l0 -1.3125l1.484375 0l0 -1.046875q0 -0.984375 0.171875 -1.46875q0.234375 -0.65625 0.84375 -1.046875q0.609375 -0.40625 1.703125 -0.40625q0.703125 0 1.5625 0.15625l-0.25 1.46875q-0.515625 -0.09375 -0.984375 -0.09375q-0.765625 0 -1.078125 0.328125q-0.3125 0.3125 -0.3125 1.203125l0 0.90625l1.921875 0l0 1.3125l-1.921875 0l0 8.546875l-1.65625 0zm11.230164 0l0 -1.453125q-1.140625 1.671875 -3.125 1.671875q-0.859375 0 -1.625 -0.328125q-0.75 -0.34375 -1.125 -0.84375q-0.359375 -0.5 -0.515625 -1.234375q-0.09375 -0.5 -0.09375 -1.5625l0 -6.109375l1.671875 0l0 5.46875q0 1.3125 0.09375 1.765625q0.15625 0.65625 0.671875 1.03125q0.515625 0.375 1.265625 0.375q0.75 0 1.40625 -0.375q0.65625 -0.390625 0.921875 -1.046875q0.28125 -0.671875 0.28125 -1.9375l0 -5.28125l1.671875 0l0 9.859375l-1.5 0zm3.9226074 0l0 -9.859375l1.5 0l0 1.40625q1.09375 -1.625 3.140625 -1.625q0.890625 0 1.640625 0.328125q0.75 0.3125 1.109375 0.84375q0.375 0.515625 0.53125 1.21875q0.09375 0.46875 0.09375 1.625l0 6.0625l-1.671875 0l0 -6.0q0 -1.015625 -0.203125 -1.515625q-0.1875 -0.515625 -0.6875 -0.8125q-0.5 -0.296875 -1.171875 -0.296875q-1.0625 0 -1.84375 0.671875q-0.765625 0.671875 -0.765625 2.578125l0 5.375l-1.671875 0zm16.813202 -3.609375l1.640625 0.21875q-0.265625 1.6875 -1.375 2.65625q-1.109375 0.953125 -2.734375 0.953125q-2.015625 0 -3.25 -1.3125q-1.21875 -1.328125 -1.21875 -3.796875q0 -1.59375 0.515625 -2.78125q0.53125 -1.203125 1.609375 -1.796875q1.09375 -0.609375 2.359375 -0.609375q1.609375 0 2.625 0.8125q1.015625 0.8125 1.3125 2.3125l-1.625 0.25q-0.234375 -1.0 -0.828125 -1.5q-0.59375 -0.5 -1.421875 -0.5q-1.265625 0 -2.0625 0.90625q-0.78125 0.90625 -0.78125 2.859375q0 1.984375 0.765625 2.890625q0.765625 0.890625 1.984375 0.890625q0.984375 0 1.640625 -0.59375q0.65625 -0.609375 0.84375 -1.859375zm6.546875 2.109375l0.234375 1.484375q-0.703125 0.140625 -1.265625 0.140625q-0.90625 0 -1.40625 -0.28125q-0.5 -0.296875 -0.703125 -0.75q-0.203125 -0.46875 -0.203125 -1.984375l0 -5.65625l-1.234375 0l0 -1.3125l1.234375 0l0 -2.4375l1.65625 -1.0l0 3.4375l1.6875 0l0 1.3125l-1.6875 0l0 5.75q0 0.71875 0.078125 0.921875q0.09375 0.203125 0.296875 0.328125q0.203125 0.125 0.578125 0.125q0.265625 0 0.734375 -0.078125zm1.5426941 -10.1875l0 -1.90625l1.671875 0l0 1.90625l-1.671875 0zm0 11.6875l0 -9.859375l1.671875 0l0 9.859375l-1.671875 0zm3.504181 -4.921875q0 -2.734375 1.53125 -4.0625q1.265625 -1.09375 3.09375 -1.09375q2.03125 0 3.3125 1.34375q1.296875 1.328125 1.296875 3.671875q0 1.90625 -0.578125 3.0q-0.5625 1.078125 -1.65625 1.6875q-1.078125 0.59375 -2.375 0.59375q-2.0625 0 -3.34375 -1.328125q-1.28125 -1.328125 -1.28125 -3.8125zm1.71875 0q0 1.890625 0.828125 2.828125q0.828125 0.9375 2.078125 0.9375q1.25 0 2.0625 -0.9375q0.828125 -0.953125 0.828125 -2.890625q0 -1.828125 -0.828125 -2.765625q-0.828125 -0.9375 -2.0625 -0.9375q-1.25 0 -2.078125 0.9375q-0.828125 0.9375 -0.828125 2.828125zm9.281982 4.921875l0 -9.859375l1.5 0l0 1.40625q1.09375 -1.625 3.140625 -1.625q0.890625 0 1.640625 0.328125q0.75 0.3125 1.109375 0.84375q0.375 0.515625 0.53125 1.21875q0.09375 0.46875 0.09375 1.625l0 6.0625l-1.671875 0l0 -6.0q0 -1.015625 -0.203125 -1.515625q-0.1875 -0.515625 -0.6875 -0.8125q-0.5 -0.296875 -1.171875 -0.296875q-1.0625 0 -1.84375 0.671875q-0.765625 0.671875 -0.765625 2.578125l0 5.375l-1.671875 0zm13.563202 4.0q-1.375 -1.75 -2.328125 -4.078125q-0.953125 -2.34375 -0.953125 -4.84375q0 -2.21875 0.703125 -4.234375q0.84375 -2.34375 2.578125 -4.671875l1.203125 0q-1.125 1.921875 -1.484375 2.75q-0.5625 1.28125 -0.890625 2.671875q-0.40625 1.734375 -0.40625 3.484375q0 4.46875 2.78125 8.921875l-1.203125 0zm9.462677 -5.21875q-0.9375 0.796875 -1.796875 1.125q-0.859375 0.3125 -1.84375 0.3125q-1.609375 0 -2.484375 -0.78125q-0.875 -0.796875 -0.875 -2.03125q0 -0.734375 0.328125 -1.328125q0.328125 -0.59375 0.859375 -0.953125q0.53125 -0.359375 1.203125 -0.546875q0.5 -0.140625 1.484375 -0.25q2.03125 -0.25 2.984375 -0.578125q0 -0.34375 0 -0.4375q0 -1.015625 -0.46875 -1.4375q-0.640625 -0.5625 -1.90625 -0.5625q-1.171875 0 -1.734375 0.40625q-0.5625 0.40625 -0.828125 1.46875l-1.640625 -0.234375q0.234375 -1.046875 0.734375 -1.6875q0.515625 -0.640625 1.46875 -0.984375q0.96875 -0.359375 2.25 -0.359375q1.265625 0 2.046875 0.296875q0.78125 0.296875 1.15625 0.75q0.375 0.453125 0.515625 1.140625q0.09375 0.421875 0.09375 1.53125l0 2.234375q0 2.328125 0.09375 2.953125q0.109375 0.609375 0.4375 1.171875l-1.75 0q-0.265625 -0.515625 -0.328125 -1.21875zm-0.140625 -3.71875q-0.90625 0.359375 -2.734375 0.625q-1.03125 0.140625 -1.453125 0.328125q-0.421875 0.1875 -0.65625 0.546875q-0.234375 0.359375 -0.234375 0.796875q0 0.671875 0.5 1.125q0.515625 0.4375 1.484375 0.4375q0.96875 0 1.71875 -0.421875q0.75 -0.4375 1.109375 -1.15625q0.265625 -0.578125 0.265625 -1.671875l0 -0.609375zm4.0632324 4.9375l0 -9.859375l1.5 0l0 1.5q0.578125 -1.046875 1.0625 -1.375q0.484375 -0.34375 1.078125 -0.34375q0.84375 0 1.71875 0.546875l-0.578125 1.546875q-0.609375 -0.359375 -1.234375 -0.359375q-0.546875 0 -0.984375 0.328125q-0.421875 0.328125 -0.609375 0.90625q-0.28125 0.890625 -0.28125 1.953125l0 5.15625l-1.671875 0zm5.931427 0.8125l1.609375 0.25q0.109375 0.75 0.578125 1.09375q0.609375 0.453125 1.6875 0.453125q1.171875 0 1.796875 -0.46875q0.625 -0.453125 0.859375 -1.28125q0.125 -0.515625 0.109375 -2.15625q-1.09375 1.296875 -2.71875 1.296875q-2.03125 0 -3.15625 -1.46875q-1.109375 -1.46875 -1.109375 -3.515625q0 -1.40625 0.515625 -2.59375q0.515625 -1.203125 1.484375 -1.84375q0.96875 -0.65625 2.265625 -0.65625q1.75 0 2.875 1.40625l0 -1.1875l1.546875 0l0 8.515625q0 2.3125 -0.46875 3.265625q-0.46875 0.96875 -1.484375 1.515625q-1.015625 0.5625 -2.5 0.5625q-1.765625 0 -2.859375 -0.796875q-1.078125 -0.796875 -1.03125 -2.390625zm1.375 -5.921875q0 1.953125 0.765625 2.84375q0.78125 0.890625 1.9375 0.890625q1.140625 0 1.921875 -0.890625q0.78125 -0.890625 0.78125 -2.78125q0 -1.8125 -0.8125 -2.71875q-0.796875 -0.921875 -1.921875 -0.921875q-1.109375 0 -1.890625 0.90625q-0.78125 0.890625 -0.78125 2.671875zm15.750702 5.109375l0 -1.453125q-1.140625 1.671875 -3.125 1.671875q-0.859375 0 -1.625 -0.328125q-0.75 -0.34375 -1.125 -0.84375q-0.359375 -0.5 -0.515625 -1.234375q-0.09375 -0.5 -0.09375 -1.5625l0 -6.109375l1.671875 0l0 5.46875q0 1.3125 0.09375 1.765625q0.15625 0.65625 0.671875 1.03125q0.515625 0.375 1.265625 0.375q0.75 0 1.40625 -0.375q0.65625 -0.390625 0.921875 -1.046875q0.28125 -0.671875 0.28125 -1.9375l0 -5.28125l1.671875 0l0 9.859375l-1.5 0zm3.9226074 0l0 -9.859375l1.5 0l0 1.390625q0.453125 -0.71875 1.21875 -1.15625q0.78125 -0.453125 1.765625 -0.453125q1.09375 0 1.796875 0.453125q0.703125 0.453125 0.984375 1.28125q1.171875 -1.734375 3.046875 -1.734375q1.46875 0 2.25 0.8125q0.796875 0.8125 0.796875 2.5l0 6.765625l-1.671875 0l0 -6.203125q0 -1.0 -0.15625 -1.4375q-0.15625 -0.453125 -0.59375 -0.71875q-0.421875 -0.265625 -1.0 -0.265625q-1.03125 0 -1.71875 0.6875q-0.6875 0.6875 -0.6875 2.21875l0 5.71875l-1.671875 0l0 -6.40625q0 -1.109375 -0.40625 -1.65625q-0.40625 -0.5625 -1.34375 -0.5625q-0.703125 0 -1.3125 0.375q-0.59375 0.359375 -0.859375 1.078125q-0.265625 0.71875 -0.265625 2.0625l0 5.109375l-1.671875 0zm22.290802 -3.171875l1.71875 0.21875q-0.40625 1.5 -1.515625 2.34375q-1.09375 0.828125 -2.8125 0.828125q-2.15625 0 -3.421875 -1.328125q-1.265625 -1.328125 -1.265625 -3.734375q0 -2.484375 1.265625 -3.859375q1.28125 -1.375 3.328125 -1.375q1.984375 0 3.234375 1.34375q1.25 1.34375 1.25 3.796875q0 0.140625 -0.015625 0.4375l-7.34375 0q0.09375 1.625 0.921875 2.484375q0.828125 0.859375 2.0625 0.859375q0.90625 0 1.546875 -0.46875q0.65625 -0.484375 1.046875 -1.546875zm-5.484375 -2.703125l5.5 0q-0.109375 -1.234375 -0.625 -1.859375q-0.796875 -0.96875 -2.078125 -0.96875q-1.140625 0 -1.9375 0.78125q-0.78125 0.765625 -0.859375 2.046875zm9.110107 5.875l0 -9.859375l1.5 0l0 1.40625q1.09375 -1.625 3.140625 -1.625q0.890625 0 1.640625 0.328125q0.75 0.3125 1.109375 0.84375q0.375 0.515625 0.53125 1.21875q0.09375 0.46875 0.09375 1.625l0 6.0625l-1.671875 0l0 -6.0q0 -1.015625 -0.203125 -1.515625q-0.1875 -0.515625 -0.6875 -0.8125q-0.5 -0.296875 -1.171875 -0.296875q-1.0625 0 -1.84375 0.671875q-0.765625 0.671875 -0.765625 2.578125l0 5.375l-1.671875 0zm14.031952 -1.5l0.234375 1.484375q-0.703125 0.140625 -1.265625 0.140625q-0.90625 0 -1.40625 -0.28125q-0.5 -0.296875 -0.703125 -0.75q-0.203125 -0.46875 -0.203125 -1.984375l0 -5.65625l-1.234375 0l0 -1.3125l1.234375 0l0 -2.4375l1.65625 -1.0l0 3.4375l1.6875 0l0 1.3125l-1.6875 0l0 5.75q0 0.71875 0.078125 0.921875q0.09375 0.203125 0.296875 0.328125q0.203125 0.125 0.578125 0.125q0.265625 0 0.734375 -0.078125zm2.620819 5.5l-1.1875 0q2.765625 -4.453125 2.765625 -8.921875q0 -1.734375 -0.390625 -3.453125q-0.328125 -1.390625 -0.890625 -2.671875q-0.359375 -0.84375 -1.484375 -2.78125l1.1875 0q1.75 2.328125 2.578125 4.671875q0.71875 2.015625 0.71875 4.234375q0 2.5 -0.96875 4.84375q-0.953125 2.328125 -2.328125 4.078125z" fill-rule="nonzero"></path><path fill="#000000" fill-opacity="0.0" d="m174.22966 73.17895c41.036087 0 61.55249 18.3937 82.07216 36.7874c20.519714 18.3937 41.042664 36.787407 82.08533 36.787407" fill-rule="evenodd"></path><path stroke="#000000" stroke-width="1.0" stroke-linejoin="round" stroke-linecap="butt" d="m174.22966 73.17895c41.036087 0 61.55249 18.3937 82.07216 36.7874c20.519714 18.3937 41.042664 36.787407 82.08533 36.787407" fill-rule="evenodd"></path><path fill="#000000" fill-opacity="0.0" d="m174.22966 220.32855c41.036087 0 61.55249 -18.393707 82.07216 -36.7874c20.519714 -18.393707 41.042664 -36.7874 82.08533 -36.7874" fill-rule="evenodd"></path><path stroke="#000000" stroke-width="1.0" stroke-linejoin="round" stroke-linecap="butt" d="m174.22966 220.32855c41.036087 0 61.55249 -18.393707 82.07216 -36.7874c20.519714 -18.393707 41.042664 -36.7874 82.08533 -36.7874" fill-rule="evenodd"></path><path fill="#000000" fill-opacity="0.0" d="m174.22966 146.75375c41.036087 0 61.55249 0.01574707 82.07216 0.03149414c20.519714 0.01574707 41.042664 0.03149414 82.08533 0.03149414" fill-rule="evenodd"></path><path stroke="#000000" stroke-width="1.0" stroke-linejoin="round" stroke-linecap="butt" d="m174.22966 146.75375c41.036087 0 61.55249 0.01574707 82.07219 0.03149414c10.259827 0.007873535 20.520508 0.01574707 33.346527 0.021652222c6.413025 0.002960205 13.467377 0.00541687 21.483643 0.0071411133l21.255127 0.002105713" fill-rule="evenodd"></path><path fill="#000000" stroke="#000000" stroke-width="1.0" stroke-linecap="butt" d="m332.38696 148.46788l4.538269 -1.6512756l-4.5379333 -1.6521912z" fill-rule="evenodd"></path><path fill="#cc0000" d="m21.097414 367.4777l0 0c0 -20.317108 42.176895 -36.787415 94.20473 -36.787415l0 0c52.027832 0 94.20473 16.470306 94.20473 36.787415l0 0c0 20.317108 -42.176895 36.787415 -94.20473 36.787415l0 0c-52.027832 0 -94.20473 -16.470306 -94.20473 -36.787415z" fill-rule="evenodd"></path><path stroke="#000000" stroke-width="1.0" stroke-linejoin="round" stroke-linecap="butt" d="m21.097414 367.4777l0 0c0 -20.317108 42.176895 -36.787415 94.20473 -36.787415l0 0c52.027832 0 94.20473 16.470306 94.20473 36.787415l0 0c0 20.317108 -42.176895 36.787415 -94.20473 36.787415l0 0c-52.027832 0 -94.20473 -16.470306 -94.20473 -36.787415z" fill-rule="evenodd"></path><path fill="#000000" fill-opacity="0.0" d="m21.097416 342.2813l188.40945 0l0 50.393707l-188.40945 0z" fill-rule="evenodd"></path><path fill="#ffffff" d="m36.5853 369.2013l0 -8.546875l-1.484375 0l0 -1.3125l1.484375 0l0 -1.046875q0 -0.984375 0.171875 -1.46875q0.234375 -0.65625 0.84375 -1.046875q0.609375 -0.40625 1.703125 -0.40625q0.703125 0 1.5625 0.15625l-0.25 1.46875q-0.515625 -0.09375 -0.984375 -0.09375q-0.765625 0 -1.078125 0.328125q-0.3125 0.3125 -0.3125 1.203125l0 0.90625l1.921875 0l0 1.3125l-1.921875 0l0 8.546875l-1.65625 0zm11.230179 0l0 -1.453125q-1.140625 1.671875 -3.125 1.671875q-0.859375 0 -1.625 -0.328125q-0.75 -0.34375 -1.125 -0.84375q-0.359375 -0.5 -0.515625 -1.234375q-0.09375 -0.5 -0.09375 -1.5625l0 -6.109375l1.671875 0l0 5.46875q0 1.3125 0.09375 1.765625q0.15625 0.65625 0.671875 1.03125q0.515625 0.375 1.265625 0.375q0.75 0 1.40625 -0.375q0.65625 -0.390625 0.921875 -1.046875q0.28125 -0.671875 0.28125 -1.9375l0 -5.28125l1.671875 0l0 9.859375l-1.5 0zm3.9225922 0l0 -9.859375l1.5 0l0 1.40625q1.09375 -1.625 3.140625 -1.625q0.890625 0 1.640625 0.328125q0.75 0.3125 1.109375 0.84375q0.375 0.515625 0.53125 1.21875q0.09375 0.46875 0.09375 1.625l0 6.0625l-1.671875 0l0 -6.0q0 -1.015625 -0.203125 -1.515625q-0.1875 -0.515625 -0.6875 -0.8125q-0.5 -0.296875 -1.171875 -0.296875q-1.0625 0 -1.84375 0.671875q-0.765625 0.671875 -0.765625 2.578125l0 5.375l-1.671875 0zm16.813213 -3.609375l1.640625 0.21875q-0.265625 1.6875 -1.375 2.65625q-1.109375 0.953125 -2.734375 0.953125q-2.015625 0 -3.2499962 -1.3125q-1.21875 -1.328125 -1.21875 -3.796875q0 -1.59375 0.515625 -2.78125q0.53125 -1.203125 1.609375 -1.796875q1.0937462 -0.609375 2.3593712 -0.609375q1.609375 0 2.625 0.8125q1.015625 0.8125 1.3125 2.3125l-1.625 0.25q-0.234375 -1.0 -0.828125 -1.5q-0.59375 -0.5 -1.421875 -0.5q-1.265625 0 -2.0625 0.90625q-0.7812462 0.90625 -0.7812462 2.859375q0 1.984375 0.7656212 2.890625q0.765625 0.890625 1.984375 0.890625q0.984375 0 1.640625 -0.59375q0.65625 -0.609375 0.84375 -1.859375zm6.546875 2.109375l0.234375 1.484375q-0.703125 0.140625 -1.265625 0.140625q-0.90625 0 -1.40625 -0.28125q-0.5 -0.296875 -0.703125 -0.75q-0.203125 -0.46875 -0.203125 -1.984375l0 -5.65625l-1.234375 0l0 -1.3125l1.234375 0l0 -2.4375l1.65625 -1.0l0 3.4375l1.6875 0l0 1.3125l-1.6875 0l0 5.75q0 0.71875 0.078125 0.921875q0.09375 0.203125 0.296875 0.328125q0.203125 0.125 0.578125 0.125q0.265625 0 0.734375 -0.078125zm1.5426788 -10.1875l0 -1.90625l1.671875 0l0 1.90625l-1.671875 0zm0 11.6875l0 -9.859375l1.671875 0l0 9.859375l-1.671875 0zm3.5041962 -4.921875q0 -2.734375 1.53125 -4.0625q1.265625 -1.09375 3.09375 -1.09375q2.03125 0 3.3125 1.34375q1.296875 1.328125 1.296875 3.671875q0 1.90625 -0.578125 3.0q-0.5625 1.078125 -1.65625 1.6875q-1.078125 0.59375 -2.375 0.59375q-2.0625 0 -3.34375 -1.328125q-1.28125 -1.328125 -1.28125 -3.8125zm1.71875 0q0 1.890625 0.828125 2.828125q0.828125 0.9375 2.078125 0.9375q1.25 0 2.0625 -0.9375q0.828125 -0.953125 0.828125 -2.890625q0 -1.828125 -0.828125 -2.765625q-0.828125 -0.9375 -2.0625 -0.9375q-1.25 0 -2.078125 0.9375q-0.828125 0.9375 -0.828125 2.828125zm9.281967 4.921875l0 -9.859375l1.5 0l0 1.40625q1.09375 -1.625 3.140625 -1.625q0.890625 0 1.640625 0.328125q0.75 0.3125 1.109375 0.84375q0.375 0.515625 0.53125 1.21875q0.09375 0.46875 0.09375 1.625l0 6.0625l-1.671875 0l0 -6.0q0 -1.015625 -0.203125 -1.515625q-0.1875 -0.515625 -0.6875 -0.8125q-0.5 -0.296875 -1.171875 -0.296875q-1.0625 0 -1.84375 0.671875q-0.765625 0.671875 -0.765625 2.578125l0 5.375l-1.671875 0zm13.563217 4.0q-1.375 -1.75 -2.328125 -4.078125q-0.953125 -2.34375 -0.953125 -4.84375q0 -2.21875 0.703125 -4.234375q0.84375 -2.34375 2.578125 -4.671875l1.203125 0q-1.125 1.921875 -1.484375 2.75q-0.5625 1.28125 -0.890625 2.671875q-0.40625 1.734375 -0.40625 3.484375q0 4.46875 2.78125 8.921875l-1.203125 0zm2.947052 -0.203125l-0.171875 -1.5625q0.546875 0.140625 0.953125 0.140625q0.546875 0 0.875 -0.1875q0.34375 -0.1875 0.5625 -0.515625q0.15625 -0.25 0.5 -1.25q0.046875 -0.140625 0.15625 -0.40625l-3.734375 -9.875l1.796875 0l2.046875 5.71875q0.40625 1.078125 0.71875 2.28125q0.28125 -1.15625 0.6875 -2.25l2.09375 -5.75l1.671875 0l-3.75 10.03125q-0.59375 1.625 -0.9375 2.234375q-0.4375 0.828125 -1.015625 1.203125q-0.578125 0.390625 -1.375 0.390625q-0.484375 0 -1.078125 -0.203125zm8.78125 -8.71875q0 -2.734375 1.53125 -4.0625q1.265625 -1.09375 3.09375 -1.09375q2.03125 0 3.3125 1.34375q1.296875 1.328125 1.296875 3.671875q0 1.90625 -0.578125 3.0q-0.5625 1.078125 -1.65625 1.6875q-1.078125 0.59375 -2.375 0.59375q-2.0625 0 -3.34375 -1.328125q-1.28125 -1.328125 -1.28125 -3.8125zm1.71875 0q0 1.890625 0.828125 2.828125q0.828125 0.9375 2.078125 0.9375q1.25 0 2.0625 -0.9375q0.828125 -0.953125 0.828125 -2.890625q0 -1.828125 -0.828125 -2.765625q-0.828125 -0.9375 -2.0625 -0.9375q-1.25 0 -2.078125 0.9375q-0.828125 0.9375 -0.828125 2.828125zm15.735092 4.921875l0 -1.453125q-1.140625 1.671875 -3.125 1.671875q-0.859375 0 -1.625 -0.328125q-0.75 -0.34375 -1.125 -0.84375q-0.359375 -0.5 -0.515625 -1.234375q-0.09375 -0.5 -0.09375 -1.5625l0 -6.109375l1.671875 0l0 5.46875q0 1.3125 0.09375 1.765625q0.15625 0.65625 0.671875 1.03125q0.515625 0.375 1.265625 0.375q0.75 0 1.40625 -0.375q0.65625 -0.390625 0.921875 -1.046875q0.28125 -0.671875 0.28125 -1.9375l0 -5.28125l1.671875 0l0 9.859375l-1.5 0zm3.9069672 0l0 -9.859375l1.5 0l0 1.5q0.578125 -1.046875 1.0625 -1.375q0.484375 -0.34375 1.078125 -0.34375q0.84375 0 1.71875 0.546875l-0.578125 1.546875q-0.609375 -0.359375 -1.234375 -0.359375q-0.546875 0 -0.984375 0.328125q-0.421875 0.328125 -0.609375 0.90625q-0.28125 0.890625 -0.28125 1.953125l0 5.15625l-1.671875 0zm4.697052 3.78125l0 -1.21875l11.0625 0l0 1.21875l-11.0625 0zm18.297592 -3.78125l0 -1.25q-0.9375 1.46875 -2.75 1.46875q-1.171875 0 -2.171875 -0.640625q-0.984375 -0.65625 -1.53125 -1.8125q-0.53125 -1.171875 -0.53125 -2.6875q0 -1.46875 0.484375 -2.671875q0.5 -1.203125 1.46875 -1.84375q0.984375 -0.640625 2.203125 -0.640625q0.890625 0 1.578125 0.375q0.703125 0.375 1.140625 0.984375l0 -4.875l1.65625 0l0 13.59375l-1.546875 0zm-5.28125 -4.921875q0 1.890625 0.796875 2.828125q0.8125 0.9375 1.890625 0.9375q1.09375 0 1.859375 -0.890625q0.765625 -0.890625 0.765625 -2.734375q0 -2.015625 -0.78125 -2.953125q-0.78125 -0.953125 -1.921875 -0.953125q-1.109375 0 -1.859375 0.90625q-0.75 0.90625 -0.75 2.859375zm15.703842 3.703125q-0.9375 0.796875 -1.796875 1.125q-0.859375 0.3125 -1.84375 0.3125q-1.609375 0 -2.484375 -0.78125q-0.875 -0.796875 -0.875 -2.03125q0 -0.734375 0.328125 -1.328125q0.328125 -0.59375 0.859375 -0.953125q0.53125 -0.359375 1.203125 -0.546875q0.5 -0.140625 1.484375 -0.25q2.03125 -0.25 2.984375 -0.578125q0 -0.34375 0 -0.4375q0 -1.015625 -0.46875 -1.4375q-0.640625 -0.5625 -1.90625 -0.5625q-1.171875 0 -1.734375 0.40625q-0.5625 0.40625 -0.828125 1.46875l-1.640625 -0.234375q0.234375 -1.046875 0.734375 -1.6875q0.515625 -0.640625 1.46875 -0.984375q0.96875 -0.359375 2.25 -0.359375q1.265625 0 2.046875 0.296875q0.78125 0.296875 1.15625 0.75q0.375 0.453125 0.515625 1.140625q0.09375 0.421875 0.09375 1.53125l0 2.234375q0 2.328125 0.09375 2.953125q0.109375 0.609375 0.4375 1.171875l-1.75 0q-0.265625 -0.515625 -0.328125 -1.21875zm-0.140625 -3.71875q-0.90625 0.359375 -2.734375 0.625q-1.03125 0.140625 -1.453125 0.328125q-0.421875 0.1875 -0.65625 0.546875q-0.234375 0.359375 -0.234375 0.796875q0 0.671875 0.5 1.125q0.515625 0.4375 1.484375 0.4375q0.96875 0 1.71875 -0.421875q0.75 -0.4375 1.109375 -1.15625q0.265625 -0.578125 0.265625 -1.671875l0 -0.609375zm7.735092 3.4375l0.234375 1.484375q-0.703125 0.140625 -1.265625 0.140625q-0.90625 0 -1.40625 -0.28125q-0.5 -0.296875 -0.703125 -0.75q-0.203125 -0.46875 -0.203125 -1.984375l0 -5.65625l-1.234375 0l0 -1.3125l1.234375 0l0 -2.4375l1.65625 -1.0l0 3.4375l1.6875 0l0 1.3125l-1.6875 0l0 5.75q0 0.71875 0.078125 0.921875q0.09375 0.203125 0.296875 0.328125q0.203125 0.125 0.578125 0.125q0.265625 0 0.734375 -0.078125zm7.964554 0.28125q-0.9375 0.796875 -1.796875 1.125q-0.859375 0.3125 -1.84375 0.3125q-1.609375 0 -2.484375 -0.78125q-0.875 -0.796875 -0.875 -2.03125q0 -0.734375 0.328125 -1.328125q0.328125 -0.59375 0.859375 -0.953125q0.53125 -0.359375 1.203125 -0.546875q0.5 -0.140625 1.484375 -0.25q2.03125 -0.25 2.984375 -0.578125q0 -0.34375 0 -0.4375q0 -1.015625 -0.46875 -1.4375q-0.640625 -0.5625 -1.90625 -0.5625q-1.171875 0 -1.734375 0.40625q-0.5625 0.40625 -0.828125 1.46875l-1.640625 -0.234375q0.234375 -1.046875 0.734375 -1.6875q0.515625 -0.640625 1.46875 -0.984375q0.96875 -0.359375 2.25 -0.359375q1.265625 0 2.046875 0.296875q0.78125 0.296875 1.15625 0.75q0.375 0.453125 0.515625 1.140625q0.09375 0.421875 0.09375 1.53125l0 2.234375q0 2.328125 0.09375 2.953125q0.109375 0.609375 0.4375 1.171875l-1.75 0q-0.265625 -0.515625 -0.328125 -1.21875zm-0.140625 -3.71875q-0.90625 0.359375 -2.734375 0.625q-1.03125 0.140625 -1.453125 0.328125q-0.421875 0.1875 -0.65625 0.546875q-0.234375 0.359375 -0.234375 0.796875q0 0.671875 0.5 1.125q0.515625 0.4375 1.484375 0.4375q0.96875 0 1.71875 -0.421875q0.75 -0.4375 1.109375 -1.15625q0.265625 -0.578125 0.265625 -1.671875l0 -0.609375zm5.172592 8.9375l-1.1875 0q2.765625 -4.453125 2.765625 -8.921875q0 -1.734375 -0.390625 -3.453125q-0.328125 -1.390625 -0.890625 -2.671875q-0.359375 -0.84375 -1.484375 -2.78125l1.1875 0q1.75 2.328125 2.578125 4.671875q0.71875 2.015625 0.71875 4.234375q0 2.5 -0.96875 4.84375q-0.953125 2.328125 -2.328125 4.078125z" fill-rule="nonzero"></path><path fill="#000000" fill-opacity="0.0" d="m323.09317 342.2813l153.13385 0l0 50.393707l-153.13385 0z" fill-rule="evenodd"></path><path fill="#980000" d="m350.0854 369.2013l-2.984375 0l-1.1875 -3.09375l-5.4375 0l-1.125 3.09375l-2.90625 0l5.296875 -13.59375l2.90625 0l5.4375 13.59375zm-5.046875 -5.375l-1.875 -5.046875l-1.84375 5.046875l3.71875 0z" fill-rule="nonzero"></path><path fill="#ff0000" d="m351.27707 355.60754l2.75 0l0 7.359375q0 1.75 0.109375 2.265625q0.171875 0.84375 0.828125 1.359375q0.671875 0.5 1.8125 0.5q1.171875 0 1.765625 -0.484375q0.59375 -0.484375 0.71875 -1.171875q0.125 -0.703125 0.125 -2.3125l0 -7.515625l2.734375 0l0 7.140625q0 2.4375 -0.21875 3.453125q-0.21875 1.015625 -0.828125 1.71875q-0.59375 0.6875 -1.59375 1.109375q-1.0 0.40625 -2.609375 0.40625q-1.953125 0 -2.96875 -0.453125q-1.0 -0.453125 -1.59375 -1.171875q-0.578125 -0.71875 -0.75 -1.5q-0.28125 -1.171875 -0.28125 -3.453125l0 -7.25z" fill-rule="nonzero"></path><path fill="#ff9900" d="m367.82816 369.2013l0 -11.296875l-4.03125 0l0 -2.296875l10.8125 0l0 2.296875l-4.03125 0l0 11.296875l-2.75 0z" fill-rule="nonzero"></path><path fill="#ffff00" d="m375.61475 362.48254q0 -2.078125 0.625 -3.484375q0.453125 -1.046875 1.25 -1.859375q0.8125 -0.828125 1.765625 -1.234375q1.28125 -0.53125 2.9375 -0.53125q3.0 0 4.796875 1.859375q1.8125 1.859375 1.8125 5.1875q0 3.296875 -1.796875 5.15625q-1.78125 1.859375 -4.78125 1.859375q-3.03125 0 -4.828125 -1.84375q-1.78125 -1.859375 -1.78125 -5.109375zm2.828125 -0.09375q0 2.3125 1.0625 3.515625q1.078125 1.1875 2.71875 1.1875q1.640625 0 2.6875 -1.1875q1.046875 -1.1875 1.046875 -3.546875q0 -2.34375 -1.03125 -3.484375q-1.015625 -1.15625 -2.703125 -1.15625q-1.703125 0 -2.75 1.171875q-1.03125 1.15625 -1.03125 3.5z" fill-rule="nonzero"></path><path fill="#00ff00" d="m390.6418 369.2013l0 -13.59375l4.109375 0l2.46875 9.265625l2.4375 -9.265625l4.125 0l0 13.59375l-2.546875 0l0 -10.703125l-2.703125 10.703125l-2.640625 0l-2.703125 -10.703125l0 10.703125l-2.546875 0z" fill-rule="nonzero"></path><path fill="#00ffff" d="m418.4795 369.2013l-2.984375 0l-1.1875 -3.09375l-5.4375 0l-1.125 3.09375l-2.90625 0l5.296875 -13.59375l2.90625 0l5.4375 13.59375zm-5.046875 -5.375l-1.875 -5.046875l-1.84375 5.046875l3.71875 0z" fill-rule="nonzero"></path><path fill="#4a86e8" d="m422.7493 369.2013l0 -11.296875l-4.03125 0l0 -2.296875l10.8125 0l0 2.296875l-4.03125 0l0 11.296875l-2.75 0z" fill-rule="nonzero"></path><path fill="#0000ff" d="m431.00467 369.2013l0 -13.59375l2.75 0l0 13.59375l-2.75 0z" fill-rule="nonzero"></path><path fill="#9900ff" d="m435.7192 362.48254q0 -2.078125 0.625 -3.484375q0.453125 -1.046875 1.25 -1.859375q0.8125 -0.828125 1.765625 -1.234375q1.28125 -0.53125 2.9375 -0.53125q3.0 0 4.796875 1.859375q1.8125 1.859375 1.8125 5.1875q0 3.296875 -1.796875 5.15625q-1.78125 1.859375 -4.78125 1.859375q-3.03125 0 -4.828125 -1.84375q-1.78125 -1.859375 -1.78125 -5.109375zm2.828125 -0.09375q0 2.3125 1.0625 3.515625q1.078125 1.1875 2.71875 1.1875q1.640625 0 2.6875 -1.1875q1.046875 -1.1875 1.046875 -3.546875q0 -2.34375 -1.03125 -3.484375q-1.015625 -1.15625 -2.703125 -1.15625q-1.703125 0 -2.75 1.171875q-1.03125 1.15625 -1.03125 3.5z" fill-rule="nonzero"></path><path fill="#ff00ff" d="m450.80878 369.2013l0 -13.59375l2.671875 0l5.578125 9.078125l0 -9.078125l2.546875 0l0 13.59375l-2.765625 0l-5.46875 -8.875l0 8.875l-2.5625 0z" fill-rule="nonzero"></path><path fill="#000000" fill-opacity="0.0" d="m209.50687 367.47815l113.5748 0" fill-rule="evenodd"></path><path stroke="#000000" stroke-width="1.0" stroke-linejoin="round" stroke-linecap="butt" d="m209.50687 367.47815l107.5748 0" fill-rule="evenodd"></path><path fill="#000000" stroke="#000000" stroke-width="1.0" stroke-linecap="butt" d="m317.08167 369.12988l4.5381165 -1.6517334l-4.5381165 -1.6517334z" fill-rule="evenodd"></path><path fill="#000000" fill-opacity="0.0" d="m426.1267 329.3888l37.51181 -22.299194l14.740143 24.787384l-37.51181 22.299225z" fill-rule="evenodd"></path><path fill="#000000" d="m443.84192 337.5354l0.40545654 0.4678955q-0.21524048 0.21884155 -0.41671753 0.33859253q-0.3357849 0.19961548 -0.5877075 0.20394897q-0.23849487 -0.0036315918 -0.414917 -0.116882324q-0.17095947 -0.13467407 -0.4984131 -0.68530273l-1.2218933 -2.0547485l-0.4432068 0.26345825l-0.2795105 -0.47003174l0.4432068 -0.26348877l-0.519104 -0.8729248l0.38876343 -0.7218933l0.7347412 1.2355347l0.60440063 -0.35928345l0.2795105 0.47003174l-0.60440063 0.35928345l1.2458496 2.0950623q0.15176392 0.255188 0.22653198 0.3197937q0.08023071 0.043182373 0.17132568 0.043548584q0.09112549 3.6621094E-4 0.22543335 -0.07946777q0.10745239 -0.06387329 0.26065063 -0.17312622zm0.9137573 0.18389893l-2.9309387 -4.9287415l0.60440063 -0.35928345l1.0541687 1.7727356q0.12088013 -0.7444153 0.76556396 -1.127655q0.40292358 -0.23953247 0.78082275 -0.24603271q0.3913269 -0.01449585 0.6799011 0.19567871q0.29403687 0.18875122 0.60549927 0.7124939l1.3417053 2.2562256l-0.60440063 0.35928345l-1.3417053 -2.256195q-0.2715149 -0.45663452 -0.59277344 -0.53829956q-0.31582642 -0.1031189 -0.6784668 0.112457275q-0.26861572 0.15969849 -0.42251587 0.45114136q-0.14846802 0.27001953 -0.11218262 0.57562256q0.041748047 0.2842102 0.29733276 0.71395874l1.1579895 1.9473267l-0.60440063 0.35928345zm1.3088379 -6.5039062l-0.4152832 -0.69833374l0.60440063 -0.35928345l0.4152832 0.69833374l-0.60440063 0.35928345zm2.5156555 4.2304077l-2.1243286 -3.5723267l0.60440063 -0.35928345l2.1243286 3.5723267l-0.60440063 0.35928345zm1.527771 -0.9082031l-2.1243286 -3.5723267l0.53723145 -0.31936646l0.3034973 0.51031494q0.05154419 -0.8304138 0.7902527 -1.2695618q0.32232666 -0.19161987 0.6628418 -0.23043823q0.34048462 -0.03881836 0.5866089 0.069366455q0.24612427 0.108184814 0.4515686 0.33139038q0.13613892 0.13720703 0.39169312 0.5669861l1.3017578 2.1890564l-0.60440063 0.35928345l-1.2937622 -2.1756287q-0.2156372 -0.36260986 -0.40005493 -0.48928833q-0.17895508 -0.1481018 -0.4308777 -0.14376831q-0.24649048 -0.017059326 -0.48825073 0.12664795q-0.37606812 0.22357178 -0.5063782 0.6463928q-0.13827515 0.4093933 0.26901245 1.0943298l1.1579895 1.9473267l-0.60440063 0.35928345zm3.8927612 -1.914154l0.63342285 -0.24932861q0.2000122 0.24465942 0.4465027 0.26171875q0.3187256 0.046844482 0.70822144 -0.18469238q0.42977905 -0.25549316 0.5542908 -0.5658264q0.13250732 -0.296875 0.029418945 -0.6536865q-0.0715332 -0.21194458 -0.4229126 -0.80285645q-0.123413086 0.7095642 -0.714386 1.060852q-0.72528076 0.43115234 -1.4396667 0.14691162q-0.7223816 -0.29766846 -1.1616211 -1.0363159q-0.3034973 -0.51031494 -0.38442993 -1.0438538q-0.075531006 -0.5549927 0.13790894 -0.99087524q0.20547485 -0.44934082 0.68899536 -0.7367554q0.6312561 -0.37527466 1.3376465 -0.10446167l-0.2555542 -0.42974854l0.56411743 -0.33532715l1.8368225 3.0888672q0.4951477 0.8326416 0.52819824 1.285614q0.03302002 0.4529724 -0.20980835 0.8699951q-0.24285889 0.4170227 -0.78009033 0.73638916q-0.64468384 0.38323975 -1.2098999 0.31933594q-0.55722046 -0.05050659 -0.8871765 -0.6359558zm-0.7808533 -2.4442139q0.4232788 0.711792 0.8835449 0.87442017q0.47372437 0.15466309 0.90353394 -0.10083008q0.41635132 -0.24752808 0.5067444 -0.7375183q0.09039307 -0.48995972 -0.31692505 -1.1748962q-0.3913269 -0.65805054 -0.878479 -0.804718q-0.4951477 -0.16009521 -0.8980713 0.079437256q-0.40292358 0.23950195 -0.49331665 0.7294922q-0.09036255 0.48999023 0.29296875 1.134613zm5.5118103 -2.5312805l0.55648804 -0.43984985q0.39749146 0.45443726 0.78845215 0.5310364q0.3909607 0.07662964 0.74017334 -0.13098145q0.42977905 -0.25549316 0.54956055 -0.726593q0.119781494 -0.47109985 -0.1357727 -0.9008484q-0.2475586 -0.41635132 -0.68933105 -0.51727295q-0.43634033 -0.12234497 -0.85269165 0.1251831q-0.17462158 0.10379028 -0.38989258 0.32263184l-0.24429321 -0.5636902q0.06716919 -0.039916992 0.10745239 -0.06387329q0.37606812 -0.22354126 0.56518555 -0.6086426q0.18911743 -0.3850708 -0.058441162 -0.8013916q-0.19967651 -0.3357544 -0.55578613 -0.414917q-0.34265137 -0.087127686 -0.70529175 0.12844849q-0.34921265 0.20761108 -0.4552002 0.57962036q-0.10055542 0.35061646 0.095825195 0.8337097l-0.6682739 0.25186157q-0.25195312 -0.6682129 -0.06210327 -1.2355042q0.20327759 -0.57528687 0.78082275 -0.9186096q0.40292358 -0.23950195 0.8425293 -0.26452637q0.45303345 -0.03302002 0.8033142 0.15866089q0.363739 0.1836853 0.563385 0.5194092q0.19168091 0.32232666 0.17681885 0.69470215q-0.022888184 0.35897827 -0.270813 0.7062988q0.5071106 -0.15603638 0.94055176 0.022583008q0.42544556 0.16516113 0.71295166 0.6486206q0.3833313 0.6446533 0.18478394 1.3807068q-0.20654297 0.72262573 -0.93182373 1.1537781q-0.64468384 0.38323975 -1.3060913 0.24926758q-0.66137695 -0.13397217 -1.082489 -0.7198181z" fill-rule="nonzero"></path><path fill="#000000" fill-opacity="0.0" d="m389.81778 306.41217l36.0 24.661407l-16.314941 23.779541l-36.0 -24.661407z" fill-rule="evenodd"></path><path fill="#000000" d="m389.86127 325.90283l-0.2545166 0.56430054q-0.28912354 -0.10336304 -0.4824829 -0.23583984q-0.32226562 -0.22073364 -0.43200684 -0.44744873q-0.09686279 -0.21786499 -0.068115234 -0.42544556q0.050445557 -0.21166992 0.4128723 -0.7398987l1.352478 -1.971283l-0.42538452 -0.29141235l0.3093872 -0.45092773l0.42538452 0.29141235l0.57458496 -0.8374939l0.8187561 0.04949951l-0.81326294 1.1853638l0.5800781 0.39736938l-0.3093872 0.45092773l-0.5800781 -0.39736938l-1.3789978 2.0099182q-0.16793823 0.24481201 -0.19522095 0.3397827q-0.0055236816 0.090911865 0.032409668 0.17370605q0.03793335 0.08279419 0.1668396 0.17111206q0.1031189 0.07064819 0.2666626 0.1637268zm0.21679688 0.9060974l3.2441711 -4.7284546l0.5800781 0.39736938l-1.1668396 1.7007141q0.7266846 -0.20297241 1.345398 0.22088623q0.38671875 0.26489258 0.5513611 0.60494995q0.17749023 0.34887695 0.10787964 0.6989136q-0.04788208 0.3460083 -0.39263916 0.8484802l-1.4850769 2.1645203l-0.5800476 -0.39736938l1.4850464 -2.1645203q0.30056763 -0.43804932 0.23980713 -0.76379395q-0.039031982 -0.32977295 -0.38708496 -0.56817627q-0.2578125 -0.17660522 -0.58706665 -0.19384766q-0.30752563 -0.021270752 -0.5697632 0.14001465q-0.24050903 0.15719604 -0.52337646 0.5694885l-1.2817688 1.8681946l-0.5800781 -0.39736938zm6.455078 -1.5440063l0.45965576 -0.6699829l0.5800781 0.39736938l-0.45968628 0.6699829l-0.5800476 -0.39736938zm-2.7845154 4.058502l2.3513489 -3.427185l0.5800781 0.39736938l-2.3513489 3.427185l-0.5800781 -0.39736938zm1.4662781 1.0044556l2.3513794 -3.427185l0.5155945 0.35324097l-0.33590698 0.4895935q0.7756653 -0.30200195 1.4846497 0.1836853q0.3093567 0.21191406 0.48760986 0.5044861q0.17825317 0.29257202 0.18341064 0.5612488q0.0051574707 0.26867676 -0.11123657 0.5487976q-0.06741333 0.18112183 -0.35028076 0.5934143l-1.4408875 2.1000977l-0.5800476 -0.39736938l1.4320374 -2.0872192q0.23864746 -0.34786987 0.27624512 -0.5683594q0.059295654 -0.22451782 -0.050445557 -0.4512329q-0.08804321 -0.23074341 -0.32006836 -0.38970947q-0.3609314 -0.24725342 -0.79959106 -0.18786621q-0.42980957 0.046447754 -0.88061523 0.70355225l-1.2817688 1.8681946l-0.5800781 -0.39736938zm3.3729553 2.7272644l0.49243164 0.46990967q-0.13812256 0.2841797 -0.050109863 0.5149231q0.09133911 0.30877686 0.46514893 0.5648804q0.4125061 0.28256226 0.7465515 0.26519775q0.32522583 -0.004486084 0.6058655 -0.24786377q0.16244507 -0.15386963 0.5513916 -0.72076416q-0.69610596 0.18603516 -1.2633057 -0.20251465q-0.69607544 -0.47683716 -0.7380371 -1.2442322q-0.03314209 -0.78030396 0.45306396 -1.4889221q0.33590698 -0.4895935 0.78634644 -0.78707886q0.47216797 -0.3015442 0.9576111 -0.2909851q0.4942627 -0.002319336 0.958313 0.31555176q0.6058655 0.41503906 0.6566467 1.1695557l0.28286743 -0.41229248l0.54141235 0.37088013l-2.033142 2.9633484q-0.5480652 0.7987976 -0.9454651 1.0190125q-0.3973999 0.22018433 -0.87805176 0.17501831q-0.48062134 -0.045166016 -0.99624634 -0.39837646q-0.6187439 -0.42385864 -0.7980957 -0.9634094q-0.18817139 -0.52664185 0.20480347 -1.0718384zm1.8912964 -1.7347107q-0.46847534 0.6828613 -0.42282104 1.1686707q0.058532715 0.49465942 0.47103882 0.7772522q0.39959717 0.27374268 0.8824463 0.14996338q0.48284912 -0.1237793 0.9336853 -0.7808838q0.433136 -0.63131714 0.36169434 -1.1347961q-0.06259155 -0.51638794 -0.4493103 -0.7812805q-0.38671875 -0.2649231 -0.8695679 -0.1411438q-0.48284912 0.1237793 -0.9071655 0.742218zm7.1781006 6.716522l-0.38009644 0.5540161l-3.1195068 -2.136963q0.12854004 -0.21496582 0.33850098 -0.35525513q0.33700562 -0.24261475 0.8069458 -0.37524414q0.48284912 -0.1237793 1.2555847 -0.20050049q1.206543 -0.101501465 1.724762 -0.27682495q0.5270691 -0.1882019 0.7480469 -0.5102844q0.23867798 -0.34786987 0.15286255 -0.7475586q-0.07696533 -0.41259766 -0.4765625 -0.68634033q-0.4125061 -0.28256226 -0.84710693 -0.20150757q-0.4128723 0.07702637 -0.73513794 0.5191345l-0.5487671 -0.47061157q0.5241089 -0.625824 1.162384 -0.6999512q0.63827515 -0.0741272 1.3085938 0.3850708q0.683197 0.46801758 0.8135376 1.1065674q0.14328003 0.6473694 -0.2456665 1.2142639q-0.19448853 0.28344727 -0.49612427 0.47454834q-0.30166626 0.19110107 -0.7845154 0.31488037q-0.4611206 0.11972046 -1.4551697 0.215271q-0.8161621 0.08483887 -1.0769348 0.13348389q-0.24786377 0.057495117 -0.46591187 0.1543274l2.320282 1.5894775z" fill-rule="nonzero"></path><path fill="#000000" fill-opacity="0.0" d="m327.33508 338.16956l27.937012 -33.543304l22.173218 18.456696l-27.937012 33.543304z" fill-rule="evenodd"></path><path fill="#000000" d="m346.7543 339.94043l0.5383301 0.30578613q-0.12994385 0.2781067 -0.27993774 0.45822144q-0.24996948 0.30014038 -0.48605347 0.38824463q-0.2260437 0.07611084 -0.43017578 0.028198242q-0.20611572 -0.06991577 -0.6984863 -0.47973633l-1.8373718 -1.529419l-0.32998657 0.39620972l-0.4203186 -0.34988403l0.32998657 -0.39620972l-0.7805786 -0.64974976l0.12573242 -0.81018066l1.1048279 0.9196472l0.4499817 -0.5402832l0.4203186 0.34988403l-0.4499817 0.5402832l1.8734131 1.5593872q0.22817993 0.1899414 0.32022095 0.22589111q0.09005737 0.013977051 0.17608643 -0.016082764q0.085998535 -0.030029297 0.18600464 -0.15008545q0.07998657 -0.096069336 0.18798828 -0.25012207zm0.92285156 -0.13143921l-4.4073486 -3.668579l0.4499817 -0.5402832l1.5852051 1.3194885q-0.13433838 -0.7420654 0.3456421 -1.3183594q0.2999878 -0.36016846 0.65408325 -0.4923706q0.36410522 -0.14416504 0.7062683 -0.042297363q0.34017944 0.0798645 0.8085327 0.46969604l2.017517 1.6793518l-0.4499817 0.5402832l-2.017517 -1.6793518q-0.40829468 -0.33987427 -0.73843384 -0.3097229q-0.3321228 0.008148193 -0.6021118 0.33233643q-0.2000122 0.2401123 -0.24789429 0.5661926q-0.04989624 0.30404663 0.08627319 0.5800476q0.13415527 0.2539673 0.5184326 0.57385254l1.7413025 1.4494324l-0.44995117 0.5402832zm-0.93548584 -6.567566l-0.6244812 -0.5198059l0.4499817 -0.5402832l0.6244812 0.5198059l-0.4499817 0.5402832zm3.782837 3.1488037l-3.194397 -2.6589966l0.4499817 -0.5402832l3.194397 2.6589966l-0.4499817 0.5402832zm1.1374512 -1.3657227l-3.194397 -2.658966l0.39996338 -0.48025513l0.45635986 0.3798523q-0.22842407 -0.8000183 0.32156372 -1.4603577q0.23999023 -0.28814697 0.5480652 -0.43832397q0.30807495 -0.15014648 0.5762024 -0.13024902q0.26809692 0.019866943 0.5362854 0.16177368q0.17410278 0.08392334 0.5583801 0.4038086l1.957489 1.629364l-0.4499817 0.5402832l-1.9454651 -1.6193542q-0.32424927 -0.26989746 -0.54037476 -0.32781982q-0.21810913 -0.07992554 -0.4541626 0.0082092285q-0.23809814 0.066101074 -0.41809082 0.28222656q-0.27996826 0.33615112 -0.2618103 0.77822876q0.0061950684 0.43206787 0.61865234 0.941864l1.7413025 1.4494324l-0.4499817 0.5402832zm3.0315857 -3.1028137l0.5140381 -0.44628906q0.27017212 0.16390991 0.50827026 0.09780884q0.31610107 -0.062164307 0.6060791 -0.41033936q0.3199768 -0.3842163 0.3338623 -0.7182617q0.025878906 -0.32406616 -0.19033813 -0.6260071q-0.13812256 -0.17596436 -0.6665039 -0.6157837q0.12033081 0.7100525 -0.31967163 1.2383118q-0.5399475 0.64834595 -1.3082886 0.61868286q-0.780365 -0.03967285 -1.4408569 -0.589447q-0.45635986 -0.3798523 -0.7106323 -0.85583496q-0.25631714 -0.49795532 -0.20046997 -0.9800415q0.043823242 -0.49209595 0.4038086 -0.9243164q0.4699707 -0.56430054 1.2262878 -0.5446167l-0.38427734 -0.31988525l0.4199829 -0.50427246l2.762085 2.2991333q0.7445679 0.619751 0.92678833 1.0357361q0.18225098 0.4159851 0.09240723 0.8900757q-0.08987427 0.4741211 -0.48983765 0.9543762q-0.47998047 0.57629395 -1.0341797 0.7045593q-0.5421753 0.13827515 -1.0485535 -0.30358887zm-1.5514832 -2.0436096q0.6365051 0.52978516 1.1246948 0.52957153q0.49822998 -0.012207031 0.8182068 -0.39642334q0.30996704 -0.37219238 0.23175049 -0.8642273q-0.07821655 -0.4920349 -0.6906738 -1.001831q-0.58843994 -0.48980713 -1.0966492 -0.46557617q-0.52023315 0.014221191 -0.82022095 0.37442017q-0.2999878 0.36016846 -0.22174072 0.85220337q0.07821655 0.4920349 0.65463257 0.9718628zm7.2070312 -5.2839966l-0.4499817 0.5402832l-3.4466248 -2.8688965q0.032165527 0.35205078 -0.045684814 0.8361511q-0.079833984 0.46209717 -0.20578003 0.7842102l-0.51638794 -0.4298401q0.16381836 -0.63616943 0.1435852 -1.222229q-0.020233154 -0.5860901 -0.18844604 -0.97006226l0.28997803 -0.34820557l4.419342 3.6785889z" fill-rule="nonzero"></path></g></svg>

