<?xml version="1.0" standalone="yes"?>

<svg version="1.1" viewBox="0.0 0.0 285.36745406824144 330.49081364829397" fill="none" stroke="none" stroke-linecap="square" stroke-miterlimit="10" xmlns="http://www.w3.org/2000/svg" xmlns:xlink="http://www.w3.org/1999/xlink"><clipPath id="p.0"><path d="m0 0l285.36746 0l0 330.4908l-285.36746 0l0 -330.4908z" clip-rule="nonzero"></path></clipPath><g clip-path="url(#p.0)"><path fill="#000000" fill-opacity="0.0" d="m0 0l285.36746 0l0 330.4908l-285.36746 0z" fill-rule="evenodd"></path><path fill="#38761d" d="m12.241469 46.990166l0 0c0 -16.50766 23.450409 -29.889763 52.377953 -29.889763l0 0c28.927544 0 52.377953 13.382103 52.377953 29.889763l0 0c0 16.507664 -23.450409 29.889763 -52.377953 29.889763l0 0c-28.927544 0 -52.377953 -13.382099 -52.377953 -29.889763z" fill-rule="evenodd"></path><path stroke="#000000" stroke-width="1.0" stroke-linejoin="round" stroke-linecap="butt" d="m12.241469 46.990166l0 0c0 -16.50766 23.450409 -29.889763 52.377953 -29.889763l0 0c28.927544 0 52.377953 13.382103 52.377953 29.889763l0 0c0 16.507664 -23.450409 29.889763 -52.377953 29.889763l0 0c-28.927544 0 -52.377953 -13.382099 -52.377953 -29.889763z" fill-rule="evenodd"></path><path fill="#000000" fill-opacity="0.0" d="m23.911749 24.536562l81.41732 0l0 31.149607l-81.41732 0z" fill-rule="evenodd"></path><path fill="#ffffff" d="m46.38532 51.45656l0 -13.59375l4.6875 0q1.578125 0 2.421875 0.1875q1.15625 0.265625 1.984375 0.96875q1.0781288 0.921875 1.6093788 2.34375q0.53125 1.40625 0.53125 3.21875q0 1.546875 -0.359375 2.75q-0.359375 1.1875 -0.921875 1.984375q-0.5625038 0.78125 -1.2343788 1.234375q-0.671875 0.4375 -1.625 0.671875q-0.953125 0.234375 -2.1875 0.234375l-4.90625 0zm1.796875 -1.609375l2.90625 0q1.34375 0 2.109375 -0.25q0.765625 -0.25 1.21875 -0.703125q0.640625 -0.640625 1.0 -1.71875q0.359375 -1.078125 0.359375 -2.625q0 -2.125 -0.703125 -3.265625q-0.703125 -1.15625 -1.703125 -1.546875q-0.71875 -0.28125 -2.328125 -0.28125l-2.859375 0l0 10.390625zm17.894825 0.390625q-0.9375 0.796875 -1.796875 1.125q-0.859375 0.3125 -1.84375 0.3125q-1.609375 0 -2.484375 -0.78125q-0.875 -0.796875 -0.875 -2.03125q0 -0.734375 0.328125 -1.328125q0.328125 -0.59375 0.859375 -0.953125q0.53125 -0.359375 1.203125 -0.546875q0.5 -0.140625 1.484375 -0.25q2.03125 -0.25 2.984375 -0.578125q0 -0.34375 0 -0.4375q0 -1.015625 -0.46875 -1.4375q-0.640625 -0.5625 -1.90625 -0.5625q-1.171875 0 -1.734375 0.40625q-0.5625 0.40625 -0.828125 1.46875l-1.640625 -0.234375q0.234375 -1.046875 0.734375 -1.6875q0.515625 -0.640625 1.46875 -0.984375q0.96875 -0.359375 2.25 -0.359375q1.265625 0 2.046875 0.296875q0.78125 0.296875 1.15625 0.75q0.375 0.453125 0.515625 1.140625q0.09375 0.421875 0.09375 1.53125l0 2.234375q0 2.328125 0.09375 2.953125q0.109375 0.609375 0.4375 1.171875l-1.75 0q-0.265625 -0.515625 -0.328125 -1.21875zm-0.140625 -3.71875q-0.90625 0.359375 -2.734375 0.625q-1.03125 0.140625 -1.453125 0.328125q-0.421875 0.1875 -0.65625 0.546875q-0.234375 0.359375 -0.234375 0.796875q0 0.671875 0.5 1.125q0.515625 0.4375 1.484375 0.4375q0.96875 0 1.71875 -0.421875q0.75 -0.4375 1.109375 -1.15625q0.265625 -0.578125 0.265625 -1.671875l0 -0.609375zm7.735092 3.4375l0.234375 1.484375q-0.703125 0.140625 -1.265625 0.140625q-0.90625 0 -1.40625 -0.28125q-0.5 -0.296875 -0.703125 -0.75q-0.203125 -0.46875 -0.203125 -1.984375l0 -5.65625l-1.234375 0l0 -1.3125l1.234375 0l0 -2.4375l1.65625 -1.0l0 3.4375l1.6875 0l0 1.3125l-1.6875 0l0 5.75q0 0.71875 0.078125 0.921875q0.09375 0.203125 0.296875 0.328125q0.203125 0.125 0.578125 0.125q0.265625 0 0.734375 -0.078125zm7.964554 0.28125q-0.9375 0.796875 -1.796875 1.125q-0.859375 0.3125 -1.84375 0.3125q-1.609375 0 -2.484375 -0.78125q-0.875 -0.796875 -0.875 -2.03125q0 -0.734375 0.328125 -1.328125q0.328125 -0.59375 0.859375 -0.953125q0.53125 -0.359375 1.203125 -0.546875q0.5 -0.140625 1.484375 -0.25q2.03125 -0.25 2.984375 -0.578125q0 -0.34375 0 -0.4375q0 -1.015625 -0.46875 -1.4375q-0.640625 -0.5625 -1.90625 -0.5625q-1.171875 0 -1.734375 0.40625q-0.5625 0.40625 -0.828125 1.46875l-1.640625 -0.234375q0.234375 -1.046875 0.734375 -1.6875q0.515625 -0.640625 1.46875 -0.984375q0.96875 -0.359375 2.25 -0.359375q1.265625 0 2.046875 0.296875q0.78125 0.296875 1.15625 0.75q0.375 0.453125 0.515625 1.140625q0.09375 0.421875 0.09375 1.53125l0 2.234375q0 2.328125 0.09375 2.953125q0.109375 0.609375 0.4375 1.171875l-1.75 0q-0.265625 -0.515625 -0.328125 -1.21875zm-0.140625 -3.71875q-0.90625 0.359375 -2.734375 0.625q-1.03125 0.140625 -1.453125 0.328125q-0.421875 0.1875 -0.65625 0.546875q-0.234375 0.359375 -0.234375 0.796875q0 0.671875 0.5 1.125q0.515625 0.4375 1.484375 0.4375q0.96875 0 1.71875 -0.421875q0.75 -0.4375 1.109375 -1.15625q0.265625 -0.578125 0.265625 -1.671875l0 -0.609375z" fill-rule="nonzero"></path><path fill="#000000" fill-opacity="0.0" d="m64.61942 76.87993l-2.2047234 149.03937" fill-rule="evenodd"></path><path stroke="#000000" stroke-width="1.0" stroke-linejoin="round" stroke-linecap="butt" d="m64.61942 76.87993l-2.1159782 143.04002" fill-rule="evenodd"></path><path fill="#000000" stroke="#000000" stroke-width="1.0" stroke-linecap="butt" d="m60.851894 219.89552l1.5844269 4.562027l1.7186775 -4.5131683z" fill-rule="evenodd"></path><path fill="#990000" d="m10.036745 148.11285l0 0c0 -18.342804 23.450407 -33.212593 52.377953 -33.212593l0 0c28.92754 0 52.37795 14.869789 52.37795 33.212593l0 0c0 18.34282 -23.450409 33.2126 -52.37795 33.2126l0 0c-28.927547 0 -52.377953 -14.8697815 -52.377953 -33.2126z" fill-rule="evenodd"></path><path stroke="#000000" stroke-width="1.0" stroke-linejoin="round" stroke-linecap="butt" d="m10.036745 148.11285l0 0c0 -18.342804 23.450407 -33.212593 52.377953 -33.212593l0 0c28.92754 0 52.37795 14.869789 52.37795 33.212593l0 0c0 18.34282 -23.450409 33.2126 -52.37795 33.2126l0 0c-28.927547 0 -52.377953 -14.8697815 -52.377953 -33.2126z" fill-rule="evenodd"></path><path fill="#000000" fill-opacity="0.0" d="m16.461946 126.653984l91.90551 0l0 34.614174l-91.90551 0z" fill-rule="evenodd"></path><path fill="#ffffff" d="m35.50947 150.63647l1.65625 -0.265625q0.140625 1.0 0.765625 1.53125q0.640625 0.515625 1.78125 0.515625q1.15625 0 1.703125 -0.46875q0.5625 -0.46875 0.5625 -1.09375q0 -0.5625 -0.484375 -0.890625q-0.34375 -0.21875 -1.703125 -0.5625q-1.84375 -0.46875 -2.5625 -0.796875q-0.703125 -0.34375 -1.078125 -0.9375q-0.359375 -0.609375 -0.359375 -1.328125q0 -0.65625 0.296875 -1.21875q0.3125 -0.5625 0.828125 -0.9375q0.390625 -0.28125 1.0625 -0.484375q0.671875 -0.203125 1.4375 -0.203125q1.171875 0 2.046875 0.34375q0.875 0.328125 1.28125 0.90625q0.421875 0.5625 0.578125 1.515625l-1.625 0.21875q-0.109375 -0.75 -0.65625 -1.171875q-0.53125 -0.4375 -1.5 -0.4375q-1.15625 0 -1.640625 0.390625q-0.484375 0.375 -0.484375 0.875q0 0.328125 0.203125 0.59375q0.203125 0.265625 0.640625 0.4375q0.25 0.09375 1.46875 0.4375q1.765625 0.46875 2.46875 0.765625q0.703125 0.296875 1.09375 0.875q0.40625 0.578125 0.40625 1.4375q0 0.828125 -0.484375 1.578125q-0.484375 0.734375 -1.40625 1.140625q-0.921875 0.390625 -2.078125 0.390625q-1.921875 0 -2.9375 -0.796875q-1.0 -0.796875 -1.28125 -2.359375zm16.453125 2.9375l0 -1.453125q-1.140625 1.671875 -3.125 1.671875q-0.859375 0 -1.625 -0.328125q-0.75 -0.34375 -1.125 -0.84375q-0.359375 -0.5 -0.515625 -1.234375q-0.09375 -0.5 -0.09375 -1.5625l0 -6.109375l1.671875 0l0 5.46875q0 1.3125 0.09375 1.765625q0.15625 0.65625 0.671875 1.03125q0.515625 0.375 1.265625 0.375q0.75 0 1.40625 -0.375q0.65625 -0.390625 0.921875 -1.046875q0.28125 -0.671875 0.28125 -1.9375l0 -5.28125l1.671875 0l0 9.859375l-1.5 0zm5.469467 0l-1.546875 0l0 -13.59375l1.65625 0l0 4.84375q1.0625 -1.328125 2.703125 -1.328125q0.90625 0 1.71875 0.375q0.8125 0.359375 1.328125 1.03125q0.53125 0.65625 0.8281288 1.59375q0.296875 0.9375 0.296875 2.0q0 2.53125 -1.2500038 3.921875q-1.25 1.375 -3.0 1.375q-1.75 0 -2.734375 -1.453125l0 1.234375zm-0.015625 -5.0q0 1.765625 0.46875 2.5625q0.796875 1.28125 2.140625 1.28125q1.09375 0 1.890625 -0.9375q0.796875 -0.953125 0.796875 -2.84375q0 -1.921875 -0.765625 -2.84375q-0.765625 -0.921875 -1.84375 -0.921875q-1.09375 0 -1.890625 0.953125q-0.796875 0.953125 -0.796875 2.75zm8.172596 2.0625l1.65625 -0.265625q0.140625 1.0 0.765625 1.53125q0.640625 0.515625 1.78125 0.515625q1.15625 0 1.703125 -0.46875q0.5625 -0.46875 0.5625 -1.09375q0 -0.5625 -0.484375 -0.890625q-0.34375 -0.21875 -1.703125 -0.5625q-1.84375 -0.46875 -2.5625 -0.796875q-0.703125 -0.34375 -1.078125 -0.9375q-0.359375 -0.609375 -0.359375 -1.328125q0 -0.65625 0.296875 -1.21875q0.3125 -0.5625 0.828125 -0.9375q0.390625 -0.28125 1.0625 -0.484375q0.671875 -0.203125 1.4375 -0.203125q1.171875 0 2.046875 0.34375q0.875 0.328125 1.28125 0.90625q0.421875 0.5625 0.578125 1.515625l-1.625 0.21875q-0.109375 -0.75 -0.65625 -1.171875q-0.53125 -0.4375 -1.5 -0.4375q-1.15625 0 -1.640625 0.390625q-0.484375 0.375 -0.484375 0.875q0 0.328125 0.203125 0.59375q0.203125 0.265625 0.640625 0.4375q0.25 0.09375 1.46875 0.4375q1.765625 0.46875 2.46875 0.765625q0.703125 0.296875 1.09375 0.875q0.40625 0.578125 0.40625 1.4375q0 0.828125 -0.484375 1.578125q-0.484375 0.734375 -1.40625 1.140625q-0.921875 0.390625 -2.078125 0.390625q-1.921875 0 -2.9375 -0.796875q-1.0 -0.796875 -1.28125 -2.359375zm16.75 -0.234375l1.71875 0.21875q-0.40625 1.5 -1.515625 2.34375q-1.09375 0.828125 -2.8125 0.828125q-2.15625 0 -3.421875 -1.328125q-1.265625 -1.328125 -1.265625 -3.734375q0 -2.484375 1.265625 -3.859375q1.28125 -1.375 3.328125 -1.375q1.984375 0 3.234375 1.34375q1.25 1.34375 1.25 3.796875q0 0.140625 -0.015625 0.4375l-7.34375 0q0.09375 1.625 0.921875 2.484375q0.828125 0.859375 2.0625 0.859375q0.90625 0 1.546875 -0.46875q0.65625 -0.484375 1.046875 -1.546875zm-5.484375 -2.703125l5.5 0q-0.109375 -1.234375 -0.625 -1.859375q-0.796875 -0.96875 -2.078125 -0.96875q-1.140625 0 -1.9375 0.78125q-0.78125 0.765625 -0.859375 2.046875zm12.766342 4.375l0.234375 1.484375q-0.703125 0.140625 -1.265625 0.140625q-0.90625 0 -1.40625 -0.28125q-0.5 -0.296875 -0.703125 -0.75q-0.203125 -0.46875 -0.203125 -1.984375l0 -5.65625l-1.234375 0l0 -1.3125l1.234375 0l0 -2.4375l1.65625 -1.0l0 3.4375l1.6875 0l0 1.3125l-1.6875 0l0 5.75q0 0.71875 0.078125 0.921875q0.09375 0.203125 0.296875 0.328125q0.203125 0.125 0.578125 0.125q0.265625 0 0.734375 -0.078125z" fill-rule="nonzero"></path><path fill="#cfe2f3" d="m137.94753 53.887203c2.6867523 -8.798786 10.483261 -15.084057 20.081207 -16.188751c9.597931 -1.1046944 19.314056 3.1649208 25.025452 10.997105l0 0c4.9871063 -3.4995308 11.537567 -4.44886 17.669876 -2.5608292c6.132324 1.888031 11.126221 6.391659 13.471054 12.148563l0 0c4.372299 -3.2433014 10.309341 -4.0064125 15.704285 -2.0185432c5.3949585 1.9878731 9.484283 6.445389 10.816849 11.790756l0 0c6.368393 -2.619072 13.958115 -1.4046097 19.485077 3.117897c5.526947 4.522499 7.998474 11.540764 6.345093 18.017975l0 0c4.522522 3.732727 7.2348633 9.074692 7.4362183 14.645714c0.20135498 5.5710297 -2.1280212 10.8246155 -6.386261 14.403427l0 0c2.1616821 8.527229 -0.518219 17.264793 -7.0396423 22.951927c-6.521408 5.687134 -15.904541 7.4694214 -24.647705 4.6817017c-3.2361298 6.699585 -10.111618 11.003021 -17.976303 11.251556c-7.864685 0.24853516 -15.490433 -3.596634 -19.937897 -10.053406c-6.41774 6.823868 -16.568695 9.281921 -26.0672 6.312195c-9.498505 -2.9697266 -16.641754 -10.834839 -18.343552 -20.197296c-7.7685394 0.5512848 -15.604172 -1.9325104 -21.739304 -6.891121c-6.135132 -4.9585953 -10.052956 -11.974297 -10.86969 -19.464462l0 0c-6.5962906 -2.2774277 -11.230751 -8.169174 -11.60334 -14.751221c-0.3725891 -6.582039 3.596016 -12.453224 9.936226 -14.69973l0 0c-4.1461563 -5.7107773 -4.1244736 -13.148628 0.053741455 -18.434994c4.178215 -5.2863655 11.566162 -7.2233315 18.311295 -4.8008423z" fill-rule="evenodd"></path><path fill="#cfe2f3" d="m132.5859 150.64005c-0.74168396 1.5698853 -2.6157684 2.2416382 -4.1858673 1.500412c-1.5701065 -0.74121094 -2.241661 -2.614746 -1.4999695 -4.184616c0.7416992 -1.5698853 2.6157837 -2.2416382 4.1858826 -1.500412c1.5700989 0.7412262 2.2416534 2.614746 1.4999542 4.184616z" fill-rule="evenodd"></path><path fill="#cfe2f3" d="m138.72481 149.33675c-1.4833984 3.1397705 -5.231552 4.4832764 -8.371765 3.000824c-3.1401978 -1.4824524 -4.483307 -5.229492 -2.9999237 -8.369247c1.4833984 -3.1397705 5.231552 -4.4832764 8.371765 -3.000824c3.1401978 1.4824524 4.483307 5.229492 2.9999237 8.369247z" fill-rule="evenodd"></path><path fill="#cfe2f3" d="m149.76779 144.09734c-2.2250824 4.7096405 -7.847336 6.7248993 -12.557632 4.501236c-4.710312 -2.2236786 -6.7249756 -7.8442535 -4.499893 -12.553894c2.2250824 -4.7096405 7.8473206 -6.7249146 12.557632 -4.501236c4.7102966 2.2236786 6.7249756 7.8442535 4.499893 12.553894z" fill-rule="evenodd"></path><path fill="#000000" fill-opacity="0.0" d="m127.508415 83.06883l0 0c-3.156189 -1.2178268 -5.896538 -3.3149872 -7.8531036 -6.0098953m5.8329086 30.25396c-1.4418716 -0.12415314 -2.8710632 -0.4283142 -4.2506943 -0.9046478m32.53222 26.363647l0 0c-0.31356812 -1.7250824 -0.43518066 -3.4677124 -0.3627472 -5.198181m47.82463 15.069092c-0.85827637 1.4653625 -1.8809509 2.8314667 -3.0509644 4.0755157m34.513855 -23.302872l0 0c5.4353943 6.4020386 6.702606 15.020126 3.2573395 22.152649m31.691574 -27.60997c-2.2723694 1.9097977 -5.004608 3.265747 -7.9824524 3.9615326m7.0726624 -33.07332l0 0c-0.27438354 1.0749207 -0.6583252 2.1162262 -1.1464539 3.109497m-29.118134 -21.655403l0 0c1.3016357 -1.0697403 2.7696228 -1.9449005 4.358246 -2.598236m-29.155762 -6.890003l0 0c0.80326843 -1.0126381 1.7407227 -1.91885 2.7907715 -2.6977615m-31.41475 -9.451084l0 0c1.2085266 1.65728 2.209671 3.4379349 2.9814453 5.302845m-48.881546 3.643158l0 0c0.16238403 -1.2638512 0.42997742 -2.507965 0.80029297 -3.7206917" fill-rule="evenodd"></path><path stroke="#000000" stroke-width="1.0" stroke-linejoin="round" stroke-linecap="butt" d="m137.94753 53.887203c2.6867523 -8.798786 10.483261 -15.084057 20.081207 -16.188751c9.597931 -1.1046944 19.314056 3.1649208 25.025452 10.997105l0 0c4.9871063 -3.4995308 11.537567 -4.44886 17.669876 -2.5608292c6.132324 1.888031 11.126221 6.391659 13.471054 12.148563l0 0c4.372299 -3.2433014 10.309341 -4.0064125 15.704285 -2.0185432c5.3949585 1.9878731 9.484283 6.445389 10.816849 11.790756l0 0c6.368393 -2.619072 13.958115 -1.4046097 19.485077 3.117897c5.526947 4.522499 7.998474 11.540764 6.345093 18.017975l0 0c4.522522 3.732727 7.2348633 9.074692 7.4362183 14.645714c0.20135498 5.5710297 -2.1280212 10.8246155 -6.386261 14.403427l0 0c2.1616821 8.527229 -0.518219 17.264793 -7.0396423 22.951927c-6.521408 5.687134 -15.904541 7.4694214 -24.647705 4.6817017c-3.2361298 6.699585 -10.111618 11.003021 -17.976303 11.251556c-7.864685 0.24853516 -15.490433 -3.596634 -19.937897 -10.053406c-6.41774 6.823868 -16.568695 9.281921 -26.0672 6.312195c-9.498505 -2.9697266 -16.641754 -10.834839 -18.343552 -20.197296c-7.7685394 0.5512848 -15.604172 -1.9325104 -21.739304 -6.891121c-6.135132 -4.9585953 -10.052956 -11.974297 -10.86969 -19.464462l0 0c-6.5962906 -2.2774277 -11.230751 -8.169174 -11.60334 -14.751221c-0.3725891 -6.582039 3.596016 -12.453224 9.936226 -14.69973l0 0c-4.1461563 -5.7107773 -4.1244736 -13.148628 0.053741455 -18.434994c4.178215 -5.2863655 11.566162 -7.2233315 18.311295 -4.8008423z" fill-rule="evenodd"></path><path stroke="#000000" stroke-width="1.0" stroke-linejoin="round" stroke-linecap="butt" d="m132.5859 150.64005c-0.74168396 1.5698853 -2.6157684 2.2416382 -4.1858673 1.500412c-1.5701065 -0.74121094 -2.241661 -2.614746 -1.4999695 -4.184616c0.7416992 -1.5698853 2.6157837 -2.2416382 4.1858826 -1.500412c1.5700989 0.7412262 2.2416534 2.614746 1.4999542 4.184616z" fill-rule="evenodd"></path><path stroke="#000000" stroke-width="1.0" stroke-linejoin="round" stroke-linecap="butt" d="m138.72481 149.33675c-1.4833984 3.1397705 -5.231552 4.4832764 -8.371765 3.000824c-3.1401978 -1.4824524 -4.483307 -5.229492 -2.9999237 -8.369247c1.4833984 -3.1397705 5.231552 -4.4832764 8.371765 -3.000824c3.1401978 1.4824524 4.483307 5.229492 2.9999237 8.369247z" fill-rule="evenodd"></path><path stroke="#000000" stroke-width="1.0" stroke-linejoin="round" stroke-linecap="butt" d="m149.76779 144.09734c-2.2250824 4.7096405 -7.847336 6.7248993 -12.557632 4.501236c-4.710312 -2.2236786 -6.7249756 -7.8442535 -4.499893 -12.553894c2.2250824 -4.7096405 7.8473206 -6.7249146 12.557632 -4.501236c4.7102966 2.2236786 6.7249756 7.8442535 4.499893 12.553894z" fill-rule="evenodd"></path><path stroke="#000000" stroke-width="1.0" stroke-linejoin="round" stroke-linecap="butt" d="m127.508415 83.06883l0 0c-3.156189 -1.2178268 -5.896538 -3.3149872 -7.8531036 -6.0098953m5.8329086 30.25396c-1.4418716 -0.12415314 -2.8710632 -0.4283142 -4.2506943 -0.9046478m32.53222 26.363647l0 0c-0.31356812 -1.7250824 -0.43518066 -3.4677124 -0.3627472 -5.198181m47.82463 15.069092c-0.85827637 1.4653625 -1.8809509 2.8314667 -3.0509644 4.0755157m34.513855 -23.302872l0 0c5.4353943 6.4020386 6.702606 15.020126 3.2573395 22.152649m31.691574 -27.60997c-2.2723694 1.9097977 -5.004608 3.265747 -7.9824524 3.9615326m7.0726624 -33.07332l0 0c-0.27438354 1.0749207 -0.6583252 2.1162262 -1.1464539 3.109497m-29.118134 -21.655403l0 0c1.3016357 -1.0697403 2.7696228 -1.9449005 4.358246 -2.598236m-29.155762 -6.890003l0 0c0.80326843 -1.0126381 1.7407227 -1.91885 2.7907715 -2.6977615m-31.41475 -9.451084l0 0c1.2085266 1.65728 2.209671 3.4379349 2.9814453 5.302845m-48.881546 3.643158l0 0c0.16238403 -1.2638512 0.42997742 -2.507965 0.80029297 -3.7206917" fill-rule="evenodd"></path><path fill="#000000" fill-opacity="0.0" d="m130.7769 62.67454l125.76378 0l0 76.031494l-125.76378 0z" fill-rule="evenodd"></path><path fill="#000000" d="m140.49565 80.520164q0 -2.671875 1.4375 -4.171875q1.4375 -1.515625 3.703125 -1.515625q1.5 0 2.6875 0.71875q1.1875 0.703125 1.8125 1.96875q0.640625 1.265625 0.640625 2.875q0 1.640625 -0.671875 2.9375q-0.65625 1.28125 -1.859375 1.953125q-1.203125 0.65625 -2.609375 0.65625q-1.515625 0 -2.71875 -0.734375q-1.1875 -0.734375 -1.8125 -2.0q-0.609375 -1.265625 -0.609375 -2.6875zm1.46875 0.03125q0 1.9375 1.046875 3.0625q1.046875 1.109375 2.625 1.109375q1.59375 0 2.625 -1.125q1.046875 -1.125 1.046875 -3.203125q0 -1.3125 -0.453125 -2.28125q-0.4375 -0.984375 -1.296875 -1.515625q-0.84375 -0.546875 -1.90625 -0.546875q-1.515625 0 -2.609375 1.046875q-1.078125 1.03125 -1.078125 3.453125zm10.196976 5.203125l0 -7.78125l1.1875 0l0 1.109375q0.859375 -1.28125 2.484375 -1.28125q0.703125 0 1.28125 0.25q0.59375 0.25 0.890625 0.671875q0.296875 0.40625 0.40625 0.96875q0.078125 0.359375 0.078125 1.28125l0 4.78125l-1.328125 0l0 -4.734375q0 -0.796875 -0.15625 -1.1875q-0.140625 -0.40625 -0.53125 -0.640625q-0.390625 -0.25 -0.921875 -0.25q-0.84375 0 -1.453125 0.53125q-0.609375 0.53125 -0.609375 2.03125l0 4.25l-1.328125 0zm8.119858 0l0 -10.734375l1.328125 0l0 10.734375l-1.328125 0zm3.2405243 3.0l-0.15625 -1.234375q0.4375 0.109375 0.75 0.109375q0.453125 0 0.703125 -0.15625q0.265625 -0.140625 0.4375 -0.40625q0.125 -0.1875 0.40625 -0.96875q0.03125 -0.109375 0.109375 -0.328125l-2.953125 -7.796875l1.421875 0l1.625 4.5q0.3125 0.859375 0.5625 1.8125q0.234375 -0.90625 0.546875 -1.78125l1.65625 -4.53125l1.328125 0l-2.96875 7.90625q-0.46875 1.28125 -0.734375 1.765625q-0.359375 0.65625 -0.8125 0.953125q-0.453125 0.3125 -1.078125 0.3125q-0.375 0 -0.84375 -0.15625zm14.337601 -4.171875l0.1875 1.15625q-0.5625 0.125 -1.0 0.125q-0.71875 0 -1.125 -0.234375q-0.390625 -0.234375 -0.546875 -0.59375q-0.15625 -0.375 -0.15625 -1.5625l0 -4.46875l-0.96875 0l0 -1.03125l0.96875 0l0 -1.921875l1.3125 -0.796875l0 2.71875l1.328125 0l0 1.03125l-1.328125 0l0 4.546875q0 0.5625 0.0625 0.734375q0.078125 0.15625 0.234375 0.25q0.15625 0.09375 0.4375 0.09375q0.234375 0 0.59375 -0.046875zm1.1813507 1.171875l0 -10.734375l1.328125 0l0 3.84375q0.921875 -1.0625 2.328125 -1.0625q0.859375 0 1.5 0.34375q0.640625 0.34375 0.90625 0.9375q0.28125 0.59375 0.28125 1.75l0 4.921875l-1.328125 0l0 -4.921875q0 -1.0 -0.421875 -1.4375q-0.421875 -0.453125 -1.21875 -0.453125q-0.578125 0 -1.09375 0.296875q-0.515625 0.296875 -0.734375 0.828125q-0.21875 0.515625 -0.21875 1.4375l0 4.25l-1.328125 0zm7.666733 -3.890625q0 -2.15625 1.203125 -3.203125q1.0 -0.859375 2.4375 -0.859375q1.609375 0 2.625 1.046875q1.015625 1.046875 1.015625 2.90625q0 1.5 -0.453125 2.359375q-0.4375 0.859375 -1.3125 1.34375q-0.859375 0.46875 -1.875 0.46875q-1.625 0 -2.640625 -1.046875q-1.0 -1.046875 -1.0 -3.015625zm1.359375 0q0 1.5 0.640625 2.25q0.65625 0.734375 1.640625 0.734375q0.984375 0 1.640625 -0.75q0.65625 -0.75 0.65625 -2.28125q0 -1.4375 -0.65625 -2.171875q-0.65625 -0.75 -1.640625 -0.75q-0.984375 0 -1.640625 0.734375q-0.640625 0.734375 -0.640625 2.234375zm6.760483 1.5625l1.296875 -0.203125q0.109375 0.78125 0.609375 1.203125q0.5 0.421875 1.40625 0.421875q0.90625 0 1.34375 -0.359375q0.4375 -0.375 0.4375 -0.875q0 -0.453125 -0.390625 -0.703125q-0.265625 -0.1875 -1.34375 -0.453125q-1.453125 -0.359375 -2.015625 -0.625q-0.546875 -0.28125 -0.84375 -0.75q-0.28125 -0.46875 -0.28125 -1.046875q0 -0.515625 0.234375 -0.953125q0.234375 -0.453125 0.640625 -0.734375q0.3125 -0.234375 0.84375 -0.390625q0.53125 -0.15625 1.140625 -0.15625q0.90625 0 1.59375 0.265625q0.703125 0.265625 1.03125 0.71875q0.328125 0.4375 0.453125 1.203125l-1.28125 0.171875q-0.09375 -0.609375 -0.515625 -0.9375q-0.421875 -0.34375 -1.1875 -0.34375q-0.90625 0 -1.296875 0.3125q-0.390625 0.296875 -0.390625 0.703125q0 0.25 0.15625 0.453125q0.171875 0.21875 0.515625 0.359375q0.1875 0.0625 1.15625 0.328125q1.40625 0.375 1.953125 0.609375q0.5625 0.234375 0.875 0.703125q0.3125 0.453125 0.3125 1.125q0 0.65625 -0.390625 1.234375q-0.375 0.578125 -1.109375 0.90625q-0.71875 0.3125 -1.640625 0.3125q-1.515625 0 -2.3125 -0.625q-0.78125 -0.625 -1.0 -1.875zm13.171875 -0.171875l1.359375 0.15625q-0.3125 1.203125 -1.1875 1.859375q-0.875 0.65625 -2.234375 0.65625q-1.703125 0 -2.703125 -1.046875q-1.0 -1.046875 -1.0 -2.953125q0 -1.953125 1.015625 -3.03125q1.015625 -1.09375 2.625 -1.09375q1.5625 0 2.546875 1.0625q0.984375 1.0625 0.984375 2.984375q0 0.125 0 0.359375l-5.8125 0q0.078125 1.28125 0.71875 1.96875q0.65625 0.671875 1.640625 0.671875q0.71875 0 1.234375 -0.375q0.515625 -0.390625 0.8125 -1.21875zm-4.328125 -2.140625l4.34375 0q-0.09375 -0.984375 -0.5 -1.46875q-0.625 -0.765625 -1.625 -0.765625q-0.921875 0 -1.546875 0.609375q-0.609375 0.609375 -0.671875 1.625z" fill-rule="nonzero"></path><path fill="#000000" d="m140.2769 99.863914q0 -2.15625 1.203125 -3.203125q1.0 -0.859375 2.4375 -0.859375q1.609375 0 2.625 1.046875q1.015625 1.046875 1.015625 2.90625q0 1.5 -0.453125 2.359375q-0.4375 0.859375 -1.3125 1.34375q-0.859375 0.46875 -1.875 0.46875q-1.625 0 -2.640625 -1.046875q-1.0 -1.046875 -1.0 -3.015625zm1.359375 0q0 1.5 0.640625 2.25q0.65625 0.734375 1.640625 0.734375q0.984375 0 1.640625 -0.75q0.65625 -0.75 0.65625 -2.28125q0 -1.4375 -0.65625 -2.171875q-0.65625 -0.75 -1.640625 -0.75q-0.984375 0 -1.640625 0.734375q-0.640625 0.734375 -0.640625 2.234375zm8.494858 3.890625l-1.21875 0l0 -10.734375l1.3125 0l0 3.828125q0.84375 -1.046875 2.140625 -1.046875q0.71875 0 1.359375 0.296875q0.640625 0.28125 1.046875 0.8125q0.421875 0.515625 0.65625 1.265625q0.234375 0.734375 0.234375 1.578125q0 2.0 -1.0 3.09375q-0.984375 1.078125 -2.375 1.078125q-1.375 0 -2.15625 -1.140625l0 0.96875zm-0.015625 -3.953125q0 1.40625 0.390625 2.03125q0.609375 1.015625 1.671875 1.015625q0.875 0 1.5 -0.75q0.625 -0.75 0.625 -2.234375q0 -1.53125 -0.609375 -2.25q-0.59375 -0.734375 -1.453125 -0.734375q-0.859375 0 -1.5 0.75q-0.625 0.75 -0.625 2.171875zm6.432358 1.625l1.296875 -0.203125q0.109375 0.78125 0.609375 1.203125q0.5 0.421875 1.40625 0.421875q0.90625 0 1.34375 -0.359375q0.4375 -0.375 0.4375 -0.875q0 -0.453125 -0.390625 -0.703125q-0.265625 -0.1875 -1.34375 -0.453125q-1.453125 -0.359375 -2.015625 -0.625q-0.546875 -0.28125 -0.84375 -0.75q-0.28125 -0.46875 -0.28125 -1.046875q0 -0.515625 0.234375 -0.953125q0.234375 -0.453125 0.640625 -0.734375q0.3125 -0.234375 0.84375 -0.390625q0.53125 -0.15625 1.140625 -0.15625q0.90625 0 1.59375 0.265625q0.703125 0.265625 1.03125 0.71875q0.328125 0.4375 0.453125 1.203125l-1.28125 0.171875q-0.09375 -0.609375 -0.515625 -0.9375q-0.421875 -0.34375 -1.1875 -0.34375q-0.90625 0 -1.296875 0.3125q-0.390625 0.296875 -0.390625 0.703125q0 0.25 0.15625 0.453125q0.171875 0.21875 0.515625 0.359375q0.1875 0.0625 1.15625 0.328125q1.40625 0.375 1.953125 0.609375q0.5625 0.234375 0.875 0.703125q0.3125 0.453125 0.3125 1.125q0 0.65625 -0.390625 1.234375q-0.375 0.578125 -1.109375 0.90625q-0.71875 0.3125 -1.640625 0.3125q-1.515625 0 -2.3125 -0.625q-0.78125 -0.625 -1.0 -1.875zm13.171875 -0.171875l1.359375 0.15625q-0.3125 1.203125 -1.1875 1.859375q-0.875 0.65625 -2.234375 0.65625q-1.703125 0 -2.703125 -1.046875q-1.0 -1.046875 -1.0 -2.953125q0 -1.953125 1.015625 -3.03125q1.015625 -1.09375 2.625 -1.09375q1.5625 0 2.546875 1.0625q0.984375 1.0625 0.984375 2.984375q0 0.125 0 0.359375l-5.8125 0q0.078125 1.28125 0.71875 1.96875q0.65625 0.671875 1.640625 0.671875q0.71875 0 1.234375 -0.375q0.515625 -0.390625 0.8125 -1.21875zm-4.328125 -2.140625l4.34375 0q-0.09375 -0.984375 -0.5 -1.46875q-0.625 -0.765625 -1.625 -0.765625q-0.921875 0 -1.546875 0.609375q-0.609375 0.609375 -0.671875 1.625zm7.135483 4.640625l0 -7.78125l1.1875 0l0 1.1875q0.453125 -0.828125 0.84375 -1.09375q0.390625 -0.265625 0.84375 -0.265625q0.671875 0 1.359375 0.421875l-0.453125 1.21875q-0.484375 -0.28125 -0.96875 -0.28125q-0.4375 0 -0.78125 0.265625q-0.34375 0.25 -0.484375 0.71875q-0.21875 0.703125 -0.21875 1.53125l0 4.078125l-1.328125 0zm7.0681458 0l-2.96875 -7.78125l1.390625 0l1.671875 4.65625q0.265625 0.765625 0.5 1.578125q0.171875 -0.625 0.484375 -1.484375l1.734375 -4.75l1.359375 0l-2.953125 7.78125l-1.21875 0zm10.234375 -0.953125q-0.734375 0.609375 -1.40625 0.875q-0.671875 0.25 -1.453125 0.25q-1.28125 0 -1.96875 -0.625q-0.6875 -0.625 -0.6875 -1.59375q0 -0.578125 0.25 -1.046875q0.265625 -0.46875 0.6875 -0.75q0.421875 -0.296875 0.953125 -0.4375q0.375 -0.109375 1.171875 -0.203125q1.59375 -0.1875 2.34375 -0.453125q0.015625 -0.265625 0.015625 -0.34375q0 -0.8125 -0.375 -1.140625q-0.515625 -0.4375 -1.5 -0.4375q-0.9375 0 -1.390625 0.328125q-0.4375 0.3125 -0.640625 1.140625l-1.296875 -0.171875q0.171875 -0.828125 0.578125 -1.328125q0.40625 -0.515625 1.171875 -0.78125q0.765625 -0.28125 1.765625 -0.28125q1.0 0 1.609375 0.234375q0.625 0.234375 0.921875 0.59375q0.296875 0.34375 0.40625 0.890625q0.0625 0.34375 0.0625 1.21875l0 1.75q0 1.84375 0.078125 2.328125q0.09375 0.484375 0.34375 0.9375l-1.375 0q-0.203125 -0.40625 -0.265625 -0.953125zm-0.109375 -2.953125q-0.71875 0.296875 -2.15625 0.5q-0.8125 0.125 -1.15625 0.265625q-0.328125 0.140625 -0.515625 0.421875q-0.171875 0.28125 -0.171875 0.625q0 0.53125 0.390625 0.890625q0.40625 0.34375 1.171875 0.34375q0.765625 0 1.359375 -0.328125q0.59375 -0.34375 0.875 -0.921875q0.203125 -0.4375 0.203125 -1.3125l0 -0.484375zm6.072983 2.734375l0.1875 1.15625q-0.5625 0.125 -1.0 0.125q-0.71875 0 -1.125 -0.234375q-0.390625 -0.234375 -0.546875 -0.59375q-0.15625 -0.375 -0.15625 -1.5625l0 -4.46875l-0.96875 0l0 -1.03125l0.96875 0l0 -1.921875l1.3125 -0.796875l0 2.71875l1.328125 0l0 1.03125l-1.328125 0l0 4.546875q0 0.5625 0.0625 0.734375q0.078125 0.15625 0.234375 0.25q0.15625 0.09375 0.4375 0.09375q0.234375 0 0.59375 -0.046875zm1.1969757 -8.046875l0 -1.515625l1.3125 0l0 1.515625l-1.3125 0zm0 9.21875l0 -7.78125l1.3125 0l0 7.78125l-1.3125 0zm2.7561493 -3.890625q0 -2.15625 1.203125 -3.203125q1.0 -0.859375 2.4375 -0.859375q1.609375 0 2.625 1.046875q1.015625 1.046875 1.015625 2.90625q0 1.5 -0.453125 2.359375q-0.4375 0.859375 -1.3125 1.34375q-0.859375 0.46875 -1.875 0.46875q-1.625 0 -2.640625 -1.046875q-1.0 -1.046875 -1.0 -3.015625zm1.359375 0q0 1.5 0.640625 2.25q0.65625 0.734375 1.640625 0.734375q0.984375 0 1.640625 -0.75q0.65625 -0.75 0.65625 -2.28125q0 -1.4375 -0.65625 -2.171875q-0.65625 -0.75 -1.640625 -0.75q-0.984375 0 -1.640625 0.734375q-0.640625 0.734375 -0.640625 2.234375zm7.276108 3.890625l0 -7.78125l1.1875 0l0 1.109375q0.859375 -1.28125 2.484375 -1.28125q0.703125 0 1.28125 0.25q0.59375 0.25 0.890625 0.671875q0.296875 0.40625 0.40625 0.96875q0.078125 0.359375 0.078125 1.28125l0 4.78125l-1.328125 0l0 -4.734375q0 -0.796875 -0.15625 -1.1875q-0.140625 -0.40625 -0.53125 -0.640625q-0.390625 -0.25 -0.921875 -0.25q-0.84375 0 -1.453125 0.53125q-0.609375 0.53125 -0.609375 2.03125l0 4.25l-1.328125 0zm7.635483 -2.328125l1.296875 -0.203125q0.109375 0.78125 0.609375 1.203125q0.5 0.421875 1.40625 0.421875q0.90625 0 1.34375 -0.359375q0.4375 -0.375 0.4375 -0.875q0 -0.453125 -0.390625 -0.703125q-0.265625 -0.1875 -1.34375 -0.453125q-1.453125 -0.359375 -2.015625 -0.625q-0.546875 -0.28125 -0.84375 -0.75q-0.28125 -0.46875 -0.28125 -1.046875q0 -0.515625 0.234375 -0.953125q0.234375 -0.453125 0.640625 -0.734375q0.3125 -0.234375 0.84375 -0.390625q0.53125 -0.15625 1.140625 -0.15625q0.90625 0 1.59375 0.265625q0.703125 0.265625 1.03125 0.71875q0.328125 0.4375 0.453125 1.203125l-1.28125 0.171875q-0.09375 -0.609375 -0.515625 -0.9375q-0.421875 -0.34375 -1.1875 -0.34375q-0.90625 0 -1.296875 0.3125q-0.390625 0.296875 -0.390625 0.703125q0 0.25 0.15625 0.453125q0.171875 0.21875 0.515625 0.359375q0.1875 0.0625 1.15625 0.328125q1.40625 0.375 1.953125 0.609375q0.5625 0.234375 0.875 0.703125q0.3125 0.453125 0.3125 1.125q0 0.65625 -0.390625 1.234375q-0.375 0.578125 -1.109375 0.90625q-0.71875 0.3125 -1.640625 0.3125q-1.515625 0 -2.3125 -0.625q-0.78125 -0.625 -1.0 -1.875zm8.1875 2.328125l0 -1.5l1.5 0l0 1.5q0 0.828125 -0.296875 1.328125q-0.28125 0.515625 -0.921875 0.796875l-0.359375 -0.5625q0.40625 -0.1875 0.609375 -0.546875q0.203125 -0.34375 0.21875 -1.015625l-0.75 0z" fill-rule="nonzero"></path><path fill="#000000" d="m142.19878 121.75454l-2.375 -7.78125l1.359375 0l1.234375 4.5l0.46875 1.65625q0.03125 -0.125 0.40625 -1.59375l1.234375 -4.5625l1.34375 0l1.171875 4.515625l0.390625 1.484375l0.4375 -1.5l1.34375 -4.5l1.28125 0l-2.4375 7.78125l-1.359375 0l-1.25 -4.65625l-0.296875 -1.328125l-1.578125 5.984375l-1.375 0zm9.146774 0l0 -10.734375l1.328125 0l0 3.84375q0.921875 -1.0625 2.328125 -1.0625q0.859375 0 1.5 0.34375q0.640625 0.34375 0.90625 0.9375q0.28125 0.59375 0.28125 1.75l0 4.921875l-1.328125 0l0 -4.921875q0 -1.0 -0.421875 -1.4375q-0.421875 -0.453125 -1.21875 -0.453125q-0.578125 0 -1.09375 0.296875q-0.515625 0.296875 -0.734375 0.828125q-0.21875 0.515625 -0.21875 1.4375l0 4.25l-1.328125 0zm13.479233 -2.5l1.359375 0.15625q-0.3125 1.203125 -1.1875 1.859375q-0.875 0.65625 -2.234375 0.65625q-1.703125 0 -2.703125 -1.046875q-1.0 -1.046875 -1.0 -2.953125q0 -1.953125 1.015625 -3.03125q1.015625 -1.09375 2.625 -1.09375q1.5625 0 2.546875 1.0625q0.984375 1.0625 0.984375 2.984375q0 0.125 0 0.359375l-5.8125 0q0.078125 1.28125 0.71875 1.96875q0.65625 0.671875 1.640625 0.671875q0.71875 0 1.234375 -0.375q0.515625 -0.390625 0.8125 -1.21875zm-4.328125 -2.140625l4.34375 0q-0.09375 -0.984375 -0.5 -1.46875q-0.625 -0.765625 -1.625 -0.765625q-0.921875 0 -1.546875 0.609375q-0.609375 0.609375 -0.671875 1.625zm7.135483 4.640625l0 -7.78125l1.1875 0l0 1.1875q0.453125 -0.828125 0.84375 -1.09375q0.390625 -0.265625 0.84375 -0.265625q0.671875 0 1.359375 0.421875l-0.453125 1.21875q-0.484375 -0.28125 -0.96875 -0.28125q-0.4375 0 -0.78125 0.265625q-0.34375 0.25 -0.484375 0.71875q-0.21875 0.703125 -0.21875 1.53125l0 4.078125l-1.328125 0zm10.224396 -2.5l1.359375 0.15625q-0.3125 1.203125 -1.1875 1.859375q-0.875 0.65625 -2.234375 0.65625q-1.703125 0 -2.703125 -1.046875q-1.0 -1.046875 -1.0 -2.953125q0 -1.953125 1.015625 -3.03125q1.015625 -1.09375 2.625 -1.09375q1.5625 0 2.546875 1.0625q0.984375 1.0625 0.984375 2.984375q0 0.125 0 0.359375l-5.8125 0q0.078125 1.28125 0.71875 1.96875q0.65625 0.671875 1.640625 0.671875q0.71875 0 1.234375 -0.375q0.515625 -0.390625 0.8125 -1.21875zm-4.328125 -2.140625l4.34375 0q-0.09375 -0.984375 -0.5 -1.46875q-0.625 -0.765625 -1.625 -0.765625q-0.921875 0 -1.546875 0.609375q-0.609375 0.609375 -0.671875 1.625zm10.3012085 4.640625l4.15625 -5.59375l-3.65625 -5.140625l1.6875 0l1.953125 2.75q0.609375 0.859375 0.859375 1.3125q0.359375 -0.578125 0.84375 -1.21875l2.171875 -2.84375l1.53125 0l-3.765625 5.0625l4.0625 5.671875l-1.75 0l-2.703125 -3.828125q-0.234375 -0.328125 -0.46875 -0.71875q-0.359375 0.578125 -0.515625 0.796875l-2.703125 3.75l-1.703125 0zm14.78508 -9.21875l0 -1.515625l1.3125 0l0 1.515625l-1.3125 0zm0 9.21875l0 -7.78125l1.3125 0l0 7.78125l-1.3125 0zm2.7248993 -2.328125l1.296875 -0.203125q0.109375 0.78125 0.609375 1.203125q0.5 0.421875 1.40625 0.421875q0.90625 0 1.34375 -0.359375q0.4375 -0.375 0.4375 -0.875q0 -0.453125 -0.390625 -0.703125q-0.265625 -0.1875 -1.34375 -0.453125q-1.453125 -0.359375 -2.015625 -0.625q-0.546875 -0.28125 -0.84375 -0.75q-0.28125 -0.46875 -0.28125 -1.046875q0 -0.515625 0.234375 -0.953125q0.234375 -0.453125 0.640625 -0.734375q0.3125 -0.234375 0.84375 -0.390625q0.53125 -0.15625 1.140625 -0.15625q0.90625 0 1.59375 0.265625q0.703125 0.265625 1.03125 0.71875q0.328125 0.4375 0.453125 1.203125l-1.28125 0.171875q-0.09375 -0.609375 -0.515625 -0.9375q-0.421875 -0.34375 -1.1875 -0.34375q-0.90625 0 -1.296875 0.3125q-0.390625 0.296875 -0.390625 0.703125q0 0.25 0.15625 0.453125q0.171875 0.21875 0.515625 0.359375q0.1875 0.0625 1.15625 0.328125q1.40625 0.375 1.953125 0.609375q0.5625 0.234375 0.875 0.703125q0.3125 0.453125 0.3125 1.125q0 0.65625 -0.390625 1.234375q-0.375 0.578125 -1.109375 0.90625q-0.71875 0.3125 -1.640625 0.3125q-1.515625 0 -2.3125 -0.625q-0.78125 -0.625 -1.0 -1.875zm11.884476 2.328125l0 -10.734375l1.328125 0l0 10.734375l-1.328125 0zm8.365524 -0.953125q-0.734375 0.609375 -1.40625 0.875q-0.671875 0.25 -1.453125 0.25q-1.28125 0 -1.96875 -0.625q-0.6875 -0.625 -0.6875 -1.59375q0 -0.578125 0.25 -1.046875q0.265625 -0.46875 0.6875 -0.75q0.421875 -0.296875 0.953125 -0.4375q0.375 -0.109375 1.171875 -0.203125q1.59375 -0.1875 2.34375 -0.453125q0.015625 -0.265625 0.015625 -0.34375q0 -0.8125 -0.375 -1.140625q-0.515625 -0.4375 -1.5 -0.4375q-0.9375 0 -1.390625 0.328125q-0.4375 0.3125 -0.640625 1.140625l-1.296875 -0.171875q0.171875 -0.828125 0.578125 -1.328125q0.40625 -0.515625 1.171875 -0.78125q0.765625 -0.28125 1.765625 -0.28125q1.0 0 1.609375 0.234375q0.625 0.234375 0.921875 0.59375q0.296875 0.34375 0.40625 0.890625q0.0625 0.34375 0.0625 1.21875l0 1.75q0 1.84375 0.078125 2.328125q0.09375 0.484375 0.34375 0.9375l-1.375 0q-0.203125 -0.40625 -0.265625 -0.953125zm-0.109375 -2.953125q-0.71875 0.296875 -2.15625 0.5q-0.8125 0.125 -1.15625 0.265625q-0.328125 0.140625 -0.515625 0.421875q-0.171875 0.28125 -0.171875 0.625q0 0.53125 0.390625 0.890625q0.40625 0.34375 1.171875 0.34375q0.765625 0 1.359375 -0.328125q0.59375 -0.34375 0.875 -0.921875q0.203125 -0.4375 0.203125 -1.3125l0 -0.484375zm3.1667328 3.90625l0 -7.78125l1.1875 0l0 1.1875q0.453125 -0.828125 0.84375 -1.09375q0.390625 -0.265625 0.84375 -0.265625q0.671875 0 1.359375 0.421875l-0.453125 1.21875q-0.484375 -0.28125 -0.96875 -0.28125q-0.4375 0 -0.78125 0.265625q-0.34375 0.25 -0.484375 0.71875q-0.21875 0.703125 -0.21875 1.53125l0 4.078125l-1.328125 0zm4.6618958 0.640625l1.28125 0.1875q0.078125 0.59375 0.4375 0.875q0.5 0.359375 1.34375 0.359375q0.921875 0 1.421875 -0.375q0.5 -0.359375 0.671875 -1.015625q0.09375 -0.40625 0.09375 -1.6875q-0.859375 1.015625 -2.15625 1.015625q-1.609375 0 -2.484375 -1.15625q-0.875 -1.15625 -0.875 -2.78125q0 -1.109375 0.40625 -2.046875q0.40625 -0.9375 1.15625 -1.453125q0.765625 -0.515625 1.8125 -0.515625q1.375 0 2.265625 1.109375l0 -0.9375l1.21875 0l0 6.71875q0 1.828125 -0.375 2.578125q-0.375 0.765625 -1.171875 1.203125q-0.796875 0.4375 -1.96875 0.4375q-1.390625 0 -2.25 -0.625q-0.859375 -0.625 -0.828125 -1.890625zm1.09375 -4.671875q0 1.53125 0.59375 2.234375q0.609375 0.703125 1.53125 0.703125q0.90625 0 1.515625 -0.6875q0.625 -0.703125 0.625 -2.203125q0 -1.421875 -0.640625 -2.140625q-0.625 -0.734375 -1.515625 -0.734375q-0.890625 0 -1.5 0.71875q-0.609375 0.703125 -0.609375 2.109375zm12.619858 1.53125l1.359375 0.15625q-0.3125 1.203125 -1.1875 1.859375q-0.875 0.65625 -2.234375 0.65625q-1.703125 0 -2.703125 -1.046875q-1.0 -1.046875 -1.0 -2.953125q0 -1.953125 1.015625 -3.03125q1.015625 -1.09375 2.625 -1.09375q1.5625 0 2.546875 1.0625q0.984375 1.0625 0.984375 2.984375q0 0.125 0 0.359375l-5.8125 0q0.078125 1.28125 0.71875 1.96875q0.65625 0.671875 1.640625 0.671875q0.71875 0 1.234375 -0.375q0.515625 -0.390625 0.8125 -1.21875zm-4.328125 -2.140625l4.34375 0q-0.09375 -0.984375 -0.5 -1.46875q-0.625 -0.765625 -1.625 -0.765625q-0.921875 0 -1.546875 0.609375q-0.609375 0.609375 -0.671875 1.625z" fill-rule="nonzero"></path><path fill="#38761d" d="m10.036745 255.80644l0 0c0 -16.50766 23.450407 -29.88977 52.377953 -29.88977l0 0c28.92754 0 52.37795 13.382111 52.37795 29.88977l0 0c0 16.507645 -23.450409 29.889755 -52.37795 29.889755l0 0c-28.927547 0 -52.377953 -13.382111 -52.377953 -29.889755z" fill-rule="evenodd"></path><path stroke="#000000" stroke-width="1.0" stroke-linejoin="round" stroke-linecap="butt" d="m10.036745 255.80644l0 0c0 -16.50766 23.450407 -29.88977 52.377953 -29.88977l0 0c28.92754 0 52.37795 13.382111 52.37795 29.88977l0 0c0 16.507645 -23.450409 29.889755 -52.37795 29.889755l0 0c-28.927547 0 -52.377953 -13.382111 -52.377953 -29.889755z" fill-rule="evenodd"></path><path fill="#000000" fill-opacity="0.0" d="m21.706038 225.91862l81.41732 0l0 57.76378l-81.41732 0z" fill-rule="evenodd"></path><path fill="#ffffff" d="m33.023975 248.99863l0 -10.734375l3.703125 0q1.25 0 1.90625 0.15625q0.921875 0.203125 1.578125 0.765625q0.84375 0.71875 1.265625 1.84375q0.421875 1.109375 0.421875 2.546875q0 1.21875 -0.28125 2.171875q-0.28125 0.9375 -0.734375 1.5625q-0.453125 0.609375 -0.984375 0.96875q-0.53125 0.359375 -1.28125 0.546875q-0.75 0.171875 -1.71875 0.171875l-3.875 0zm1.421875 -1.265625l2.296875 0q1.0625 0 1.65625 -0.1875q0.609375 -0.203125 0.96875 -0.5625q0.5 -0.515625 0.78125 -1.359375q0.28125 -0.859375 0.28125 -2.078125q0 -1.6875 -0.546875 -2.578125q-0.546875 -0.90625 -1.34375 -1.21875q-0.578125 -0.21875 -1.84375 -0.21875l-2.25 0l0 8.203125zm14.068649 0.3125q-0.734375 0.609375 -1.40625 0.875q-0.671875 0.25 -1.453125 0.25q-1.28125 0 -1.96875 -0.625q-0.6875 -0.625 -0.6875 -1.59375q0 -0.578125 0.25 -1.046875q0.265625 -0.46875 0.6875 -0.75q0.421875 -0.296875 0.953125 -0.4375q0.375 -0.109375 1.171875 -0.203125q1.59375 -0.1875 2.34375 -0.453125q0.015625 -0.265625 0.015625 -0.34375q0 -0.8125 -0.375 -1.140625q-0.515625 -0.4375 -1.5 -0.4375q-0.9375 0 -1.390625 0.328125q-0.4375 0.3125 -0.640625 1.140625l-1.296875 -0.171875q0.171875 -0.828125 0.578125 -1.328125q0.40625 -0.515625 1.171875 -0.78125q0.765625 -0.28125 1.765625 -0.28125q1.0 0 1.609375 0.234375q0.625 0.234375 0.921875 0.59375q0.296875 0.34375 0.40625 0.890625q0.0625 0.34375 0.0625 1.21875l0 1.75q0 1.84375 0.078125 2.328125q0.09375 0.484375 0.34375 0.9375l-1.375 0q-0.203125 -0.40625 -0.265625 -0.953125zm-0.109375 -2.953125q-0.71875 0.296875 -2.15625 0.5q-0.8125 0.125 -1.15625 0.265625q-0.328125 0.140625 -0.515625 0.421875q-0.171875 0.28125 -0.171875 0.625q0 0.53125 0.390625 0.890625q0.40625 0.34375 1.171875 0.34375q0.765625 0 1.359375 -0.328125q0.59375 -0.34375 0.875 -0.921875q0.203125 -0.4375 0.203125 -1.3125l0 -0.484375zm6.072983 2.734375l0.1875 1.15625q-0.5625 0.125 -1.0 0.125q-0.71875 0 -1.125 -0.234375q-0.390625 -0.234375 -0.546875 -0.59375q-0.15625 -0.375 -0.15625 -1.5625l0 -4.46875l-0.96875 0l0 -1.03125l0.96875 0l0 -1.921875l1.3125 -0.796875l0 2.71875l1.328125 0l0 1.03125l-1.328125 0l0 4.546875q0 0.5625 0.0625 0.734375q0.078125 0.15625 0.234375 0.25q0.15625 0.09375 0.4375 0.09375q0.234375 0 0.59375 -0.046875zm6.2594757 0.21875q-0.734375 0.609375 -1.40625 0.875q-0.671875 0.25 -1.453125 0.25q-1.28125 0 -1.96875 -0.625q-0.6875 -0.625 -0.6875 -1.59375q0 -0.578125 0.25 -1.046875q0.265625 -0.46875 0.6875 -0.75q0.421875 -0.296875 0.953125 -0.4375q0.375 -0.109375 1.171875 -0.203125q1.59375 -0.1875 2.34375 -0.453125q0.015625 -0.265625 0.015625 -0.34375q0 -0.8125 -0.375 -1.140625q-0.515625 -0.4375 -1.5 -0.4375q-0.9375 0 -1.390625 0.328125q-0.4375 0.3125 -0.640625 1.140625l-1.296875 -0.171875q0.171875 -0.828125 0.578125 -1.328125q0.40625 -0.515625 1.171875 -0.78125q0.765625 -0.28125 1.765625 -0.28125q1.0 0 1.609375 0.234375q0.625 0.234375 0.921875 0.59375q0.296875 0.34375 0.40625 0.890625q0.0625 0.34375 0.0625 1.21875l0 1.75q0 1.84375 0.078125 2.328125q0.09375 0.484375 0.34375 0.9375l-1.375 0q-0.203125 -0.40625 -0.265625 -0.953125zm-0.109375 -2.953125q-0.71875 0.296875 -2.15625 0.5q-0.8125 0.125 -1.15625 0.265625q-0.328125 0.140625 -0.515625 0.421875q-0.171875 0.28125 -0.171875 0.625q0 0.53125 0.390625 0.890625q0.40625 0.34375 1.171875 0.34375q0.765625 0 1.359375 -0.328125q0.59375 -0.34375 0.875 -0.921875q0.203125 -0.4375 0.203125 -1.3125l0 -0.484375zm8.691837 3.90625l-2.375 -7.78125l1.359375 0l1.234375 4.5l0.46875 1.65625q0.03125 -0.125 0.40625 -1.59375l1.234375 -4.5625l1.34375 0l1.171875 4.515625l0.390625 1.484375l0.4375 -1.5l1.34375 -4.5l1.28125 0l-2.4375 7.78125l-1.359375 0l-1.25 -4.65625l-0.296875 -1.328125l-1.578125 5.984375l-1.375 0zm9.162399 -9.21875l0 -1.515625l1.3125 0l0 1.515625l-1.3125 0zm0 9.21875l0 -7.78125l1.3125 0l0 7.78125l-1.3125 0zm6.1311493 -1.171875l0.1875 1.15625q-0.5625 0.125 -1.0 0.125q-0.71875 0 -1.125 -0.234375q-0.390625 -0.234375 -0.546875 -0.59375q-0.15625 -0.375 -0.15625 -1.5625l0 -4.46875l-0.96875 0l0 -1.03125l0.96875 0l0 -1.921875l1.3125 -0.796875l0 2.71875l1.328125 0l0 1.03125l-1.328125 0l0 4.546875q0 0.5625 0.0625 0.734375q0.078125 0.15625 0.234375 0.25q0.15625 0.09375 0.4375 0.09375q0.234375 0 0.59375 -0.046875zm1.1813507 1.171875l0 -10.734375l1.328125 0l0 3.84375q0.921875 -1.0625 2.328125 -1.0625q0.859375 0 1.5 0.34375q0.640625 0.34375 0.90625 0.9375q0.28125 0.59375 0.28125 1.75l0 4.921875l-1.328125 0l0 -4.921875q0 -1.0 -0.421875 -1.4375q-0.421875 -0.453125 -1.21875 -0.453125q-0.578125 0 -1.09375 0.296875q-0.515625 0.296875 -0.734375 0.828125q-0.21875 0.515625 -0.21875 1.4375l0 4.25l-1.328125 0z" fill-rule="nonzero"></path><path fill="#ffffff" d="m40.148975 266.99863l0 -10.734375l1.328125 0l0 10.734375l-1.328125 0zm8.365524 -0.953125q-0.734375 0.609375 -1.40625 0.875q-0.671875 0.25 -1.453125 0.25q-1.28125 0 -1.96875 -0.625q-0.6875 -0.625 -0.6875 -1.59375q0 -0.578125 0.25 -1.046875q0.265625 -0.46875 0.6875 -0.75q0.421875 -0.296875 0.953125 -0.4375q0.375 -0.109375 1.171875 -0.203125q1.59375 -0.1875 2.34375 -0.453125q0.015625 -0.265625 0.015625 -0.34375q0 -0.8125 -0.375 -1.140625q-0.515625 -0.4375 -1.5 -0.4375q-0.9375 0 -1.390625 0.328125q-0.4375 0.3125 -0.640625 1.140625l-1.296875 -0.171875q0.171875 -0.828125 0.578125 -1.328125q0.40625 -0.515625 1.171875 -0.78125q0.765625 -0.28125 1.765625 -0.28125q1.0 0 1.609375 0.234375q0.625 0.234375 0.921875 0.59375q0.296875 0.34375 0.40625 0.890625q0.0625 0.34375 0.0625 1.21875l0 1.75q0 1.84375 0.078125 2.328125q0.09375 0.484375 0.34375 0.9375l-1.375 0q-0.203125 -0.40625 -0.265625 -0.953125zm-0.109375 -2.953125q-0.71875 0.296875 -2.15625 0.5q-0.8125 0.125 -1.15625 0.265625q-0.328125 0.140625 -0.515625 0.421875q-0.171875 0.28125 -0.171875 0.625q0 0.53125 0.390625 0.890625q0.40625 0.34375 1.171875 0.34375q0.765625 0 1.359375 -0.328125q0.59375 -0.34375 0.875 -0.921875q0.203125 -0.4375 0.203125 -1.3125l0 -0.484375zm3.1667328 3.90625l0 -7.78125l1.1875 0l0 1.1875q0.453125 -0.828125 0.84375 -1.09375q0.390625 -0.265625 0.84375 -0.265625q0.671875 0 1.359375 0.421875l-0.453125 1.21875q-0.484375 -0.28125 -0.96875 -0.28125q-0.4375 0 -0.78125 0.265625q-0.34375 0.25 -0.484375 0.71875q-0.21875 0.703125 -0.21875 1.53125l0 4.078125l-1.328125 0zm4.6618958 0.640625l1.28125 0.1875q0.078125 0.59375 0.4375 0.875q0.5 0.359375 1.34375 0.359375q0.921875 0 1.421875 -0.375q0.5 -0.359375 0.671875 -1.015625q0.09375 -0.40625 0.09375 -1.6875q-0.859375 1.015625 -2.15625 1.015625q-1.609375 0 -2.484375 -1.15625q-0.875 -1.15625 -0.875 -2.78125q0 -1.109375 0.40625 -2.046875q0.40625 -0.9375 1.15625 -1.453125q0.765625 -0.515625 1.8125 -0.515625q1.375 0 2.265625 1.109375l0 -0.9375l1.21875 0l0 6.71875q0 1.828125 -0.375 2.578125q-0.375 0.765625 -1.171875 1.203125q-0.796875 0.4375 -1.96875 0.4375q-1.390625 0 -2.25 -0.625q-0.859375 -0.625 -0.828125 -1.890625zm1.09375 -4.671875q0 1.53125 0.59375 2.234375q0.609375 0.703125 1.53125 0.703125q0.90625 0 1.515625 -0.6875q0.625 -0.703125 0.625 -2.203125q0 -1.421875 -0.640625 -2.140625q-0.625 -0.734375 -1.515625 -0.734375q-0.890625 0 -1.5 0.71875q-0.609375 0.703125 -0.609375 2.109375zm12.619862 1.53125l1.359375 0.15625q-0.3125 1.203125 -1.1875 1.859375q-0.875 0.65625 -2.234375 0.65625q-1.703125 0 -2.703125 -1.046875q-1.0 -1.046875 -1.0 -2.953125q0 -1.953125 1.015625 -3.03125q1.015625 -1.09375 2.625 -1.09375q1.5625 0 2.546875 1.0625q0.984375 1.0625 0.984375 2.984375q0 0.125 0 0.359375l-5.8125 0q0.078125 1.28125 0.71875 1.96875q0.65625 0.671875 1.640625 0.671875q0.71875 0 1.234375 -0.375q0.515625 -0.390625 0.8125 -1.21875zm-4.328125 -2.140625l4.34375 0q-0.09375 -0.984375 -0.5 -1.46875q-0.625 -0.765625 -1.625 -0.765625q-0.921875 0 -1.546875 0.609375q-0.609375 0.609375 -0.671875 1.625zm10.3012085 4.640625l4.15625 -5.59375l-3.65625 -5.140625l1.6875 0l1.953125 2.75q0.609375 0.859375 0.859375 1.3125q0.359375 -0.578125 0.84375 -1.21875l2.171875 -2.84375l1.53125 0l-3.765625 5.0625l4.0625 5.671875l-1.75 0l-2.703125 -3.828125q-0.234375 -0.328125 -0.46875 -0.71875q-0.359375 0.578125 -0.515625 0.796875l-2.703125 3.75l-1.703125 0z" fill-rule="nonzero"></path></g></svg>

